<?xml version="1.0" encoding="utf-8"?>
<!-- Generator: Adobe Illustrator 27.5.0, SVG Export Plug-In . SVG Version: 6.00 Build 0)  -->
<svg version="1.1" xmlns="http://www.w3.org/2000/svg" xmlns:xlink="http://www.w3.org/1999/xlink" x="0px" y="0px"
	 viewBox="0 0 750 500" style="enable-background:new 0 0 750 500;" xml:space="preserve">
<g id="BACKGROUND">
	<rect style="fill:#FFFFFF;" width="750" height="500"/>
</g>
<g id="OBJECTS">
	<g>
		<polygon style="fill:#722626;" points="174.092,83.323 174.092,75.247 166.016,75.247 166.016,67.17 157.939,67.17 
			157.939,59.094 149.863,59.094 149.863,51.018 141.786,51.018 133.71,51.018 133.71,59.094 125.634,59.094 125.634,67.17 
			117.557,67.17 117.557,75.247 109.481,75.247 109.481,83.323 101.404,83.323 101.404,91.399 109.481,91.399 109.481,99.476 
			141.786,99.476 174.092,99.476 174.092,91.399 182.168,91.399 182.168,83.323 		"/>
		<g>
			<polygon style="fill:#722626;" points="125.634,204.469 125.634,180.24 101.404,180.24 101.404,188.316 109.481,188.316 
				109.481,196.393 101.404,196.393 101.404,204.469 93.328,204.469 93.328,212.545 101.404,212.545 101.404,228.698 
				109.481,228.698 109.481,220.622 109.481,212.545 117.557,212.545 117.557,204.469 			"/>
			<rect x="77.175" y="220.622" style="fill:#722626;" width="8.076" height="8.076"/>
			<rect x="85.252" y="212.545" style="fill:#722626;" width="8.076" height="8.076"/>
			<rect x="190.245" y="212.545" style="fill:#722626;" width="8.076" height="8.076"/>
			<polygon style="fill:#722626;" points="182.168,204.469 182.168,196.393 174.092,196.393 174.092,188.316 182.168,188.316 
				182.168,180.24 157.939,180.24 157.939,204.469 166.016,204.469 166.016,212.545 174.092,212.545 174.092,220.622 
				174.092,228.698 182.168,228.698 182.168,212.545 190.245,212.545 190.245,204.469 			"/>
			<rect x="198.321" y="220.622" style="fill:#722626;" width="8.076" height="8.076"/>
			<rect x="125.634" y="220.622" style="fill:#722626;" width="8.076" height="8.076"/>
			<rect x="117.557" y="212.545" style="fill:#722626;" width="8.076" height="8.076"/>
			<rect x="125.634" y="204.469" style="fill:#722626;" width="8.076" height="8.076"/>
			<rect x="149.863" y="220.622" style="fill:#722626;" width="8.076" height="8.076"/>
			<rect x="149.863" y="204.469" style="fill:#722626;" width="8.076" height="8.076"/>
			<rect x="157.939" y="212.545" style="fill:#722626;" width="8.076" height="8.076"/>
		</g>
		<polygon style="fill:#9B3A38;" points="174.092,123.705 174.092,115.629 174.092,99.476 166.016,99.476 166.016,91.399 
			166.016,83.323 157.939,83.323 157.939,75.247 149.863,75.247 149.863,67.17 141.786,67.17 133.71,67.17 133.71,75.247 
			125.634,75.247 125.634,83.323 117.557,83.323 117.557,91.399 117.557,99.476 109.481,99.476 109.481,115.629 109.481,123.705 
			101.404,123.705 101.404,180.24 109.481,180.24 109.481,188.316 109.481,196.393 117.557,196.393 125.634,196.393 
			125.634,204.469 141.786,204.469 157.939,204.469 157.939,196.393 166.016,196.393 174.092,196.393 174.092,188.316 
			174.092,180.24 182.168,180.24 182.168,123.705 		"/>
		<g>
			<rect x="117.557" y="188.316" style="fill:#28211C;" width="8.076" height="8.076"/>
			<rect x="157.939" y="188.316" style="fill:#28211C;" width="8.076" height="8.076"/>
		</g>
		<g>
			<rect x="141.786" y="67.17" style="fill:#AB403E;" width="8.076" height="8.076"/>
			<rect x="149.863" y="75.247" style="fill:#AB403E;" width="8.076" height="8.076"/>
			<polygon style="fill:#AB403E;" points="166.016,99.476 166.016,107.552 166.016,123.705 174.092,123.705 174.092,99.476 			"/>
			<rect x="157.939" y="83.323" style="fill:#AB403E;" width="8.076" height="16.153"/>
			<rect x="174.092" y="123.705" style="fill:#AB403E;" width="8.076" height="8.076"/>
		</g>
	</g>
	<g>
		<g>
			<polygon style="fill:#F0923D;" points="125.634,405.696 133.71,405.696 133.71,397.62 141.786,397.62 141.786,389.543 
				149.863,389.543 157.939,389.543 157.939,397.62 149.863,397.62 149.863,405.696 141.786,405.696 141.786,413.772 
				133.71,413.772 133.71,421.849 141.786,421.849 141.786,429.925 149.863,429.925 149.863,438.001 157.939,438.001 
				157.939,446.078 141.786,446.078 141.786,438.001 133.71,438.001 133.71,429.925 125.634,429.925 			"/>
			<polygon style="fill:#FFB031;" points="198.321,292.626 198.321,284.55 190.245,284.55 190.245,276.474 174.092,276.474 
				174.092,268.397 125.634,268.397 125.634,276.474 117.557,276.474 109.481,276.474 109.481,284.55 101.404,284.55 
				101.404,292.626 93.328,292.626 93.328,300.703 85.252,300.703 85.252,308.779 77.175,308.779 77.175,316.856 77.175,333.008 
				69.099,333.008 69.099,349.161 61.022,349.161 61.022,373.39 69.099,373.39 69.099,397.62 77.175,397.62 77.175,405.696 
				85.252,405.696 85.252,413.772 101.404,413.772 101.404,421.849 109.481,421.849 109.481,429.925 125.634,429.925 
				125.634,421.849 133.71,421.849 133.71,413.772 125.634,413.772 125.634,405.696 117.557,405.696 117.557,397.62 109.481,397.62 
				109.481,381.467 117.557,381.467 117.557,365.314 125.634,365.314 133.71,365.314 133.71,357.238 141.786,357.238 
				157.939,357.238 157.939,349.161 174.092,349.161 174.092,341.085 182.168,341.085 190.245,341.085 190.245,333.008 
				198.321,333.008 198.321,324.932 206.397,324.932 206.397,292.626 			"/>
			<g>
				<polygon style="fill:#FFD54D;" points="69.099,349.161 77.175,349.161 77.175,341.085 77.175,333.008 69.099,333.008 				"/>
				<polygon style="fill:#FFD54D;" points="85.252,308.779 77.175,308.779 77.175,333.008 85.252,333.008 85.252,316.856 
					93.328,316.856 93.328,300.703 85.252,300.703 				"/>
				<rect x="61.022" y="349.161" style="fill:#FFD54D;" width="8.076" height="8.076"/>
				<rect x="101.404" y="284.55" style="fill:#FFD54D;" width="8.076" height="8.076"/>
				<rect x="125.634" y="268.397" style="fill:#FFD54D;" width="16.153" height="8.076"/>
				<rect x="93.328" y="292.626" style="fill:#FFD54D;" width="8.076" height="8.076"/>
				<rect x="109.481" y="276.474" style="fill:#FFD54D;" width="16.153" height="8.076"/>
			</g>
			<g>
				<rect x="101.404" y="381.467" style="fill:#F0923D;" width="8.076" height="8.076"/>
				<rect x="125.634" y="357.238" style="fill:#F0923D;" width="8.076" height="8.076"/>
				<rect x="149.863" y="341.085" style="fill:#F0923D;" width="8.076" height="8.076"/>
				<rect x="141.786" y="333.008" style="fill:#F0923D;" width="8.076" height="8.076"/>
				<rect x="125.634" y="268.397" style="fill:#F0923D;" width="8.076" height="8.076"/>
				<rect x="133.71" y="276.474" style="fill:#F0923D;" width="8.076" height="8.076"/>
				<rect x="101.404" y="284.55" style="fill:#F0923D;" width="8.076" height="8.076"/>
				<rect x="109.481" y="292.626" style="fill:#F0923D;" width="8.076" height="8.076"/>
				<rect x="85.252" y="300.703" style="fill:#F0923D;" width="8.076" height="8.076"/>
				<rect x="93.328" y="308.779" style="fill:#F0923D;" width="8.076" height="8.076"/>
				<rect x="117.557" y="349.161" style="fill:#F0923D;" width="8.076" height="8.076"/>
				<rect x="93.328" y="373.39" style="fill:#F0923D;" width="8.076" height="8.076"/>
			</g>
		</g>
		<rect x="149.863" y="292.626" style="fill:#28211C;" width="8.076" height="8.076"/>
		<polygon style="fill:#F0923D;" points="206.397,308.779 206.397,300.703 214.474,300.703 214.474,292.626 222.55,292.626 
			222.55,284.55 214.474,284.55 214.474,276.474 206.397,276.474 206.397,268.397 198.321,268.397 198.321,260.321 206.397,260.321 
			206.397,268.397 214.474,268.397 214.474,276.474 222.55,276.474 222.55,284.55 230.627,284.55 230.627,292.626 222.55,292.626 
			222.55,300.703 214.474,300.703 214.474,308.779 		"/>
		<polygon style="fill:#F0923D;" points="206.397,300.703 206.397,308.779 214.474,308.779 214.474,316.856 222.55,316.856 
			222.55,324.932 214.474,324.932 214.474,333.008 206.397,333.008 206.397,341.085 198.321,341.085 198.321,349.161 
			206.397,349.161 206.397,341.085 214.474,341.085 214.474,333.008 222.55,333.008 222.55,324.932 230.627,324.932 
			230.627,316.856 222.55,316.856 222.55,308.779 214.474,308.779 214.474,300.703 		"/>
	</g>
	<g>
		<polygon style="fill:#513418;" points="359.849,51.018 359.849,42.941 351.772,42.941 351.772,51.018 343.696,51.018 
			343.696,59.094 335.62,59.094 335.62,67.17 327.543,67.17 327.543,75.247 319.467,75.247 319.467,83.323 311.391,83.323 
			311.391,91.399 311.391,107.552 319.467,107.552 319.467,115.629 319.467,131.781 327.543,131.781 327.543,139.858 
			327.543,164.087 319.467,164.087 319.467,172.163 311.391,172.163 311.391,180.24 311.391,188.316 303.314,188.316 
			303.314,204.469 303.314,212.545 311.391,212.545 311.391,220.622 319.467,220.622 319.467,228.698 327.543,228.698 
			327.543,236.775 335.62,236.775 335.62,99.476 359.849,99.476 		"/>
		<g>
			<polygon style="fill:#754F26;" points="400.231,75.247 400.231,67.17 392.154,67.17 392.154,59.094 384.078,59.094 
				384.078,51.018 376.002,51.018 359.849,51.018 359.849,59.094 343.696,59.094 343.696,67.17 335.62,67.17 335.62,75.247 
				327.543,75.247 327.543,83.323 319.467,83.323 319.467,99.476 319.467,107.552 327.543,107.552 327.543,123.705 327.543,131.781 
				335.62,131.781 335.62,164.087 327.543,164.087 327.543,180.24 319.467,180.24 319.467,196.393 311.391,196.393 311.391,212.545 
				319.467,212.545 319.467,220.622 327.543,220.622 327.543,228.698 335.62,228.698 335.62,236.775 343.696,236.775 
				343.696,244.851 367.925,244.851 367.925,236.775 384.078,236.775 384.078,228.698 392.154,228.698 392.154,220.622 
				376.002,220.622 376.002,228.698 367.925,228.698 367.925,220.622 359.849,220.622 359.849,212.545 359.849,204.469 
				367.925,204.469 367.925,196.393 376.002,196.393 384.078,196.393 392.154,196.393 392.154,188.316 392.154,180.24 
				400.231,180.24 400.231,156.011 400.231,147.934 392.154,147.934 392.154,131.781 384.078,131.781 384.078,123.705 
				384.078,107.552 384.078,99.476 392.154,99.476 392.154,91.399 400.231,91.399 400.231,83.323 408.307,83.323 408.307,75.247 			
				"/>
			<rect x="408.307" y="67.17" style="fill:#754F26;" width="8.076" height="8.076"/>
			<rect x="408.307" y="83.323" style="fill:#754F26;" width="8.076" height="8.076"/>
		</g>
		<polygon style="fill:#AA7A41;" points="384.078,107.552 376.002,107.552 376.002,99.476 367.925,99.476 367.925,107.552 
			376.002,107.552 376.002,115.629 384.078,115.629 		"/>
		<polygon style="fill:#AA7A41;" points="384.078,131.781 376.002,131.781 376.002,123.705 367.925,123.705 367.925,131.781 
			376.002,131.781 376.002,139.858 384.078,139.858 		"/>
		<polygon style="fill:#AA7A41;" points="400.231,156.011 392.154,156.011 392.154,147.934 384.078,147.934 384.078,156.011 
			392.154,156.011 392.154,164.087 400.231,164.087 		"/>
		<polygon style="fill:#AA7A41;" points="392.154,172.163 384.078,172.163 384.078,164.087 376.002,164.087 376.002,172.163 
			384.078,172.163 384.078,180.24 392.154,180.24 		"/>
		<polygon style="fill:#AA7A41;" points="384.078,188.316 376.002,188.316 376.002,180.24 367.925,180.24 367.925,188.316 
			376.002,188.316 376.002,196.393 384.078,196.393 		"/>
		<polygon style="fill:#AA7A41;" points="359.849,196.393 351.772,196.393 351.772,188.316 343.696,188.316 343.696,196.393 
			351.772,196.393 351.772,204.469 359.849,204.469 		"/>
		<rect x="367.925" y="67.17" style="fill:#28211C;" width="8.076" height="8.076"/>
	</g>
	<g>
		<polygon style="fill:#9B3A38;" points="432.536,357.238 432.536,349.161 424.46,349.161 424.46,333.008 416.384,333.008 
			408.307,333.008 400.231,333.008 400.231,324.932 367.925,324.932 335.62,324.932 335.62,333.008 327.543,333.008 
			319.467,333.008 311.391,333.008 311.391,349.161 303.314,349.161 303.314,357.238 295.238,357.238 295.238,373.39 
			303.314,373.39 303.314,389.543 311.391,389.543 311.391,397.62 311.391,405.696 319.467,405.696 319.467,413.772 335.62,413.772 
			335.62,421.849 351.772,421.849 351.772,429.925 367.925,429.925 384.078,429.925 384.078,421.849 400.231,421.849 
			400.231,413.772 416.384,413.772 416.384,405.696 424.46,405.696 424.46,397.62 424.46,389.543 432.536,389.543 432.536,373.39 
			440.613,373.39 440.613,357.238 		"/>
		<polygon style="fill:#722626;" points="343.696,292.626 351.772,292.626 351.772,284.55 335.62,284.55 335.62,276.474 
			327.543,276.474 319.467,276.474 319.467,284.55 311.391,284.55 311.391,292.626 303.314,292.626 303.314,300.703 
			295.238,300.703 295.238,316.856 295.238,324.932 303.314,324.932 303.314,333.008 311.391,333.008 311.391,341.085 
			319.467,341.085 319.467,333.008 319.467,324.932 311.391,324.932 311.391,316.856 303.314,316.856 303.314,308.779 
			311.391,308.779 311.391,300.703 319.467,300.703 319.467,308.779 327.543,308.779 327.543,316.856 343.696,316.856 
			343.696,308.779 351.772,308.779 351.772,300.703 335.62,300.703 335.62,292.626 		"/>
		<polygon style="fill:#722626;" points="392.154,292.626 384.078,292.626 384.078,284.55 400.231,284.55 400.231,276.474 
			408.307,276.474 416.384,276.474 416.384,284.55 424.46,284.55 424.46,292.626 432.536,292.626 432.536,300.703 440.613,300.703 
			440.613,316.856 440.613,324.932 432.536,324.932 432.536,333.008 424.46,333.008 424.46,341.085 416.384,341.085 
			416.384,333.008 416.384,324.932 424.46,324.932 424.46,316.856 432.536,316.856 432.536,308.779 424.46,308.779 424.46,300.703 
			416.384,300.703 416.384,308.779 408.307,308.779 408.307,316.856 392.154,316.856 392.154,308.779 384.078,308.779 
			384.078,300.703 400.231,300.703 400.231,292.626 		"/>
		<polygon style="fill:#722626;" points="303.314,349.161 303.314,341.085 295.238,341.085 295.238,333.008 287.161,333.008 
			287.161,324.932 279.085,324.932 279.085,333.008 287.161,333.008 287.161,341.085 295.238,341.085 295.238,349.161 		"/>
		<polygon style="fill:#722626;" points="295.238,373.39 295.238,365.314 287.161,365.314 287.161,357.238 279.085,357.238 
			279.085,349.161 271.009,349.161 271.009,357.238 279.085,357.238 279.085,365.314 287.161,365.314 287.161,373.39 		"/>
		<polygon style="fill:#722626;" points="303.314,381.467 303.314,389.543 295.238,389.543 295.238,397.62 287.161,397.62 
			287.161,405.696 279.085,405.696 279.085,397.62 287.161,397.62 287.161,389.543 295.238,389.543 295.238,381.467 		"/>
		<polygon style="fill:#722626;" points="311.391,405.696 311.391,413.772 303.314,413.772 303.314,421.849 295.238,421.849 
			295.238,429.925 287.161,429.925 287.161,421.849 295.238,421.849 295.238,413.772 303.314,413.772 303.314,405.696 		"/>
		<polygon style="fill:#722626;" points="432.536,349.161 432.536,341.085 440.613,341.085 440.613,333.008 448.689,333.008 
			448.689,324.932 456.766,324.932 456.766,333.008 448.689,333.008 448.689,341.085 440.613,341.085 440.613,349.161 		"/>
		<polygon style="fill:#722626;" points="440.613,373.39 440.613,365.314 448.689,365.314 448.689,357.238 456.766,357.238 
			456.766,349.161 464.842,349.161 464.842,357.238 456.766,357.238 456.766,365.314 448.689,365.314 448.689,373.39 		"/>
		<polygon style="fill:#722626;" points="432.536,381.467 432.536,389.543 440.613,389.543 440.613,397.62 448.689,397.62 
			448.689,405.696 456.766,405.696 456.766,397.62 448.689,397.62 448.689,389.543 440.613,389.543 440.613,381.467 		"/>
		<polygon style="fill:#722626;" points="424.46,405.696 424.46,413.772 432.536,413.772 432.536,421.849 440.613,421.849 
			440.613,429.925 448.689,429.925 448.689,421.849 440.613,421.849 440.613,413.772 432.536,413.772 432.536,405.696 		"/>
		<rect x="351.772" y="324.932" style="fill:#28211C;" width="8.076" height="8.076"/>
		<rect x="376.002" y="324.932" style="fill:#28211C;" width="8.076" height="8.076"/>
		<polygon style="fill:#873331;" points="367.925,429.925 367.925,421.849 376.002,421.849 376.002,413.772 384.078,413.772 
			384.078,405.696 400.231,405.696 400.231,397.62 408.307,397.62 408.307,389.543 416.384,389.543 416.384,381.467 424.46,381.467 
			424.46,373.39 432.536,373.39 432.536,365.314 440.613,365.314 440.613,373.39 432.536,373.39 432.536,389.543 424.46,389.543 
			424.46,405.696 416.384,405.696 416.384,413.772 400.231,413.772 400.231,421.849 384.078,421.849 384.078,429.925 		"/>
		<polygon style="fill:#AB403E;" points="343.696,324.932 343.696,333.008 335.62,333.008 335.62,341.085 319.467,341.085 
			319.467,349.161 311.391,349.161 311.391,357.238 303.314,357.238 303.314,365.314 311.391,365.314 311.391,381.467 
			303.314,381.467 303.314,373.39 295.238,373.39 295.238,357.238 303.314,357.238 303.314,349.161 311.391,349.161 
			311.391,341.085 319.467,341.085 319.467,333.008 335.62,333.008 335.62,324.932 		"/>
	</g>
	<g>
		<polygon style="fill:#58573B;" points="677.381,107.552 677.381,99.476 669.305,99.476 669.305,91.399 661.229,91.399 
			661.229,83.323 653.152,83.323 653.152,75.247 636.999,75.247 628.923,75.247 628.923,67.17 564.312,67.17 564.312,75.247 
			556.235,75.247 540.083,75.247 540.083,83.323 532.006,83.323 532.006,91.399 523.93,91.399 523.93,99.476 515.854,99.476 
			515.854,107.552 507.777,107.552 507.777,147.934 515.854,147.934 515.854,164.087 532.006,164.087 532.006,172.163 
			540.083,172.163 540.083,180.24 548.159,180.24 548.159,188.316 564.312,188.316 564.312,196.393 564.312,204.469 
			580.465,204.469 580.465,212.545 588.541,212.545 588.541,220.622 604.694,220.622 604.694,212.545 612.77,212.545 
			612.77,204.469 628.923,204.469 628.923,196.393 628.923,188.316 645.076,188.316 645.076,180.24 653.152,180.24 653.152,172.163 
			661.229,172.163 661.229,164.087 677.381,164.087 677.381,147.934 685.458,147.934 685.458,107.552 		"/>
		<g>
			<polygon style="fill:#7F7D59;" points="645.076,83.323 645.076,91.399 653.152,91.399 653.152,99.476 661.229,99.476 
				661.229,107.552 669.305,107.552 669.305,115.629 677.381,115.629 677.381,123.705 685.458,123.705 685.458,107.552 
				677.381,107.552 677.381,99.476 669.305,99.476 669.305,91.399 661.229,91.399 661.229,83.323 			"/>
			<polygon style="fill:#7F7D59;" points="620.847,83.323 620.847,91.399 628.923,91.399 628.923,99.476 636.999,99.476 
				636.999,107.552 645.076,107.552 645.076,91.399 636.999,91.399 636.999,83.323 			"/>
			<polygon style="fill:#7F7D59;" points="556.235,75.247 556.235,83.323 548.159,83.323 548.159,91.399 540.083,91.399 
				540.083,99.476 532.006,99.476 532.006,123.705 523.93,123.705 523.93,139.858 532.006,139.858 532.006,147.934 540.083,147.934 
				540.083,156.011 548.159,156.011 548.159,164.087 548.159,172.163 556.235,172.163 556.235,180.24 564.312,180.24 
				564.312,188.316 548.159,188.316 548.159,180.24 540.083,180.24 540.083,172.163 532.006,172.163 532.006,164.087 
				515.854,164.087 515.854,147.934 507.777,147.934 507.777,115.629 515.854,115.629 515.854,107.552 523.93,107.552 
				523.93,99.476 532.006,99.476 532.006,91.399 540.083,91.399 540.083,83.323 548.159,83.323 548.159,75.247 			"/>
			<polygon style="fill:#3A3925;" points="580.465,67.17 580.465,75.247 572.388,75.247 572.388,83.323 564.312,83.323 
				564.312,91.399 556.235,91.399 556.235,99.476 548.159,99.476 548.159,91.399 556.235,91.399 556.235,83.323 564.312,83.323 
				564.312,67.17 			"/>
			<polygon style="fill:#3A3925;" points="612.77,67.17 612.77,75.247 620.847,75.247 620.847,83.323 628.923,83.323 
				628.923,91.399 636.999,91.399 636.999,99.476 645.076,99.476 645.076,91.399 636.999,91.399 636.999,83.323 628.923,83.323 
				628.923,67.17 			"/>
			<g>
				<polygon style="fill:#3A3925;" points="548.159,75.247 548.159,83.323 540.083,83.323 540.083,91.399 532.006,91.399 
					532.006,99.476 523.93,99.476 523.93,91.399 532.006,91.399 532.006,83.323 540.083,83.323 540.083,75.247 				"/>
				<rect x="515.854" y="99.476" style="fill:#3A3925;" width="8.076" height="8.076"/>
				<rect x="507.777" y="107.552" style="fill:#3A3925;" width="8.076" height="8.076"/>
			</g>
			<g>
				<polygon style="fill:#3A3925;" points="645.076,75.247 645.076,83.323 653.152,83.323 653.152,91.399 661.229,91.399 
					661.229,99.476 669.305,99.476 669.305,91.399 661.229,91.399 661.229,83.323 653.152,83.323 653.152,75.247 				"/>
				
					<rect x="669.305" y="99.476" transform="matrix(-1 -1.224647e-16 1.224647e-16 -1 1346.6864 207.0282)" style="fill:#3A3925;" width="8.076" height="8.076"/>
				
					<rect x="677.381" y="107.552" transform="matrix(-1 -1.224647e-16 1.224647e-16 -1 1362.8391 223.181)" style="fill:#3A3925;" width="8.076" height="8.076"/>
			</g>
			<rect x="564.312" y="188.316" style="fill:#3A3925;" width="8.076" height="8.076"/>
			<rect x="572.388" y="180.24" style="fill:#3A3925;" width="8.076" height="8.076"/>
			<rect x="620.847" y="188.316" style="fill:#3A3925;" width="8.076" height="8.076"/>
			<rect x="612.77" y="180.24" style="fill:#3A3925;" width="8.076" height="8.076"/>
			<polygon style="fill:#7F7D59;" points="556.235,75.247 556.235,83.323 548.159,83.323 548.159,91.399 540.083,91.399 
				540.083,99.476 532.006,99.476 532.006,123.705 523.93,123.705 523.93,139.858 532.006,139.858 532.006,147.934 540.083,147.934 
				540.083,156.011 548.159,156.011 548.159,164.087 548.159,172.163 556.235,172.163 556.235,180.24 564.312,180.24 
				564.312,188.316 548.159,188.316 548.159,180.24 540.083,180.24 540.083,172.163 532.006,172.163 532.006,164.087 
				515.854,164.087 515.854,147.934 507.777,147.934 507.777,115.629 515.854,115.629 515.854,107.552 523.93,107.552 
				523.93,99.476 532.006,99.476 532.006,91.399 540.083,91.399 540.083,83.323 548.159,83.323 548.159,75.247 			"/>
			<polygon style="fill:#7F7D59;" points="620.847,196.393 612.77,196.393 612.77,204.469 604.694,204.469 604.694,212.545 
				588.541,212.545 588.541,204.469 580.465,204.469 580.465,212.545 588.541,212.545 588.541,220.622 604.694,220.622 
				604.694,212.545 612.77,212.545 612.77,204.469 628.923,204.469 628.923,196.393 			"/>
			<polygon style="fill:#3A3925;" points="620.847,107.552 628.923,107.552 628.923,115.629 636.999,115.629 636.999,123.705 
				628.923,123.705 628.923,131.781 620.847,131.781 620.847,123.705 628.923,123.705 628.923,115.629 620.847,115.629 			"/>
			<polygon style="fill:#3A3925;" points="604.694,131.781 612.77,131.781 612.77,139.858 620.847,139.858 620.847,147.934 
				612.77,147.934 612.77,156.011 604.694,156.011 604.694,147.934 612.77,147.934 612.77,139.858 604.694,139.858 			"/>
			<polygon style="fill:#3A3925;" points="628.923,147.934 636.999,147.934 636.999,156.011 645.076,156.011 645.076,164.087 
				636.999,164.087 636.999,172.163 628.923,172.163 628.923,164.087 636.999,164.087 636.999,156.011 628.923,156.011 			"/>
		</g>
	</g>
	<g>
		<polygon style="fill:#FFB031;" points="661.229,328.97 661.229,320.894 628.923,320.894 628.923,304.741 620.847,304.741 
			620.847,288.588 612.77,288.588 612.77,280.512 604.694,280.512 596.617,280.512 596.617,288.588 588.541,288.588 
			588.541,304.741 580.465,304.741 580.465,320.894 556.235,320.894 548.159,320.894 548.159,328.97 532.006,328.97 
			532.006,345.123 540.083,345.123 540.083,353.199 548.159,353.199 548.159,361.276 556.235,361.276 556.235,369.352 
			564.312,369.352 564.312,377.429 556.235,377.429 556.235,401.658 548.159,401.658 548.159,409.734 548.159,417.811 
			556.235,417.811 556.235,425.887 564.312,425.887 564.312,417.811 572.388,417.811 588.541,417.811 588.541,409.734 
			596.617,409.734 596.617,401.658 604.694,401.658 612.77,401.658 612.77,409.734 620.847,409.734 620.847,417.811 
			636.999,417.811 645.076,417.811 645.076,425.887 653.152,425.887 653.152,417.811 661.229,417.811 661.229,409.734 
			661.229,401.658 653.152,401.658 653.152,377.429 645.076,377.429 645.076,369.352 653.152,369.352 653.152,361.276 
			661.229,361.276 661.229,353.199 669.305,353.199 669.305,345.123 677.381,345.123 677.381,328.97 		"/>
		<g>
			<rect x="620.847" y="328.97" style="fill:#28211C;" width="8.076" height="8.076"/>
			<rect x="580.465" y="328.97" style="fill:#28211C;" width="8.076" height="8.076"/>
		</g>
		<polygon style="fill:#F0923D;" points="677.381,337.047 669.305,337.047 669.305,345.123 661.229,345.123 661.229,353.199 
			653.152,353.199 653.152,361.276 645.076,361.276 645.076,369.352 636.999,369.352 636.999,377.429 645.076,377.429 
			645.076,385.505 645.076,401.658 653.152,401.658 653.152,409.734 661.229,409.734 661.229,401.658 653.152,401.658 
			653.152,377.429 645.076,377.429 645.076,369.352 653.152,369.352 653.152,361.276 653.152,361.276 661.229,361.276 
			661.229,353.199 669.305,353.199 669.305,345.123 677.381,345.123 		"/>
		<polygon style="fill:#F0923D;" points="612.77,401.658 612.77,393.581 596.617,393.581 596.617,401.658 588.541,401.658 
			588.541,409.734 580.465,409.734 564.312,409.734 564.312,417.811 556.235,417.811 556.235,425.887 564.312,425.887 
			564.312,417.811 588.541,417.811 588.541,409.734 596.617,409.734 596.617,401.658 		"/>
		<polygon style="fill:#F0923D;" points="540.083,345.123 548.159,345.123 548.159,353.199 556.235,353.199 556.235,361.276 
			564.312,361.276 564.312,369.352 572.388,369.352 572.388,377.429 564.312,377.429 564.312,369.352 556.235,369.352 
			556.235,361.276 548.159,361.276 548.159,353.199 540.083,353.199 		"/>
		<polygon style="fill:#FFD54D;" points="548.159,328.97 572.388,328.97 572.388,320.894 580.465,320.894 588.541,320.894 
			588.541,312.818 588.541,304.741 596.617,304.741 596.617,296.665 596.617,288.588 604.694,288.588 604.694,280.512 
			596.617,280.512 596.617,288.588 588.541,288.588 588.541,304.741 580.465,304.741 580.465,320.894 548.159,320.894 		"/>
		<rect x="636.999" y="320.894" style="fill:#FFD54D;" width="24.229" height="8.076"/>
		<g>
			<rect x="620.847" y="369.352" style="fill:#F0923D;" width="8.076" height="8.076"/>
			<rect x="612.77" y="377.429" style="fill:#F0923D;" width="8.076" height="8.076"/>
		</g>
		<g>
			<rect x="588.541" y="353.199" style="fill:#F0923D;" width="8.076" height="8.076"/>
			<rect x="580.465" y="361.276" style="fill:#F0923D;" width="8.076" height="8.076"/>
		</g>
		<g>
			<rect x="572.388" y="385.505" style="fill:#F0923D;" width="8.076" height="8.076"/>
			<rect x="564.312" y="393.581" style="fill:#F0923D;" width="8.076" height="8.076"/>
		</g>
		<g>
			<rect x="612.77" y="304.741" style="fill:#F0923D;" width="8.076" height="8.076"/>
			<rect x="604.694" y="312.818" style="fill:#F0923D;" width="8.076" height="8.076"/>
		</g>
		<g>
			<rect x="636.999" y="337.047" style="fill:#F0923D;" width="8.076" height="8.076"/>
			<rect x="628.923" y="345.123" style="fill:#F0923D;" width="8.076" height="8.076"/>
		</g>
	</g>
	<g>
		<g>
			<rect x="480.995" y="293.309" style="fill:#CACEE0;" width="24.229" height="24.229"/>
			<rect x="489.071" y="285.233" style="fill:#CACEE0;" width="8.076" height="8.076"/>
			<rect x="505.224" y="301.386" style="fill:#CACEE0;" width="8.076" height="8.076"/>
			<rect x="489.071" y="317.539" style="fill:#CACEE0;" width="8.076" height="8.076"/>
			<rect x="472.918" y="301.386" style="fill:#CACEE0;" width="8.076" height="8.076"/>
			<rect x="480.995" y="301.386" style="fill:#FFFFFF;" width="8.076" height="8.076"/>
			<rect x="489.071" y="293.309" style="fill:#FFFFFF;" width="8.076" height="8.076"/>
		</g>
		<g>
			<rect x="497.148" y="236.775" style="fill:#CACEE0;" width="24.229" height="24.229"/>
			<rect x="505.224" y="228.698" style="fill:#CACEE0;" width="8.076" height="8.076"/>
			<rect x="521.377" y="244.851" style="fill:#CACEE0;" width="8.076" height="8.076"/>
			<rect x="505.224" y="261.004" style="fill:#CACEE0;" width="8.076" height="8.076"/>
			<rect x="489.071" y="244.851" style="fill:#CACEE0;" width="8.076" height="8.076"/>
			<rect x="497.148" y="244.851" style="fill:#FFFFFF;" width="8.076" height="8.076"/>
			<rect x="505.224" y="236.775" style="fill:#FFFFFF;" width="8.076" height="8.076"/>
		</g>
		<g>
			<rect x="214.474" y="406.379" style="fill:#CACEE0;" width="24.229" height="24.229"/>
			<rect x="222.55" y="398.302" style="fill:#CACEE0;" width="8.076" height="8.076"/>
			<rect x="238.703" y="414.455" style="fill:#CACEE0;" width="8.076" height="8.076"/>
			<rect x="222.55" y="430.608" style="fill:#CACEE0;" width="8.076" height="8.076"/>
			<rect x="206.397" y="414.455" style="fill:#CACEE0;" width="8.076" height="8.076"/>
			<rect x="214.474" y="414.455" style="fill:#FFFFFF;" width="8.076" height="8.076"/>
			<rect x="222.55" y="406.379" style="fill:#FFFFFF;" width="8.076" height="8.076"/>
		</g>
		<g>
			<rect x="456.766" y="51.018" style="fill:#CACEE0;" width="24.229" height="24.229"/>
			<rect x="464.842" y="42.941" style="fill:#CACEE0;" width="8.076" height="8.076"/>
			<rect x="480.995" y="59.094" style="fill:#CACEE0;" width="8.076" height="8.076"/>
			<rect x="464.842" y="75.247" style="fill:#CACEE0;" width="8.076" height="8.076"/>
			<rect x="448.689" y="59.094" style="fill:#CACEE0;" width="8.076" height="8.076"/>
			<rect x="456.766" y="59.094" style="fill:#FFFFFF;" width="8.076" height="8.076"/>
			<rect x="464.842" y="51.018" style="fill:#FFFFFF;" width="8.076" height="8.076"/>
		</g>
		<g>
			<rect x="246.779" y="204.469" style="fill:#CACEE0;" width="24.229" height="24.229"/>
			<rect x="254.856" y="196.393" style="fill:#CACEE0;" width="8.076" height="8.076"/>
			<rect x="271.009" y="212.545" style="fill:#CACEE0;" width="8.076" height="8.076"/>
			<rect x="254.856" y="228.698" style="fill:#CACEE0;" width="8.076" height="8.076"/>
			<rect x="238.703" y="212.545" style="fill:#CACEE0;" width="8.076" height="8.076"/>
			<rect x="246.779" y="212.545" style="fill:#FFFFFF;" width="8.076" height="8.076"/>
			<rect x="254.856" y="204.469" style="fill:#FFFFFF;" width="8.076" height="8.076"/>
		</g>
		<g>
			<rect x="440.613" y="91.399" style="fill:#CACEE0;" width="16.153" height="16.153"/>
			<rect x="440.613" y="91.399" style="fill:#FFFFFF;" width="8.076" height="8.076"/>
		</g>
		<g>
			<rect x="198.321" y="382.15" style="fill:#CACEE0;" width="16.153" height="16.153"/>
			<rect x="198.321" y="382.15" style="fill:#FFFFFF;" width="8.076" height="8.076"/>
		</g>
	</g>
</g>
</svg>
