<?xml version="1.0" encoding="utf-8"?>
<!-- Generator: Adobe Illustrator 27.5.0, SVG Export Plug-In . SVG Version: 6.00 Build 0)  -->
<svg version="1.1" xmlns="http://www.w3.org/2000/svg" xmlns:xlink="http://www.w3.org/1999/xlink" x="0px" y="0px"
	 viewBox="0 0 750 500" style="enable-background:new 0 0 750 500;" xml:space="preserve">
<g id="BACKGROUND">
	<rect style="fill:#FFF0E0;" width="750" height="500"/>
</g>
<g id="OBJECTS">
	<g>
		<g>
			<rect x="544.354" y="232.725" style="fill:#CACEE0;" width="23.033" height="23.033"/>
			<rect x="552.032" y="225.047" style="fill:#CACEE0;" width="7.678" height="7.678"/>
			<rect x="567.387" y="240.403" style="fill:#CACEE0;" width="7.678" height="7.678"/>
			<rect x="552.032" y="255.758" style="fill:#CACEE0;" width="7.678" height="7.678"/>
			<rect x="536.676" y="240.403" style="fill:#CACEE0;" width="7.678" height="7.678"/>
			<rect x="544.354" y="240.403" style="fill:#FFFFFF;" width="7.678" height="7.678"/>
			<rect x="552.032" y="232.725" style="fill:#FFFFFF;" width="7.678" height="7.678"/>
		</g>
		<g>
			<rect x="206.534" y="202.014" style="fill:#CACEE0;" width="23.033" height="23.033"/>
			<rect x="214.212" y="194.337" style="fill:#CACEE0;" width="7.678" height="7.678"/>
			<rect x="229.567" y="209.692" style="fill:#CACEE0;" width="7.678" height="7.678"/>
			<rect x="214.212" y="225.047" style="fill:#CACEE0;" width="7.678" height="7.678"/>
			<rect x="198.856" y="209.692" style="fill:#CACEE0;" width="7.678" height="7.678"/>
			<rect x="206.534" y="209.692" style="fill:#FFFFFF;" width="7.678" height="7.678"/>
			<rect x="214.212" y="202.014" style="fill:#FFFFFF;" width="7.678" height="7.678"/>
		</g>
		<g>
			<rect x="621.131" y="240.403" style="fill:#CACEE0;" width="15.355" height="15.356"/>
			<rect x="621.131" y="240.403" style="fill:#FFFFFF;" width="7.678" height="7.678"/>
		</g>
		<g>
			<rect x="183.501" y="240.403" style="fill:#CACEE0;" width="15.355" height="15.356"/>
			<rect x="183.501" y="240.403" style="fill:#FFFFFF;" width="7.678" height="7.678"/>
		</g>
		<g>
			<rect x="444.543" y="75.332" style="fill:#CACEE0;" width="15.355" height="15.356"/>
			<rect x="444.543" y="75.332" style="fill:#FFFFFF;" width="7.678" height="7.678"/>
		</g>
	</g>
	<g>
		<polygon style="fill:#513418;" points="137.434,90.687 137.434,83.009 145.112,83.009 145.112,67.654 152.79,67.654 
			152.79,75.332 160.467,75.332 160.467,90.687 		"/>
		<polygon style="fill:#754F26;" points="206.534,59.976 191.178,59.976 191.178,67.654 168.145,67.654 168.145,75.332 
			160.467,75.332 160.467,83.009 145.112,83.009 145.112,90.687 129.757,90.687 129.757,83.009 114.401,83.009 114.401,75.332 
			91.368,75.332 91.368,83.009 83.69,83.009 83.69,90.687 76.012,90.687 76.012,98.365 68.335,98.365 68.335,106.043 
			52.979,106.043 52.979,113.72 45.301,113.72 45.301,121.398 45.301,129.076 52.979,129.076 52.979,121.398 60.657,121.398 
			68.335,121.398 68.335,129.076 68.335,136.753 60.657,136.753 60.657,144.431 76.012,144.431 76.012,129.076 83.69,129.076 
			83.69,121.398 83.69,113.72 83.69,106.043 91.368,106.043 91.368,113.72 99.046,113.72 99.046,121.398 106.723,121.398 
			114.401,121.398 114.401,129.076 122.079,129.076 122.079,136.753 137.434,136.753 137.434,144.431 198.856,144.431 
			198.856,136.753 214.212,136.753 214.212,129.076 229.567,129.076 229.567,121.398 237.245,121.398 237.245,113.72 
			244.923,113.72 244.923,98.365 252.6,98.365 252.6,75.332 244.923,75.332 244.923,67.654 229.567,67.654 229.567,59.976 		"/>
		<polygon style="fill:#513418;" points="91.368,106.043 99.046,106.043 99.046,113.72 106.723,113.72 122.079,113.72 
			122.079,121.398 129.757,121.398 129.757,129.076 137.434,129.076 145.112,129.076 145.112,136.753 175.823,136.753 
			175.823,129.076 183.501,129.076 183.501,121.398 198.856,121.398 198.856,113.72 221.889,113.72 221.889,106.043 
			229.567,106.043 229.567,98.365 244.923,98.365 244.923,113.72 237.245,113.72 237.245,121.398 229.567,121.398 229.567,129.076 
			214.212,129.076 214.212,136.753 198.856,136.753 198.856,144.431 137.434,144.431 137.434,136.753 122.079,136.753 
			122.079,129.076 114.401,129.076 114.401,121.398 99.046,121.398 99.046,113.72 91.368,113.72 		"/>
		<polygon style="fill:#754F26;" points="191.178,121.398 191.178,129.076 183.501,129.076 183.501,136.753 175.823,136.753 
			175.823,152.109 160.467,152.109 160.467,159.787 152.79,159.787 152.79,152.109 152.79,144.431 160.467,144.431 160.467,136.753 
			152.79,136.753 152.79,121.398 		"/>
		<rect x="214.212" y="75.332" style="fill:#28211C;" width="7.678" height="7.678"/>
		<polygon style="fill:#AA7A41;" points="214.212,59.976 214.212,67.654 191.178,67.654 191.178,75.332 168.145,75.332 
			168.145,83.009 160.467,83.009 160.467,90.687 145.112,90.687 145.112,98.365 129.757,98.365 129.757,90.687 122.079,90.687 
			122.079,83.009 129.757,83.009 129.757,90.687 145.112,90.687 145.112,83.009 160.467,83.009 160.467,75.332 168.145,75.332 
			168.145,67.654 191.178,67.654 191.178,59.976 		"/>
		<polygon style="fill:#AA7A41;" points="99.046,75.332 99.046,83.009 91.368,83.009 91.368,90.687 83.69,90.687 83.69,98.365 
			76.012,98.365 76.012,106.043 68.335,106.043 68.335,98.365 76.012,98.365 76.012,90.687 83.69,90.687 83.69,83.009 
			91.368,83.009 91.368,75.332 		"/>
	</g>
	<g>
		<polygon style="fill:#28211C;" points="160.467,338.43 160.467,346.108 168.145,346.108 168.145,353.785 175.823,353.785 
			175.823,361.463 160.467,361.463 160.467,353.785 145.112,353.785 145.112,338.43 		"/>
		<polygon style="fill:#382210;" points="260.278,361.463 260.278,346.108 252.6,346.108 252.6,338.43 237.245,338.43 
			237.245,330.752 229.567,330.752 229.567,323.075 221.889,323.075 221.889,315.397 214.212,315.397 214.212,307.719 
			206.534,307.719 206.534,300.041 191.178,300.041 191.178,292.364 160.467,292.364 152.79,292.364 152.79,284.686 
			145.112,284.686 145.112,261.653 137.434,261.653 137.434,269.331 129.757,269.331 129.757,277.008 122.079,277.008 
			122.079,284.686 114.401,284.686 114.401,292.364 106.723,292.364 106.723,300.041 99.046,300.041 91.368,300.041 91.368,307.719 
			83.69,307.719 83.69,315.397 76.012,315.397 76.012,323.075 68.335,323.075 68.335,330.752 60.657,330.752 60.657,338.43 
			60.657,353.785 60.657,361.463 52.979,361.463 52.979,376.819 60.657,376.819 60.657,384.496 83.69,384.496 83.69,376.819 
			91.368,376.819 91.368,369.141 99.046,369.141 99.046,361.463 114.401,361.463 114.401,353.785 122.079,353.785 122.079,346.108 
			145.112,346.108 152.79,346.108 152.79,338.43 175.823,338.43 191.178,338.43 198.856,338.43 198.856,346.108 221.889,346.108 
			221.889,353.785 214.212,353.785 214.212,376.819 221.889,376.819 221.889,384.496 229.567,384.496 229.567,361.463 
			237.245,361.463 237.245,353.785 244.923,353.785 244.923,361.463 252.6,361.463 252.6,369.141 267.956,369.141 267.956,361.463 
					"/>
		<polygon style="fill:#513418;" points="68.335,384.496 68.335,376.819 83.69,376.819 83.69,369.141 91.368,369.141 
			91.368,353.785 114.401,353.785 114.401,346.108 122.079,346.108 122.079,338.43 145.112,338.43 145.112,330.752 206.534,330.752 
			206.534,338.43 214.212,338.43 214.212,346.108 198.856,346.108 198.856,338.43 152.79,338.43 152.79,346.108 122.079,346.108 
			122.079,353.785 114.401,353.785 114.401,361.463 99.046,361.463 99.046,369.141 91.368,369.141 91.368,376.819 83.69,376.819 
			83.69,384.496 		"/>
		<polygon style="fill:#513418;" points="76.012,338.43 83.69,338.43 83.69,330.752 99.046,330.752 99.046,338.43 91.368,338.43 
			91.368,353.785 76.012,353.785 		"/>
		<rect x="76.012" y="338.43" style="fill:#28211C;" width="7.678" height="7.678"/>
		<polygon style="fill:#513418;" points="175.823,292.364 175.823,300.041 168.145,300.041 168.145,307.719 175.823,307.719 
			175.823,315.397 191.178,315.397 191.178,307.719 206.534,307.719 206.534,300.041 191.178,300.041 191.178,292.364 		"/>
		<polygon style="fill:#382210;" points="137.434,361.463 137.434,338.43 114.401,338.43 114.401,353.785 114.401,361.463 
			122.079,361.463 129.757,361.463 129.757,369.141 145.112,369.141 145.112,361.463 		"/>
	</g>
	<g>
		<polygon style="fill:#949AAF;" points="337.055,117.559 329.378,117.559 329.378,125.237 306.344,125.237 306.344,132.915 
			298.667,132.915 298.667,140.592 283.311,140.592 283.311,148.27 275.633,148.27 275.633,155.948 283.311,155.948 
			283.311,163.626 290.989,163.626 290.989,171.303 298.667,171.303 298.667,178.981 306.344,178.981 306.344,186.659 
			314.022,186.659 314.022,194.337 367.766,194.337 367.766,186.659 390.799,186.659 398.477,186.659 398.477,178.981 
			413.833,178.981 413.833,171.303 444.543,171.303 444.543,178.981 459.899,178.981 459.899,186.659 467.577,186.659 
			467.577,202.014 482.932,202.014 482.932,194.337 475.254,194.337 475.254,178.981 467.577,178.981 467.577,163.626 
			459.899,163.626 459.899,155.948 467.577,155.948 467.577,140.592 475.254,140.592 475.254,132.915 482.932,132.915 
			482.932,125.237 490.61,125.237 490.61,117.559 482.932,117.559 475.254,117.559 475.254,125.237 467.577,125.237 
			467.577,132.915 459.899,132.915 459.899,140.592 452.221,140.592 452.221,148.27 444.543,148.27 444.543,140.592 
			436.866,140.592 436.866,132.915 429.188,132.915 429.188,125.237 413.833,125.237 413.833,117.559 367.766,117.559 
			367.766,109.881 367.766,86.848 360.089,86.848 360.089,94.526 352.411,94.526 352.411,102.204 344.733,102.204 344.733,109.881 
			337.055,109.881 		"/>
		<polygon style="fill:#FFFFFF;" points="290.989,163.626 306.344,163.626 306.344,171.303 314.022,171.303 314.022,178.981 
			321.7,178.981 321.7,186.659 337.055,186.659 337.055,178.981 367.766,178.981 367.766,171.303 383.122,171.303 383.122,178.981 
			390.799,178.981 390.799,171.303 406.155,171.303 406.155,163.626 429.188,163.626 444.543,163.626 452.221,163.626 
			452.221,178.981 444.543,178.981 444.543,171.303 413.833,171.303 413.833,178.981 398.477,178.981 398.477,186.659 
			367.766,186.659 367.766,194.337 314.022,194.337 314.022,186.659 306.344,186.659 306.344,178.981 298.667,178.981 
			298.667,171.303 290.989,171.303 		"/>
		<polygon style="fill:#949AAF;" points="337.055,171.303 337.055,178.981 344.733,178.981 344.733,186.659 352.411,186.659 
			352.411,194.337 360.089,194.337 360.089,202.014 375.444,202.014 375.444,194.337 375.444,186.659 367.766,186.659 
			367.766,171.303 		"/>
		<rect x="314.022" y="140.592" style="fill:#28211C;" width="7.678" height="7.678"/>
		<polygon style="fill:#CACEE0;" points="329.378,148.27 337.055,148.27 337.055,155.948 344.733,155.948 344.733,163.626 
			337.055,163.626 337.055,171.303 329.378,171.303 329.378,163.626 337.055,163.626 337.055,155.948 329.378,155.948 		"/>
		<polygon style="fill:#CACEE0;" points="367.766,117.559 360.089,117.559 360.089,109.881 360.089,102.204 367.766,102.204 		"/>
		<polygon style="fill:#CACEE0;" points="398.477,117.559 398.477,125.237 406.155,125.237 406.155,132.915 413.833,132.915 
			421.51,132.915 421.51,140.592 436.866,140.592 436.866,148.27 444.543,148.27 444.543,140.592 436.866,140.592 436.866,132.915 
			429.188,132.915 429.188,125.237 413.833,125.237 413.833,117.559 		"/>
	</g>
	<g>
		<polygon style="fill:#722626;" points="409.55,372.98 417.227,372.98 417.227,380.658 432.583,380.658 432.583,372.98 
			440.261,372.98 440.261,365.302 455.616,365.302 455.616,372.98 463.294,372.98 463.294,380.658 455.616,380.658 455.616,396.013 
			447.938,396.013 447.938,388.335 440.261,388.335 440.261,419.046 417.227,419.046 417.227,403.691 409.55,403.691 
			409.55,388.335 401.872,388.335 401.872,372.98 		"/>
		<polygon style="fill:#722626;" points="340.45,403.691 340.45,411.368 325.095,411.368 325.095,419.046 317.417,419.046 
			317.417,434.402 325.095,434.402 325.095,442.079 332.772,442.079 332.772,449.757 348.128,449.757 348.128,426.724 
			340.45,426.724 340.45,434.402 332.772,434.402 332.772,426.724 332.772,419.046 348.128,419.046 348.128,403.691 
			355.806,403.691 355.806,388.335 340.45,388.335 		"/>
		<polygon style="fill:#9B3A38;" points="432.583,396.013 432.583,380.658 417.227,380.658 417.227,396.013 424.905,396.013 
			424.905,403.691 432.583,403.691 432.583,411.368 424.905,411.368 424.905,419.046 417.227,419.046 417.227,411.368 
			409.55,411.368 409.55,396.013 401.872,396.013 401.872,380.658 409.55,380.658 409.55,365.302 417.227,365.302 417.227,349.947 
			409.55,349.947 409.55,342.269 417.227,342.269 417.227,326.914 424.905,326.914 424.905,303.88 417.227,303.88 417.227,296.203 
			409.55,296.203 409.55,288.525 401.872,288.525 401.872,280.847 394.194,280.847 363.483,280.847 363.483,288.525 
			355.806,288.525 355.806,296.203 348.128,296.203 348.128,303.88 340.45,303.88 340.45,326.914 348.128,326.914 348.128,342.269 
			355.806,342.269 355.806,357.624 348.128,357.624 348.128,349.947 340.45,349.947 340.45,342.269 317.417,342.269 
			317.417,334.591 302.062,334.591 302.062,342.269 294.384,342.269 294.384,349.947 286.706,349.947 286.706,357.624 
			294.384,357.624 294.384,365.302 302.062,365.302 302.062,372.98 309.739,372.98 309.739,365.302 309.739,357.624 
			302.062,357.624 302.062,349.947 309.739,349.947 309.739,357.624 317.417,357.624 332.772,357.624 332.772,365.302 
			340.45,365.302 340.45,380.658 332.772,380.658 332.772,372.98 325.095,372.98 325.095,380.658 309.739,380.658 309.739,388.335 
			302.062,388.335 302.062,403.691 294.384,403.691 294.384,396.013 286.706,396.013 286.706,419.046 309.739,419.046 
			309.739,403.691 317.417,403.691 317.417,396.013 325.095,396.013 325.095,388.335 332.772,388.335 332.772,403.691 
			348.128,403.691 348.128,396.013 355.806,396.013 355.806,388.335 363.483,388.335 363.483,396.013 363.483,403.691 
			355.806,403.691 355.806,419.046 348.128,419.046 348.128,426.724 355.806,426.724 355.806,434.402 355.806,442.079 
			363.483,442.079 363.483,449.757 386.517,449.757 386.517,434.402 378.839,434.402 378.839,442.079 371.161,442.079 
			371.161,419.046 363.483,419.046 363.483,411.368 378.839,411.368 378.839,396.013 378.839,388.335 386.517,388.335 
			386.517,396.013 394.194,396.013 394.194,411.368 401.872,411.368 401.872,426.724 409.55,426.724 409.55,434.402 
			417.227,434.402 432.583,434.402 432.583,426.724 440.261,426.724 440.261,411.368 440.261,396.013 		"/>
		<rect x="386.517" y="334.591" style="fill:#28211C;" width="7.678" height="7.678"/>
		<rect x="363.483" y="334.591" style="fill:#28211C;" width="7.678" height="7.678"/>
		<polygon style="fill:#AB403E;" points="394.194,288.525 386.517,288.525 386.517,296.203 394.194,296.203 394.194,303.88 
			401.872,303.88 401.872,296.203 394.194,296.203 		"/>
		<polygon style="fill:#AB403E;" points="363.483,319.236 355.806,319.236 355.806,326.914 348.128,326.914 348.128,334.591 
			355.806,334.591 355.806,326.914 363.483,326.914 		"/>
		<polygon style="fill:#AB403E;" points="401.872,326.914 401.872,326.914 409.55,326.914 409.55,319.236 401.872,319.236 		"/>
		<g>
			<polygon style="fill:#873331;" points="355.806,388.335 355.806,380.658 363.483,380.658 363.483,372.98 371.161,372.98 
				371.161,380.658 363.483,380.658 363.483,388.335 			"/>
			<polygon style="fill:#873331;" points="409.55,372.98 401.872,372.98 401.872,365.302 394.194,365.302 394.194,357.624 
				401.872,357.624 401.872,365.302 409.55,365.302 			"/>
			<rect x="309.739" y="349.947" style="fill:#873331;" width="7.678" height="7.678"/>
			<polygon style="fill:#873331;" points="332.772,357.624 340.45,357.624 340.45,365.302 348.128,365.302 348.128,372.98 
				340.45,372.98 340.45,365.302 332.772,365.302 			"/>
		</g>
	</g>
	<g>
		<polygon style="fill:#9B3A38;" points="655.223,121.398 655.223,113.72 662.9,113.72 662.9,106.043 670.578,106.043 
			670.578,98.365 678.256,98.365 678.256,90.687 685.934,90.687 685.934,83.009 693.611,83.009 693.611,75.332 716.644,75.332 
			716.644,83.009 708.967,83.009 708.967,90.687 701.289,90.687 701.289,98.365 701.289,106.043 693.611,106.043 693.611,121.398 
			701.289,121.398 701.289,144.431 655.223,144.431 		"/>
		<polygon style="fill:#722626;" points="662.9,121.398 670.578,121.398 670.578,129.076 678.256,129.076 678.256,121.398 
			685.934,121.398 685.934,113.72 693.611,113.72 693.611,121.398 701.289,121.398 701.289,129.076 693.611,129.076 
			693.611,136.753 670.578,136.753 670.578,129.076 662.9,129.076 		"/>
		<polygon style="fill:#FFB031;" points="716.644,136.753 716.644,159.787 708.967,159.787 708.967,167.464 701.289,167.464 
			701.289,175.142 693.611,175.142 693.611,182.82 678.256,182.82 678.256,190.498 670.578,190.498 670.578,198.175 
			655.223,198.175 655.223,205.853 609.156,205.853 609.156,198.175 586.123,198.175 586.123,190.498 578.445,190.498 
			578.445,182.82 570.768,182.82 570.768,175.142 555.412,175.142 555.412,182.82 547.734,182.82 547.734,159.787 555.412,159.787 
			555.412,152.109 547.734,152.109 547.734,136.753 540.057,136.753 540.057,121.398 532.379,121.398 532.379,129.076 
			524.701,129.076 524.701,136.753 517.023,136.753 517.023,129.076 509.346,129.076 509.346,121.398 517.023,121.398 
			517.023,113.72 524.701,113.72 524.701,106.043 540.057,106.043 540.057,113.72 547.734,113.72 547.734,121.398 555.412,121.398 
			555.412,129.076 563.09,129.076 563.09,136.753 578.445,136.753 578.445,144.431 593.801,144.431 593.801,121.398 
			586.123,121.398 586.123,113.72 578.445,113.72 578.445,106.043 570.768,106.043 570.768,98.365 586.123,98.365 586.123,90.687 
			593.801,90.687 593.801,83.009 616.834,83.009 616.834,90.687 624.512,90.687 624.512,98.365 632.19,98.365 632.19,106.043 
			639.867,106.043 639.867,113.72 647.545,113.72 647.545,121.398 662.9,121.398 662.9,129.076 670.578,129.076 670.578,136.753 
			693.611,136.753 693.611,129.076 701.289,129.076 701.289,121.398 708.967,121.398 708.967,136.753 		"/>
		<polygon style="fill:#FFD54D;" points="616.834,136.753 616.834,144.431 609.156,144.431 609.156,152.109 601.479,152.109 
			601.479,167.464 593.801,167.464 593.801,175.142 586.123,175.142 586.123,190.498 578.445,190.498 578.445,182.82 
			570.768,182.82 570.768,175.142 555.412,175.142 555.412,182.82 547.734,182.82 547.734,159.787 555.412,159.787 555.412,152.109 
			547.734,152.109 547.734,136.753 540.057,136.753 540.057,121.398 532.379,121.398 532.379,129.076 524.701,129.076 
			524.701,136.753 517.023,136.753 517.023,129.076 509.346,129.076 509.346,121.398 517.023,121.398 517.023,113.72 
			524.701,113.72 524.701,106.043 540.057,106.043 540.057,113.72 547.734,113.72 547.734,121.398 555.412,121.398 555.412,129.076 
			563.09,129.076 563.09,136.753 578.445,136.753 578.445,144.431 593.801,144.431 593.801,121.398 601.479,121.398 
			601.479,129.076 609.156,129.076 609.156,136.753 		"/>
		<rect x="685.934" y="136.753" style="fill:#28211C;" width="7.678" height="7.678"/>
		<rect x="708.967" y="136.753" style="fill:#28211C;" width="7.678" height="7.678"/>
		<g>
			<rect x="632.19" y="175.142" style="fill:#F0923D;" width="7.678" height="7.678"/>
			<rect x="639.867" y="182.82" style="fill:#F0923D;" width="7.678" height="7.678"/>
		</g>
		<g>
			<rect x="609.156" y="182.82" style="fill:#F0923D;" width="7.678" height="7.678"/>
			<rect x="616.834" y="190.498" style="fill:#F0923D;" width="7.678" height="7.678"/>
		</g>
		<g>
			<rect x="655.223" y="167.464" style="fill:#F0923D;" width="7.678" height="7.678"/>
			<rect x="662.9" y="175.142" style="fill:#F0923D;" width="7.678" height="7.678"/>
		</g>
	</g>
	<g>
		<polygon style="fill:#949AAF;" points="509.804,294.147 540.515,294.147 540.515,301.825 555.871,301.825 555.871,309.502 
			571.226,309.502 571.226,332.536 563.548,332.536 563.548,340.213 555.871,340.213 555.871,347.891 571.226,347.891 
			571.226,340.213 578.904,340.213 578.904,332.536 594.259,332.536 594.259,324.858 601.937,324.858 601.937,317.18 624.97,317.18 
			624.97,324.858 617.292,324.858 617.292,332.536 609.615,332.536 609.615,347.891 617.292,347.891 617.292,355.569 
			648.003,355.569 648.003,347.891 655.681,347.891 655.681,340.213 663.359,340.213 663.359,332.536 671.036,332.536 
			671.036,324.858 686.392,324.858 686.392,340.213 678.714,340.213 678.714,347.891 671.036,347.891 671.036,370.924 
			678.714,370.924 678.714,378.602 686.392,378.602 686.392,393.957 671.036,393.957 671.036,386.28 663.359,386.28 
			663.359,378.602 655.681,378.602 655.681,386.28 648.003,386.28 648.003,393.957 640.326,393.957 632.648,393.957 
			632.648,401.635 617.292,401.635 617.292,409.313 586.581,409.313 563.548,409.313 563.548,401.635 540.515,401.635 
			540.515,393.957 525.16,393.957 525.16,386.28 502.126,386.28 502.126,378.602 494.449,378.602 494.449,370.924 494.449,340.213 
			486.771,340.213 486.771,332.536 479.093,332.536 479.093,309.502 494.449,309.502 494.449,301.825 509.804,301.825 		"/>
		<polygon style="fill:#CACEE0;" points="555.871,347.891 555.871,355.569 563.548,355.569 563.548,363.246 571.226,363.246 
			571.226,386.28 578.904,386.28 578.904,393.957 586.581,393.957 586.581,409.313 563.548,409.313 563.548,401.635 
			540.515,401.635 540.515,393.957 525.16,393.957 525.16,386.28 502.126,386.28 502.126,378.602 494.449,378.602 494.449,340.213 
			486.771,340.213 486.771,332.536 479.093,332.536 479.093,309.502 494.449,309.502 494.449,301.825 509.804,301.825 
			509.804,294.147 540.515,294.147 540.515,301.825 555.871,301.825 555.871,309.502 571.226,309.502 571.226,332.536 
			563.548,332.536 563.548,340.213 555.871,340.213 		"/>
		<rect x="486.771" y="317.18" style="fill:#28211C;" width="7.678" height="7.678"/>
		<rect x="548.193" y="317.18" style="fill:#28211C;" width="7.678" height="7.678"/>
		<polygon style="fill:#949AAF;" points="494.449,370.924 502.126,370.924 502.126,378.602 525.16,378.602 525.16,386.28 
			540.515,386.28 540.515,393.957 548.193,393.957 563.548,393.957 563.548,401.635 571.226,401.635 571.226,409.313 
			563.548,409.313 563.548,401.635 540.515,401.635 540.515,393.957 525.16,393.957 525.16,386.28 502.126,386.28 502.126,378.602 
			494.449,378.602 		"/>
		<polygon style="fill:#949AAF;" points="555.871,340.213 548.193,340.213 548.193,347.891 540.515,347.891 540.515,355.569 
			548.193,355.569 548.193,347.891 555.871,347.891 		"/>
		<polygon style="fill:#949AAF;" points="563.548,378.602 563.548,386.28 555.871,386.28 555.871,393.957 563.548,393.957 
			563.548,409.313 571.226,409.313 571.226,416.991 578.904,416.991 578.904,424.668 594.259,424.668 594.259,432.346 
			617.292,432.346 617.292,416.991 609.615,416.991 609.615,409.313 601.937,409.313 601.937,378.602 		"/>
		<polygon style="fill:#6E748C;" points="617.292,409.313 617.292,401.635 609.615,401.635 609.615,393.957 601.937,393.957 
			601.937,401.635 609.615,401.635 609.615,409.313 		"/>
		<polygon style="fill:#6E748C;" points="609.615,347.891 609.615,355.569 617.292,355.569 617.292,363.246 624.97,363.246 
			624.97,355.569 617.292,355.569 617.292,347.891 		"/>
		<polygon style="fill:#FFFFFF;" points="525.16,294.147 525.16,301.825 540.515,301.825 540.515,309.502 555.871,309.502 
			555.871,317.18 563.548,317.18 563.548,309.502 555.871,309.502 555.871,301.825 540.515,301.825 540.515,294.147 		"/>
		<polygon style="fill:#CACEE0;" points="678.714,324.858 678.714,332.536 671.036,332.536 671.036,340.213 663.359,340.213 
			663.359,347.891 655.681,347.891 655.681,340.213 663.359,340.213 663.359,332.536 671.036,332.536 671.036,324.858 		"/>
		<polygon style="fill:#CACEE0;" points="609.615,317.18 609.615,324.858 601.937,324.858 601.937,332.536 594.259,332.536 
			594.259,340.213 586.581,340.213 586.581,332.536 594.259,332.536 594.259,324.858 601.937,324.858 601.937,317.18 		"/>
	</g>
</g>
</svg>
