<?xml version="1.0" encoding="utf-8"?>
<!-- Generator: Adobe Illustrator 27.5.0, SVG Export Plug-In . SVG Version: 6.00 Build 0)  -->
<svg version="1.1" xmlns="http://www.w3.org/2000/svg" xmlns:xlink="http://www.w3.org/1999/xlink" x="0px" y="0px"
	 viewBox="0 0 750 500" style="enable-background:new 0 0 750 500;" xml:space="preserve">
<g id="BACKGROUND">
	<rect style="fill:#FFFFFF;" width="750" height="500"/>
</g>
<g id="OBJECTS">
	<g>
		<polygon style="fill:#9B3A38;" points="225.901,363.184 225.901,356.321 232.764,356.321 232.764,349.457 239.628,349.457 
			239.628,342.594 246.492,342.594 246.492,335.73 267.082,335.73 267.082,349.457 260.219,349.457 260.219,356.321 
			253.355,356.321 253.355,370.048 253.355,383.775 253.355,383.775 260.219,383.775 260.219,390.639 267.082,390.639 
			267.082,404.366 246.492,404.366 246.492,397.503 239.628,397.503 239.628,390.639 232.764,390.639 225.901,390.639 		"/>
		<rect x="232.764" y="363.184" style="fill:#722626;" width="6.864" height="6.864"/>
		<rect x="239.628" y="356.321" style="fill:#722626;" width="6.864" height="6.864"/>
		<rect x="246.492" y="349.457" style="fill:#722626;" width="6.864" height="6.864"/>
		<rect x="232.764" y="370.048" style="fill:#722626;" width="6.864" height="6.864"/>
		<rect x="232.764" y="376.912" style="fill:#722626;" width="6.864" height="6.864"/>
		<rect x="239.628" y="383.775" style="fill:#722626;" width="6.864" height="6.864"/>
		<rect x="246.492" y="390.639" style="fill:#722626;" width="6.864" height="6.864"/>
		<polygon style="fill:#9B3A38;" points="109.219,322.003 109.219,315.139 116.082,315.139 116.082,308.275 122.946,308.275 
			122.946,301.412 136.673,301.412 136.673,308.275 150.401,308.275 150.401,315.139 157.264,315.139 164.128,315.139 
			170.992,315.139 170.992,322.003 177.855,322.003 184.719,322.003 191.583,322.003 191.583,328.866 198.446,328.866 
			198.446,335.73 109.219,335.73 		"/>
		<rect x="116.082" y="315.139" style="fill:#722626;" width="6.864" height="6.864"/>
		<rect x="122.946" y="308.275" style="fill:#722626;" width="6.864" height="6.864"/>
		<rect x="129.81" y="315.139" style="fill:#722626;" width="6.864" height="6.864"/>
		<rect x="136.673" y="315.139" style="fill:#722626;" width="6.864" height="6.864"/>
		<polygon style="fill:#FFB031;" points="136.673,322.003 102.355,322.003 102.355,328.866 81.764,328.866 81.764,335.73 
			74.901,335.73 74.901,342.594 61.173,342.594 61.173,356.321 54.31,356.321 54.31,363.184 47.446,363.184 47.446,376.912 
			54.31,376.912 54.31,383.775 61.173,383.775 61.173,404.366 68.037,404.366 68.037,411.23 74.901,411.23 74.901,418.094 
			88.628,418.094 88.628,424.957 150.401,424.957 150.401,418.094 157.264,418.094 184.719,418.094 184.719,411.23 198.446,411.23 
			198.446,404.366 212.173,404.366 212.173,397.503 219.037,397.503 219.037,390.639 225.901,390.639 225.901,383.775 
			232.764,383.775 232.764,363.184 225.901,363.184 225.901,356.321 219.037,356.321 219.037,349.457 212.173,349.457 
			212.173,342.594 205.31,342.594 205.31,335.73 184.719,335.73 184.719,328.866 170.992,328.866 170.992,322.003 		"/>
		<g>
			<rect x="219.037" y="356.321" style="fill:#FFD54D;" width="6.864" height="6.864"/>
			<rect x="212.173" y="349.457" style="fill:#FFD54D;" width="6.864" height="6.864"/>
			<rect x="205.31" y="342.594" style="fill:#FFD54D;" width="6.864" height="6.864"/>
			<rect x="198.446" y="342.594" style="fill:#FFD54D;" width="6.864" height="6.864"/>
			<rect x="198.446" y="335.73" style="fill:#FFD54D;" width="6.864" height="6.864"/>
			<rect x="191.583" y="335.73" style="fill:#FFD54D;" width="6.864" height="6.864"/>
			<rect x="184.719" y="335.73" style="fill:#FFD54D;" width="6.864" height="6.864"/>
			<rect x="170.992" y="328.866" style="fill:#FFD54D;" width="6.864" height="6.864"/>
			<rect x="164.128" y="322.003" style="fill:#FFD54D;" width="6.864" height="6.864"/>
			<rect x="177.855" y="328.866" style="fill:#FFD54D;" width="6.864" height="6.864"/>
		</g>
		<polygon style="fill:#9B3A38;" points="95.492,411.23 95.492,418.094 102.355,418.094 102.355,431.821 109.219,431.821 
			109.219,438.684 129.81,438.684 129.81,431.821 136.673,431.821 136.673,424.957 129.81,424.957 129.81,418.094 122.946,418.094 
			122.946,411.23 116.082,411.23 116.082,404.366 109.219,404.366 109.219,397.503 102.355,397.503 102.355,404.366 95.492,404.366 
					"/>
		<g>
			<rect x="109.219" y="404.366" style="fill:#722626;" width="6.864" height="6.864"/>
			<rect x="109.219" y="411.23" style="fill:#722626;" width="6.864" height="6.864"/>
			<rect x="116.082" y="411.23" style="fill:#722626;" width="6.864" height="6.864"/>
			<rect x="116.082" y="418.094" style="fill:#722626;" width="6.864" height="6.864"/>
			<rect x="122.946" y="418.094" style="fill:#722626;" width="6.864" height="6.864"/>
		</g>
		<g>
			<rect x="88.628" y="356.321" style="fill:#FFFFFF;" width="13.727" height="13.727"/>
			<rect x="88.628" y="356.321" style="fill:#28211C;" width="6.864" height="6.864"/>
		</g>
		<g>
			<rect x="122.946" y="342.594" style="fill:#F0923D;" width="6.864" height="6.864"/>
			<rect x="129.81" y="349.457" style="fill:#F0923D;" width="6.864" height="6.864"/>
			<rect x="129.81" y="356.321" style="fill:#F0923D;" width="6.864" height="6.864"/>
			<rect x="136.673" y="363.184" style="fill:#F0923D;" width="6.864" height="6.864"/>
			<rect x="129.81" y="370.048" style="fill:#F0923D;" width="6.864" height="6.864"/>
			<rect x="122.946" y="376.912" style="fill:#F0923D;" width="6.864" height="6.864"/>
			<rect x="116.082" y="383.775" style="fill:#F0923D;" width="6.864" height="6.864"/>
		</g>
		<g>
			<rect x="61.173" y="383.775" style="fill:#F0923D;" width="6.864" height="6.864"/>
			<rect x="54.31" y="376.912" style="fill:#F0923D;" width="6.864" height="6.864"/>
			<rect x="54.31" y="383.775" style="fill:#FFB031;" width="6.864" height="6.864"/>
			<rect x="68.037" y="390.639" style="fill:#F0923D;" width="6.864" height="6.864"/>
			<rect x="74.901" y="390.639" style="fill:#F0923D;" width="6.864" height="6.864"/>
			<rect x="81.764" y="383.775" style="fill:#F0923D;" width="6.864" height="6.864"/>
		</g>
		<polygon style="fill:#9B3A38;" points="150.401,383.775 157.264,383.775 157.264,390.639 164.128,390.639 164.128,397.503 
			170.992,397.503 170.992,411.23 164.128,411.23 164.128,404.366 150.401,404.366 150.401,397.503 143.537,397.503 
			143.537,383.775 		"/>
	</g>
	<g>
		<polygon style="fill:#382210;" points="219.037,159.424 219.037,152.56 225.901,152.56 225.901,145.696 232.764,145.696 
			232.764,138.833 239.628,138.833 239.628,131.969 253.355,131.969 253.355,138.833 246.492,138.833 246.492,145.696 
			239.628,145.696 239.628,152.56 239.628,152.56 239.628,166.287 239.628,166.287 239.628,173.151 246.492,173.151 
			246.492,180.014 253.355,180.014 253.355,186.878 239.628,186.878 239.628,180.014 232.764,180.014 232.764,173.151 
			225.901,173.151 225.901,166.287 219.037,166.287 		"/>
		<polygon style="fill:#382210;" points="170.992,111.378 150.401,111.378 150.401,104.515 136.673,104.515 136.673,97.651 
			129.81,97.651 122.946,97.651 122.946,90.787 109.219,90.787 109.219,97.651 102.355,97.651 102.355,104.515 95.492,104.515 
			95.492,111.378 88.628,111.378 88.628,118.242 95.492,118.242 170.992,118.242 170.992,125.105 177.855,125.105 177.855,118.242 
			177.855,111.378 		"/>
		<g>
			<polygon style="fill:#382210;" points="205.31,186.878 205.31,180.014 177.855,180.014 177.855,186.878 184.719,186.878 
				184.719,193.742 191.583,193.742 191.583,186.878 			"/>
			<rect x="191.583" y="193.742" style="fill:#382210;" width="6.864" height="6.864"/>
		</g>
		<polygon style="fill:#754F26;" points="225.901,152.56 225.901,145.696 219.037,145.696 219.037,138.833 212.173,138.833 
			212.173,131.969 191.583,131.969 191.583,125.105 177.855,125.105 170.992,125.105 170.992,118.242 150.401,118.242 
			150.401,111.378 129.81,111.378 129.81,104.515 109.219,104.515 109.219,111.378 95.492,111.378 95.492,118.242 81.764,118.242 
			81.764,125.105 68.037,125.105 68.037,131.969 61.173,131.969 61.173,138.833 54.31,138.833 54.31,145.696 40.583,145.696 
			40.583,159.424 47.446,159.424 47.446,166.287 54.31,166.287 54.31,173.151 61.173,173.151 61.173,180.014 68.037,180.014 
			68.037,186.878 81.764,186.878 81.764,193.742 150.401,193.742 150.401,186.878 184.719,186.878 184.719,180.014 198.446,180.014 
			198.446,173.151 219.037,173.151 219.037,166.287 232.764,166.287 232.764,152.56 		"/>
		<g>
			<polygon style="fill:#382210;" points="116.082,200.605 109.219,200.605 109.219,193.742 95.492,193.742 95.492,200.605 
				102.355,200.605 102.355,207.469 109.219,207.469 109.219,214.333 122.946,214.333 122.946,207.469 116.082,207.469 			"/>
			<polygon style="fill:#382210;" points="122.946,193.742 116.082,193.742 116.082,200.605 122.946,200.605 122.946,207.469 
				129.81,207.469 129.81,200.605 129.81,193.742 			"/>
		</g>
		<rect x="81.764" y="138.833" style="fill:#FFFFFF;" width="13.727" height="13.727"/>
		<rect x="81.764" y="138.833" style="fill:#28211C;" width="6.864" height="6.864"/>
		<g>
			<rect x="109.219" y="125.105" style="fill:#513418;" width="6.864" height="6.864"/>
			<rect x="116.082" y="131.969" style="fill:#513418;" width="6.864" height="6.864"/>
			<rect x="122.946" y="138.833" style="fill:#513418;" width="6.864" height="6.864"/>
			<rect x="116.082" y="145.696" style="fill:#513418;" width="6.864" height="6.864"/>
			<rect x="109.219" y="152.56" style="fill:#513418;" width="6.864" height="6.864"/>
			<rect x="109.219" y="159.424" style="fill:#513418;" width="6.864" height="6.864"/>
			<rect x="102.355" y="166.287" style="fill:#513418;" width="6.864" height="6.864"/>
			<rect x="47.446" y="159.424" style="fill:#513418;" width="6.864" height="6.864"/>
			<rect x="54.31" y="166.287" style="fill:#513418;" width="6.864" height="6.864"/>
			<rect x="61.173" y="166.287" style="fill:#513418;" width="6.864" height="6.864"/>
			<rect x="68.037" y="159.424" style="fill:#513418;" width="6.864" height="6.864"/>
		</g>
		<g>
			<rect x="143.537" y="111.378" style="fill:#AA7A41;" width="6.864" height="6.864"/>
			<polygon style="fill:#AA7A41;" points="212.173,138.833 212.173,131.969 191.583,131.969 191.583,125.105 170.992,125.105 
				170.992,118.242 150.401,118.242 150.401,125.105 164.128,125.105 164.128,131.969 184.719,131.969 184.719,138.833 
				205.31,138.833 205.31,145.696 219.037,145.696 219.037,138.833 			"/>
		</g>
		<g>
			<polygon style="fill:#382210;" points="129.81,166.287 122.946,166.287 122.946,180.014 129.81,180.014 129.81,173.151 
				136.673,173.151 136.673,166.287 			"/>
			<rect x="116.082" y="159.424" style="fill:#382210;" width="6.864" height="6.864"/>
		</g>
	</g>
	<g>
		<polygon style="fill:#722626;" points="315.128,90.787 315.128,83.924 321.992,83.924 321.992,77.06 328.855,77.06 
			328.855,70.196 335.719,70.196 335.719,63.333 363.173,63.333 363.173,70.196 376.901,70.196 376.901,77.06 390.628,77.06 
			390.628,83.924 404.355,83.924 404.355,90.787 418.082,90.787 418.082,97.651 424.946,97.651 424.946,104.515 431.81,104.515 
			431.81,111.378 438.673,111.378 438.673,125.105 315.128,125.105 		"/>
		<polyline style="fill:#722626;" points="445.537,131.969 452.401,131.969 452.401,125.105 459.264,125.105 459.264,118.242 
			466.128,118.242 466.128,111.378 479.855,111.378 479.855,138.833 472.992,138.833 472.992,166.287 479.855,166.287 
			479.855,186.878 466.128,186.878 466.128,180.014 459.264,180.014 459.264,173.151 452.401,173.151 452.401,166.287 
			445.537,166.287 		"/>
		<polygon style="fill:#722626;" points="438.673,180.014 438.673,193.742 431.81,193.742 431.81,200.605 424.946,200.605 
			424.946,207.469 411.219,207.469 411.219,214.333 397.492,214.333 390.628,214.333 390.628,221.196 376.901,221.196 
			376.901,180.014 		"/>
		<polygon style="fill:#722626;" points="321.992,200.605 321.992,214.333 328.855,214.333 328.855,221.196 335.719,221.196 
			335.719,228.06 349.446,228.06 349.446,214.333 342.582,214.333 342.582,200.605 		"/>
		<polygon style="fill:#9B3A38;" points="445.537,138.833 445.537,131.969 438.673,131.969 438.673,125.105 431.81,125.105 
			431.81,118.242 424.946,118.242 424.946,111.378 418.082,111.378 418.082,104.515 411.219,104.515 411.219,97.651 397.492,97.651 
			397.492,90.787 390.628,90.787 383.764,90.787 376.901,90.787 376.901,83.924 356.31,83.924 335.719,83.924 335.719,90.787 
			315.128,90.787 315.128,97.651 308.264,97.651 308.264,104.515 301.401,104.515 301.401,111.378 294.537,111.378 294.537,125.105 
			287.673,125.105 287.673,131.969 280.81,131.969 280.81,138.833 280.81,145.696 280.81,152.56 280.81,159.424 280.81,166.287 
			287.673,166.287 287.673,173.151 294.537,173.151 294.537,186.878 301.401,186.878 301.401,193.742 308.264,193.742 
			308.264,200.605 315.128,200.605 315.128,207.469 321.992,207.469 328.855,207.469 328.855,214.333 376.901,214.333 
			376.901,207.469 383.764,207.469 390.628,207.469 397.492,207.469 397.492,200.605 411.219,200.605 411.219,193.742 
			418.082,193.742 418.082,186.878 424.946,186.878 431.81,186.878 431.81,180.014 438.673,180.014 438.673,173.151 
			438.673,166.287 445.537,166.287 445.537,159.424 452.401,159.424 452.401,138.833 		"/>
		<polygon style="fill:#722626;" points="342.582,166.287 349.446,166.287 349.446,173.151 363.173,173.151 363.173,180.014 
			370.037,180.014 370.037,200.605 363.173,200.605 363.173,207.469 356.31,207.469 356.31,200.605 342.582,200.605 
			342.582,186.878 335.719,186.878 335.719,166.287 		"/>
		<rect x="308.264" y="125.105" style="fill:#FFFFFF;" width="13.727" height="13.727"/>
		<rect x="308.264" y="125.105" style="fill:#28211C;" width="6.864" height="6.864"/>
		<g>
			<rect x="342.582" y="118.242" style="fill:#873331;" width="6.864" height="6.864"/>
			<rect x="349.446" y="125.105" style="fill:#873331;" width="6.864" height="6.864"/>
			<rect x="356.31" y="131.969" style="fill:#873331;" width="6.864" height="6.864"/>
			<rect x="356.31" y="138.833" style="fill:#873331;" width="6.864" height="6.864"/>
			<rect x="349.446" y="145.696" style="fill:#873331;" width="6.864" height="6.864"/>
			<rect x="342.582" y="152.56" style="fill:#873331;" width="6.864" height="6.864"/>
			<rect x="335.719" y="159.424" style="fill:#873331;" width="6.864" height="6.864"/>
			<rect x="280.81" y="152.56" style="fill:#873331;" width="6.864" height="6.864"/>
			<rect x="287.673" y="159.424" style="fill:#873331;" width="6.864" height="6.864"/>
			<rect x="294.537" y="159.424" style="fill:#873331;" width="6.864" height="6.864"/>
			<rect x="301.401" y="166.287" style="fill:#873331;" width="6.864" height="6.864"/>
			<rect x="308.264" y="159.424" style="fill:#873331;" width="6.864" height="6.864"/>
			<rect x="376.901" y="90.787" style="fill:#AB403E;" width="20.591" height="6.864"/>
			<rect x="390.628" y="97.651" style="fill:#AB403E;" width="20.591" height="6.864"/>
			<rect x="404.355" y="104.515" style="fill:#AB403E;" width="13.727" height="6.864"/>
			<rect x="411.219" y="111.378" style="fill:#AB403E;" width="13.727" height="6.864"/>
			<rect x="424.946" y="118.242" style="fill:#AB403E;" width="6.864" height="6.864"/>
			<rect x="431.81" y="125.105" style="fill:#AB403E;" width="6.864" height="6.864"/>
			<rect x="438.673" y="131.969" style="fill:#AB403E;" width="6.864" height="6.864"/>
			<rect x="445.537" y="138.833" style="fill:#AB403E;" width="6.864" height="6.864"/>
		</g>
	</g>
	<g>
		<polygon style="fill:#9B3A38;" points="713.219,356.321 713.219,349.457 706.355,349.457 706.355,342.594 699.492,342.594 
			699.492,335.73 692.628,335.73 692.628,328.866 685.764,328.866 685.764,322.003 678.901,322.003 678.901,315.139 
			672.037,315.139 672.037,322.003 665.173,322.003 665.173,328.866 658.31,328.866 658.31,335.73 651.446,335.73 651.446,342.594 
			644.582,342.594 644.582,349.457 637.719,349.457 637.719,383.775 651.446,383.775 651.446,376.912 658.31,376.912 
			658.31,383.775 665.173,383.775 665.173,390.639 672.037,390.639 672.037,397.503 678.901,397.503 678.901,404.366 
			692.628,404.366 692.628,411.23 699.492,411.23 706.355,411.23 706.355,404.366 713.219,404.366 713.219,397.503 713.219,390.639 
			706.355,390.639 706.355,383.775 699.492,383.775 699.492,390.639 692.628,390.639 692.628,383.775 685.764,383.775 
			685.764,376.912 678.901,376.912 678.901,370.048 672.037,370.048 672.037,363.184 665.173,363.184 665.173,356.321 
			672.037,356.321 672.037,349.457 678.901,349.457 678.901,342.594 685.764,342.594 685.764,349.457 692.628,349.457 
			692.628,356.321 699.492,356.321 699.492,363.184 706.355,363.184 706.355,370.048 713.219,370.048 713.219,363.184 
			720.082,363.184 720.082,356.321 		"/>
		<polygon style="fill:#722626;" points="644.582,356.321 644.582,349.457 651.446,349.457 651.446,342.594 658.31,342.594 
			658.31,335.73 665.173,335.73 665.173,342.594 672.037,342.594 672.037,349.457 665.173,349.457 658.31,349.457 658.31,356.321 
			658.31,363.184 658.31,370.048 665.173,370.048 665.173,383.775 658.31,383.775 658.31,376.912 651.446,376.912 651.446,383.775 
			644.582,383.775 		"/>
		<polygon style="fill:#9B3A38;" points="534.764,322.003 534.764,315.139 541.628,315.139 541.628,308.275 548.492,308.275 
			548.492,301.412 555.355,301.412 555.355,294.548 569.082,294.548 575.946,294.548 575.946,301.412 582.81,301.412 
			582.81,308.275 589.673,308.275 589.673,315.139 603.401,315.139 603.401,322.003 610.264,322.003 617.128,322.003 
			617.128,328.866 623.992,328.866 623.992,335.73 534.764,335.73 		"/>
		<polygon style="fill:#722626;" points="548.492,315.139 548.492,308.275 555.355,308.275 562.219,308.275 562.219,301.412 
			569.082,301.412 569.082,308.275 575.946,308.275 575.946,315.139 582.81,315.139 582.81,322.003 603.401,322.003 
			603.401,328.866 548.492,328.866 		"/>
		<polygon style="fill:#9B3A38;" points="582.81,404.366 582.81,418.094 589.673,418.094 589.673,424.957 603.401,424.957 
			603.401,431.821 617.128,431.821 617.128,418.094 623.992,418.094 623.992,411.23 617.128,411.23 617.128,404.366 		"/>
		<polygon style="fill:#722626;" points="610.264,404.366 610.264,411.23 603.401,411.23 603.401,418.094 596.537,418.094 
			596.537,424.957 589.673,424.957 589.673,418.094 582.81,418.094 582.81,404.366 		"/>
		<polygon style="fill:#F0923D;" points="637.719,356.321 637.719,349.457 630.855,349.457 630.855,342.594 623.992,342.594 
			623.992,335.73 617.128,335.73 610.264,335.73 610.264,328.866 603.401,328.866 596.537,328.866 596.537,322.003 589.673,322.003 
			582.81,322.003 575.946,322.003 575.946,315.139 555.355,315.139 548.492,315.139 541.628,315.139 541.628,322.003 
			534.764,322.003 534.764,328.866 527.901,328.866 527.901,335.73 521.037,335.73 521.037,342.594 514.173,342.594 
			514.173,349.457 507.31,349.457 507.31,383.775 514.173,383.775 514.173,390.639 521.037,390.639 521.037,397.503 
			527.901,397.503 527.901,404.366 534.764,404.366 534.764,411.23 541.628,411.23 541.628,418.094 548.492,418.094 
			555.355,418.094 575.946,418.094 575.946,411.23 582.81,411.23 589.673,411.23 596.537,411.23 596.537,404.366 603.401,404.366 
			610.264,404.366 610.264,397.503 617.128,397.503 623.992,397.503 623.992,390.639 630.855,390.639 630.855,383.775 
			637.719,383.775 637.719,376.912 644.582,376.912 644.582,356.321 		"/>
		<polygon style="fill:#9B3A38;" points="548.492,390.639 548.492,390.639 548.492,397.503 541.628,397.503 541.628,404.366 
			534.764,404.366 534.764,411.23 527.901,411.23 527.901,424.957 534.764,424.957 534.764,431.821 541.628,431.821 
			541.628,438.684 562.219,438.684 562.219,431.821 562.219,418.094 555.355,418.094 555.355,411.23 548.492,411.23 
			548.492,404.366 555.355,404.366 555.355,390.639 		"/>
		<g>
			<rect x="534.764" y="349.457" style="fill:#FFFFFF;" width="13.727" height="13.727"/>
			<rect x="534.764" y="349.457" style="fill:#28211C;" width="6.864" height="6.864"/>
		</g>
		<g>
			<rect x="555.355" y="328.866" style="fill:#EB6C28;" width="6.864" height="6.864"/>
			<rect x="562.219" y="335.73" style="fill:#EB6C28;" width="6.864" height="6.864"/>
			<rect x="569.082" y="342.594" style="fill:#EB6C28;" width="6.864" height="6.864"/>
			<rect x="569.082" y="349.457" style="fill:#EB6C28;" width="6.864" height="6.864"/>
			<rect x="569.082" y="356.321" style="fill:#EB6C28;" width="6.864" height="6.864"/>
			<rect x="562.219" y="363.184" style="fill:#EB6C28;" width="6.864" height="6.864"/>
			<rect x="582.81" y="370.048" style="fill:#EB6C28;" width="6.864" height="6.864"/>
			<rect x="589.673" y="376.912" style="fill:#EB6C28;" width="6.864" height="6.864"/>
			<rect x="582.81" y="383.775" style="fill:#EB6C28;" width="6.864" height="6.864"/>
			<rect x="596.537" y="342.594" style="fill:#EB6C28;" width="6.864" height="6.864"/>
			<rect x="603.401" y="349.457" style="fill:#EB6C28;" width="6.864" height="6.864"/>
			<rect x="596.537" y="356.321" style="fill:#EB6C28;" width="6.864" height="6.864"/>
			<rect x="617.128" y="356.321" style="fill:#EB6C28;" width="6.864" height="6.864"/>
			<rect x="623.992" y="363.184" style="fill:#EB6C28;" width="6.864" height="6.864"/>
			<rect x="617.128" y="370.048" style="fill:#EB6C28;" width="6.864" height="6.864"/>
			<rect x="569.082" y="390.639" style="fill:#EB6C28;" width="6.864" height="6.864"/>
			<rect x="575.946" y="397.503" style="fill:#EB6C28;" width="6.864" height="6.864"/>
			<rect x="569.082" y="404.366" style="fill:#EB6C28;" width="6.864" height="6.864"/>
			<rect x="555.355" y="370.048" style="fill:#EB6C28;" width="6.864" height="6.864"/>
			<rect x="514.173" y="376.912" style="fill:#EB6C28;" width="6.864" height="6.864"/>
			<rect x="521.037" y="376.912" style="fill:#EB6C28;" width="6.864" height="6.864"/>
			<rect x="527.901" y="383.775" style="fill:#EB6C28;" width="6.864" height="6.864"/>
			<rect x="534.764" y="376.912" style="fill:#EB6C28;" width="6.864" height="6.864"/>
			<rect x="507.31" y="370.048" style="fill:#EB6C28;" width="6.864" height="6.864"/>
		</g>
		<g>
			<rect x="575.946" y="322.003" style="fill:#FFB031;" width="20.591" height="6.864"/>
			<rect x="589.673" y="328.866" style="fill:#FFB031;" width="20.591" height="6.864"/>
			<rect x="610.264" y="335.73" style="fill:#FFB031;" width="13.727" height="6.864"/>
			<rect x="562.219" y="315.139" style="fill:#FFB031;" width="13.727" height="6.864"/>
			<rect x="617.128" y="342.594" style="fill:#FFB031;" width="13.727" height="6.864"/>
			<rect x="630.855" y="349.457" style="fill:#FFB031;" width="6.864" height="6.864"/>
			<rect x="637.719" y="356.321" style="fill:#FFB031;" width="6.864" height="6.864"/>
		</g>
	</g>
	<g>
		<rect x="678.901" y="138.833" style="fill:#F0923D;" width="13.727" height="20.591"/>
		<polygon style="fill:#FFB031;" points="672.037,131.969 678.901,131.969 678.901,125.105 685.764,125.105 685.764,118.242 
			692.628,118.242 692.628,111.378 706.355,111.378 706.355,118.242 699.492,118.242 699.492,125.105 692.628,125.105 
			692.628,138.833 685.764,138.833 685.764,145.696 678.901,145.696 678.901,152.56 685.764,152.56 685.764,159.424 
			692.628,159.424 692.628,173.151 699.492,173.151 699.492,180.014 706.355,180.014 706.355,186.878 692.628,186.878 
			692.628,180.014 685.764,180.014 685.764,173.151 678.901,173.151 678.901,166.287 672.037,166.287 		"/>
		<g>
			<rect x="582.81" y="104.515" style="fill:#F0923D;" width="20.591" height="6.864"/>
			<polygon style="fill:#FFB031;" points="582.81,97.651 575.946,97.651 569.082,97.651 569.082,104.515 562.219,104.515 
				562.219,111.378 555.355,111.378 555.355,118.242 589.673,118.242 589.673,111.378 589.673,104.515 582.81,104.515 			"/>
			<polygon style="fill:#FFB031;" points="617.128,97.651 610.264,97.651 610.264,104.515 603.401,104.515 603.401,111.378 
				610.264,111.378 617.128,111.378 617.128,104.515 			"/>
			<rect x="617.128" y="111.378" style="fill:#FFB031;" width="6.864" height="6.864"/>
		</g>
		<polygon style="fill:#949AAF;" points="672.037,138.833 672.037,131.969 658.31,131.969 658.31,125.105 644.582,125.105 
			644.582,118.242 623.992,118.242 617.128,118.242 617.128,111.378 589.673,111.378 582.81,111.378 582.81,104.515 
			569.082,104.515 569.082,111.378 562.219,111.378 562.219,118.242 534.764,118.242 534.764,125.105 527.901,125.105 
			527.901,131.969 521.037,131.969 521.037,138.833 514.173,138.833 514.173,159.424 521.037,159.424 521.037,173.151 
			527.901,173.151 527.901,180.014 541.628,180.014 548.492,180.014 548.492,186.878 617.128,186.878 617.128,180.014 
			637.719,180.014 637.719,173.151 658.31,173.151 658.31,166.287 672.037,166.287 672.037,159.424 678.901,159.424 
			678.901,138.833 		"/>
		<g>
			<rect x="562.219" y="125.105" style="fill:#81879C;" width="6.864" height="6.864"/>
			<rect x="569.082" y="131.969" style="fill:#81879C;" width="6.864" height="6.864"/>
			<polygon style="fill:#81879C;" points="575.946,145.696 575.946,152.56 582.81,152.56 582.81,145.696 582.81,138.833 
				575.946,138.833 			"/>
			<rect x="569.082" y="152.56" style="fill:#81879C;" width="6.864" height="6.864"/>
			<rect x="521.037" y="159.424" style="fill:#81879C;" width="6.864" height="6.864"/>
			<polygon style="fill:#81879C;" points="527.901,166.287 527.901,173.151 534.764,173.151 541.628,173.151 541.628,166.287 
				534.764,166.287 			"/>
			<rect x="541.628" y="159.424" style="fill:#81879C;" width="6.864" height="6.864"/>
			<rect x="596.537" y="152.56" style="fill:#81879C;" width="13.727" height="6.864"/>
			<rect x="610.264" y="159.424" style="fill:#81879C;" width="6.864" height="6.864"/>
			<polygon style="fill:#81879C;" points="617.128,166.287 617.128,173.151 623.992,173.151 630.855,173.151 630.855,166.287 
				623.992,166.287 			"/>
			<rect x="630.855" y="159.424" style="fill:#81879C;" width="6.864" height="6.864"/>
			<rect x="637.719" y="152.56" style="fill:#81879C;" width="6.864" height="6.864"/>
			<rect x="644.582" y="145.696" style="fill:#81879C;" width="6.864" height="6.864"/>
		</g>
		<rect x="582.81" y="186.878" style="fill:#F0923D;" width="13.727" height="6.864"/>
		<polygon style="fill:#FFB031;" points="575.946,186.878 575.946,193.742 582.81,193.742 582.81,200.605 589.673,200.605 
			589.673,193.742 589.673,186.878 		"/>
		<polygon style="fill:#FFB031;" points="562.219,159.424 562.219,180.014 569.082,180.014 569.082,173.151 575.946,173.151 
			575.946,166.287 582.81,166.287 582.81,159.424 		"/>
		<g>
			<rect x="541.628" y="138.833" style="fill:#FFFFFF;" width="13.727" height="13.727"/>
			<rect x="541.628" y="138.833" style="fill:#28211C;" width="6.864" height="6.864"/>
		</g>
		<g>
			<rect x="596.537" y="111.378" style="fill:#CACEE0;" width="20.591" height="6.864"/>
			<rect x="617.128" y="118.242" style="fill:#CACEE0;" width="27.454" height="6.864"/>
			<rect x="644.582" y="125.105" style="fill:#CACEE0;" width="13.727" height="6.864"/>
			<rect x="658.31" y="131.969" style="fill:#CACEE0;" width="13.727" height="6.864"/>
			<rect x="672.037" y="138.833" style="fill:#CACEE0;" width="6.864" height="6.864"/>
		</g>
	</g>
	<g>
		<polygon style="fill:#FFB031;" points="418.082,356.321 424.946,356.321 424.946,349.457 431.81,349.457 431.81,342.594 
			438.673,342.594 438.673,335.73 452.401,335.73 452.401,342.594 445.537,342.594 445.537,356.321 438.673,356.321 
			438.673,370.048 431.81,370.048 431.81,383.775 438.673,383.775 438.673,397.503 445.537,397.503 445.537,411.23 452.401,411.23 
			452.401,418.094 438.673,418.094 438.673,411.23 431.81,411.23 431.81,404.366 424.946,404.366 424.946,397.503 418.082,397.503 
					"/>
		<rect x="418.082" y="356.321" style="fill:#F0923D;" width="6.864" height="41.182"/>
		<rect x="424.946" y="363.184" style="fill:#F0923D;" width="6.864" height="27.455"/>
		<path style="fill:#CACEE0;" d="M418.082,363.184v-13.727h-6.864v-6.864h-6.864v-6.864h-6.864v-6.864h-6.864v-6.864h-13.727v-6.864
			c0,0-3.813,0-6.864,0v-6.864h6.864v-6.864h6.864v-6.864h6.864v-6.864h-6.864h-6.864v6.864h-13.727v6.864h-13.727v6.864h-6.864
			v6.864h-6.864v6.864h-13.727v6.864h-6.864v6.864h-6.864v6.864v6.864h-6.864v20.591h-6.864v13.727h6.864v6.864h6.864v20.591h6.864
			v6.864h6.864v6.864h6.864v6.864h41.182v-6.864h20.591v-6.864h6.864v-6.864h6.864v-6.864h13.727v-13.727h6.864v-27.454H418.082z"/>
		<polygon style="fill:#FFB031;" points="349.446,383.775 342.582,383.775 342.582,390.639 335.719,390.639 335.719,397.503 
			335.719,411.23 342.582,411.23 342.582,418.094 363.173,418.094 363.173,411.23 370.037,411.23 370.037,404.366 363.173,404.366 
			363.173,397.503 356.31,397.503 356.31,390.639 349.446,390.639 		"/>
		<g>
			<rect x="321.992" y="356.321" style="fill:#FFFFFF;" width="13.727" height="13.727"/>
			<rect x="321.992" y="356.321" style="fill:#28211C;" width="6.864" height="6.864"/>
		</g>
		<g>
			<rect x="349.446" y="370.048" style="fill:#949AAF;" width="6.864" height="6.864"/>
			<rect x="342.582" y="376.912" style="fill:#949AAF;" width="6.864" height="6.864"/>
			<rect x="342.582" y="335.73" style="fill:#949AAF;" width="6.864" height="6.864"/>
			<rect x="356.31" y="349.457" style="fill:#949AAF;" width="6.864" height="20.591"/>
			<rect x="349.446" y="342.594" style="fill:#949AAF;" width="6.864" height="6.864"/>
			<rect x="315.128" y="397.503" style="fill:#949AAF;" width="6.864" height="6.864"/>
			<rect x="301.401" y="383.775" style="fill:#949AAF;" width="6.864" height="6.864"/>
			<rect x="308.264" y="390.639" style="fill:#949AAF;" width="6.864" height="6.864"/>
			<g>
				<rect x="383.764" y="376.912" style="fill:#949AAF;" width="6.864" height="6.864"/>
				<rect x="376.901" y="370.048" style="fill:#949AAF;" width="6.864" height="6.864"/>
			</g>
			<g>
				<rect x="383.764" y="397.503" style="fill:#949AAF;" width="6.864" height="6.864"/>
				<rect x="376.901" y="390.639" style="fill:#949AAF;" width="6.864" height="6.864"/>
			</g>
			<g>
				<rect x="404.355" y="383.775" style="fill:#949AAF;" width="6.864" height="6.864"/>
				<rect x="397.492" y="376.912" style="fill:#949AAF;" width="6.864" height="6.864"/>
			</g>
			<g>
				<rect x="390.628" y="356.321" style="fill:#949AAF;" width="6.864" height="6.864"/>
				<rect x="383.764" y="349.457" style="fill:#949AAF;" width="6.864" height="6.864"/>
			</g>
			<g>
				<rect x="370.037" y="342.594" style="fill:#949AAF;" width="6.864" height="6.864"/>
				<rect x="363.173" y="335.73" style="fill:#949AAF;" width="6.864" height="6.864"/>
			</g>
			<polygon style="fill:#FFFFFF;" points="376.901,301.412 370.037,301.412 370.037,308.275 363.173,308.275 363.173,315.139 
				363.173,322.003 376.901,322.003 376.901,328.866 390.628,328.866 390.628,335.73 397.492,335.73 397.492,342.594 
				404.355,342.594 404.355,349.457 411.219,349.457 411.219,356.321 418.082,356.321 418.082,349.457 411.219,349.457 
				411.219,342.594 404.355,342.594 404.355,335.73 397.492,335.73 397.492,328.866 390.628,328.866 390.628,322.003 
				383.764,322.003 376.901,322.003 376.901,315.139 370.037,315.139 370.037,308.275 376.901,308.275 			"/>
		</g>
		<rect x="349.446" y="390.639" style="fill:#F0923D;" width="6.864" height="6.864"/>
		<rect x="356.31" y="397.503" style="fill:#F0923D;" width="6.864" height="6.864"/>
		<rect x="363.173" y="404.366" style="fill:#F0923D;" width="6.864" height="6.864"/>
	</g>
	<g>
		<g>
			<rect x="507.31" y="280.821" style="fill:#CACEE0;" width="20.591" height="20.591"/>
			<rect x="514.173" y="273.957" style="fill:#CACEE0;" width="6.864" height="6.864"/>
			<rect x="527.901" y="287.684" style="fill:#CACEE0;" width="6.864" height="6.864"/>
			<rect x="514.173" y="301.412" style="fill:#CACEE0;" width="6.864" height="6.864"/>
			<rect x="500.446" y="287.684" style="fill:#CACEE0;" width="6.864" height="6.864"/>
			<rect x="507.31" y="287.684" style="fill:#FFFFFF;" width="6.864" height="6.864"/>
			<rect x="514.173" y="280.821" style="fill:#FFFFFF;" width="6.864" height="6.864"/>
		</g>
		<g>
			<rect x="219.037" y="280.821" style="fill:#CACEE0;" width="20.591" height="20.591"/>
			<rect x="225.901" y="273.957" style="fill:#CACEE0;" width="6.864" height="6.864"/>
			<rect x="239.628" y="287.684" style="fill:#CACEE0;" width="6.864" height="6.864"/>
			<rect x="225.901" y="301.412" style="fill:#CACEE0;" width="6.864" height="6.864"/>
			<rect x="212.173" y="287.684" style="fill:#CACEE0;" width="6.864" height="6.864"/>
			<rect x="219.037" y="287.684" style="fill:#FFFFFF;" width="6.864" height="6.864"/>
			<rect x="225.901" y="280.821" style="fill:#FFFFFF;" width="6.864" height="6.864"/>
		</g>
		<g>
			<rect x="459.264" y="56.469" style="fill:#CACEE0;" width="20.591" height="20.591"/>
			<rect x="466.128" y="49.605" style="fill:#CACEE0;" width="6.864" height="6.864"/>
			<rect x="479.855" y="63.333" style="fill:#CACEE0;" width="6.864" height="6.864"/>
			<rect x="466.128" y="77.06" style="fill:#CACEE0;" width="6.864" height="6.864"/>
			<rect x="452.401" y="63.333" style="fill:#CACEE0;" width="6.864" height="6.864"/>
			<rect x="459.264" y="63.333" style="fill:#FFFFFF;" width="6.864" height="6.864"/>
			<rect x="466.128" y="56.469" style="fill:#FFFFFF;" width="6.864" height="6.864"/>
		</g>
		<g>
			<rect x="472.992" y="260.23" style="fill:#CACEE0;" width="13.727" height="13.727"/>
			<rect x="472.992" y="260.23" style="fill:#FFFFFF;" width="6.864" height="6.864"/>
		</g>
		<g>
			<rect x="431.81" y="56.469" style="fill:#CACEE0;" width="13.727" height="13.727"/>
			<rect x="431.81" y="56.469" style="fill:#FFFFFF;" width="6.864" height="6.864"/>
		</g>
		<g>
			<rect x="267.082" y="308.275" style="fill:#CACEE0;" width="13.727" height="13.727"/>
			<rect x="267.082" y="308.275" style="fill:#FFFFFF;" width="6.864" height="6.864"/>
		</g>
		<g>
			<rect x="177.855" y="253.366" style="fill:#CACEE0;" width="13.727" height="13.727"/>
			<rect x="177.855" y="253.366" style="fill:#FFFFFF;" width="6.864" height="6.864"/>
		</g>
	</g>
</g>
</svg>
