<?xml version="1.0" encoding="utf-8"?>
<!-- Generator: Adobe Illustrator 27.5.0, SVG Export Plug-In . SVG Version: 6.00 Build 0)  -->
<svg version="1.1" xmlns="http://www.w3.org/2000/svg" xmlns:xlink="http://www.w3.org/1999/xlink" x="0px" y="0px"
	 viewBox="0 0 750 500" style="enable-background:new 0 0 750 500;" xml:space="preserve">
<g id="BACKGROUND">
	<rect style="fill:#FFE2C2;" width="750" height="500"/>
</g>
<g id="OBJECTS">
	<g>
		<polygon style="fill:#754F26;" points="96.172,173.597 96.172,198.472 89.953,198.472 89.953,229.566 83.735,229.566 
			83.735,204.691 77.516,204.691 77.516,173.597 		"/>
		<polygon style="fill:#754F26;" points="158.36,173.597 158.36,186.035 152.141,186.035 152.141,198.472 145.922,198.472 
			145.922,229.566 139.703,229.566 139.703,173.597 		"/>
		<polygon style="fill:#E2AE6A;" points="214.328,111.41 214.328,117.628 208.11,117.628 208.11,136.285 201.891,136.285 
			201.891,154.941 195.672,154.941 195.672,161.16 189.453,161.16 189.453,167.378 164.578,167.378 158.36,167.378 158.36,173.597 
			152.141,173.597 152.141,179.816 145.922,179.816 145.922,186.035 145.922,192.253 139.703,192.253 139.703,235.785 
			133.485,235.785 133.485,204.691 127.266,204.691 127.266,198.472 127.266,186.035 121.047,186.035 121.047,179.816 
			108.61,179.816 108.61,173.597 89.953,173.597 89.953,179.816 83.735,179.816 83.735,186.035 83.735,192.253 77.516,192.253 
			77.516,235.785 71.297,235.785 71.297,204.691 65.078,204.691 65.078,192.253 58.86,192.253 58.86,179.816 65.078,179.816 
			65.078,167.378 58.86,167.378 58.86,123.847 65.078,123.847 65.078,117.628 71.297,117.628 71.297,111.41 77.516,111.41 
			77.516,105.191 83.735,105.191 96.172,105.191 96.172,98.972 102.391,98.972 102.391,92.753 133.485,92.753 133.485,98.972 
			139.703,98.972 139.703,105.191 145.922,105.191 145.922,111.41 170.797,111.41 170.797,117.628 177.016,117.628 177.016,123.847 
			183.235,123.847 183.235,130.066 195.672,130.066 195.672,92.753 201.891,92.753 201.891,86.535 201.891,67.878 208.11,67.878 
			208.11,74.097 214.328,74.097 214.328,80.316 226.766,80.316 226.766,86.535 232.985,86.535 245.422,86.535 245.422,98.972 
			251.641,98.972 251.641,105.191 239.203,105.191 239.203,111.41 		"/>
		<polygon style="fill:#AA7A41;" points="239.203,92.753 232.985,92.753 232.985,98.972 226.766,98.972 226.766,105.191 
			220.547,105.191 220.547,111.41 239.203,111.41 239.203,105.191 251.641,105.191 251.641,98.972 245.422,98.972 245.422,92.753 		
			"/>
		<rect x="189.453" y="117.628" style="fill:#E2AE6A;" width="6.219" height="12.437"/>
		<polygon style="fill:#AA7A41;" points="133.485,98.972 133.485,92.753 127.266,92.753 127.266,86.535 108.61,86.535 
			108.61,92.753 102.391,92.753 102.391,98.972 96.172,98.972 96.172,105.191 102.391,105.191 102.391,111.41 114.828,111.41 
			114.828,117.628 121.047,117.628 121.047,111.41 133.485,111.41 133.485,105.191 139.703,105.191 139.703,98.972 		"/>
		<rect x="220.547" y="86.535" style="fill:#28211C;" width="6.219" height="6.219"/>
		<polygon style="fill:#AA7A41;" points="158.36,167.378 158.36,148.722 152.141,148.722 152.141,142.503 158.36,142.503 
			158.36,148.722 164.578,148.722 164.578,154.941 170.797,154.941 170.797,161.16 177.016,161.16 177.016,167.378 		"/>
		<g>
			<polygon style="fill:#E2AE6A;" points="46.422,167.378 40.203,167.378 40.203,161.16 33.985,161.16 33.985,173.597 
				52.641,173.597 52.641,142.503 46.422,142.503 			"/>
			<rect x="52.641" y="136.285" style="fill:#E2AE6A;" width="6.219" height="6.219"/>
		</g>
		<rect x="239.203" y="92.753" style="fill:#28211C;" width="6.219" height="6.219"/>
	</g>
	<g>
		<polygon style="fill:#28211C;" points="394.672,161.16 394.672,179.816 388.453,179.816 388.453,186.035 382.234,186.035 
			382.234,235.785 376.016,235.785 376.016,161.16 		"/>
		<polygon style="fill:#513418;" points="438.203,142.503 438.203,148.722 431.984,148.722 431.984,154.941 400.891,154.941 
			400.891,161.16 388.453,161.16 388.453,167.378 382.234,167.378 382.234,186.035 376.016,186.035 376.016,235.785 
			369.797,235.785 369.797,192.253 363.578,192.253 363.578,179.816 357.359,179.816 357.359,186.035 351.141,186.035 
			351.141,192.253 344.922,192.253 344.922,198.472 338.703,198.472 338.703,192.253 332.485,192.253 332.485,173.597 
			326.266,173.597 326.266,161.16 320.047,161.16 320.047,148.722 326.266,148.722 326.266,130.066 332.485,130.066 
			332.485,123.847 338.703,123.847 338.703,117.628 344.922,117.628 344.922,111.41 351.141,111.41 351.141,105.191 
			357.359,105.191 357.359,98.972 394.672,98.972 394.672,105.191 400.891,105.191 400.891,111.41 407.109,111.41 407.109,117.628 
			413.328,117.628 413.328,123.847 419.547,123.847 419.547,130.066 431.984,130.066 431.984,117.628 425.766,117.628 
			425.766,111.41 419.547,111.41 419.547,92.753 413.328,92.753 413.328,86.535 413.328,55.441 419.547,55.441 419.547,49.222 
			431.984,49.222 431.984,55.441 438.203,55.441 438.203,61.66 450.641,61.66 450.641,67.878 444.422,67.878 444.422,74.097 
			438.203,74.097 438.203,80.316 431.984,80.316 431.984,98.972 438.203,98.972 438.203,105.191 444.422,105.191 444.422,111.41 
			450.641,111.41 450.641,136.285 444.422,136.285 444.422,142.503 		"/>
		<polygon style="fill:#E2AE6A;" points="382.234,167.378 376.016,167.378 376.016,161.16 369.797,161.16 369.797,173.597 
			363.578,173.597 363.578,192.253 369.797,192.253 369.797,235.785 376.016,235.785 376.016,186.035 382.234,186.035 		"/>
		<polygon style="fill:#AA7A41;" points="431.984,123.847 438.203,123.847 438.203,130.066 444.422,130.066 444.422,136.285 
			450.641,136.285 450.641,111.41 444.422,111.41 444.422,105.191 438.203,105.191 438.203,98.972 431.984,98.972 431.984,80.316 
			438.203,80.316 438.203,74.097 444.422,74.097 444.422,67.878 450.641,67.878 450.641,61.66 438.203,61.66 438.203,55.441 
			431.984,55.441 431.984,49.222 419.547,49.222 419.547,55.441 413.328,55.441 413.328,92.753 419.547,92.753 419.547,111.41 
			425.766,111.41 425.766,117.628 431.984,117.628 		"/>
		<polygon style="fill:#754F26;" points="332.485,179.816 338.703,179.816 338.703,186.035 344.922,186.035 344.922,179.816 
			351.141,179.816 351.141,173.597 357.359,173.597 357.359,167.378 363.578,167.378 363.578,161.16 369.797,161.16 
			369.797,173.597 363.578,173.597 363.578,179.816 357.359,179.816 357.359,186.035 351.141,186.035 351.141,192.253 
			344.922,192.253 344.922,198.472 338.703,198.472 338.703,192.253 332.485,192.253 		"/>
		<rect x="425.766" y="61.66" style="fill:#28211C;" width="6.219" height="6.219"/>
		<polygon style="fill:#382210;" points="388.453,123.847 382.234,123.847 382.234,130.066 369.797,130.066 369.797,136.285 
			363.578,136.285 363.578,142.503 357.359,142.503 357.359,148.722 351.141,148.722 351.141,154.941 357.359,154.941 
			357.359,148.722 363.578,148.722 363.578,142.503 369.797,142.503 369.797,136.285 382.234,136.285 382.234,130.066 
			388.453,130.066 		"/>
		<polygon style="fill:#754F26;" points="369.797,98.972 369.797,105.191 357.359,105.191 357.359,111.41 351.141,111.41 
			351.141,117.628 344.922,117.628 344.922,123.847 338.703,123.847 338.703,117.628 344.922,117.628 344.922,111.41 
			351.141,111.41 351.141,105.191 357.359,105.191 357.359,98.972 		"/>
	</g>
	<g>
		<polygon style="fill:#513418;" points="590.619,179.816 590.619,186.035 584.4,186.035 584.4,192.253 578.181,192.253 
			578.181,229.566 571.962,229.566 571.962,179.816 		"/>
		<polygon style="fill:#513418;" points="659.025,173.597 659.025,179.816 652.806,179.816 652.806,186.035 646.587,186.035 
			646.587,229.566 640.369,229.566 640.369,173.597 		"/>
		<polygon style="fill:#754F26;" points="559.525,130.066 553.306,130.066 553.306,136.285 547.087,136.285 547.087,148.722 
			540.869,148.722 540.869,154.941 547.087,154.941 547.087,148.722 559.525,148.722 		"/>
		<polygon style="fill:#AA7A41;" points="677.681,86.535 677.681,80.316 671.462,80.316 671.462,74.097 665.244,74.097 
			665.244,67.878 659.025,67.878 659.025,61.66 652.806,61.66 652.806,80.316 652.806,86.535 646.587,86.535 646.587,98.972 
			652.806,98.972 652.806,111.41 646.587,111.41 646.587,117.628 634.15,117.628 634.15,123.847 627.931,123.847 627.931,130.066 
			590.619,130.066 590.619,123.847 565.744,123.847 565.744,130.066 559.525,130.066 559.525,136.285 553.306,136.285 
			553.306,173.597 559.525,173.597 559.525,192.253 553.306,192.253 553.306,198.472 559.525,198.472 559.525,204.691 
			565.744,204.691 565.744,235.785 571.962,235.785 571.962,192.253 578.181,192.253 578.181,186.035 584.4,186.035 584.4,179.816 
			596.837,179.816 621.712,179.816 621.712,186.035 627.931,186.035 627.931,192.253 627.931,198.472 634.15,198.472 
			634.15,235.785 640.369,235.785 640.369,186.035 646.587,186.035 646.587,179.816 652.806,179.816 652.806,173.597 
			659.025,173.597 659.025,161.16 665.244,161.16 665.244,154.941 671.462,154.941 671.462,111.41 677.681,111.41 677.681,105.191 
			690.119,105.191 690.119,98.972 696.337,98.972 696.337,86.535 		"/>
		<polygon style="fill:#754F26;" points="584.4,179.816 584.4,173.597 590.619,173.597 590.619,161.16 596.837,161.16 
			596.837,154.941 603.056,154.941 603.056,161.16 609.275,161.16 609.275,167.378 615.494,167.378 615.494,173.597 
			621.712,173.597 621.712,179.816 627.931,179.816 627.931,186.035 621.712,186.035 621.712,179.816 		"/>
		<polygon style="fill:#E2AE6A;" points="659.025,74.097 652.806,74.097 652.806,86.535 659.025,86.535 659.025,80.316 
			665.244,80.316 665.244,74.097 		"/>
		<rect x="665.244" y="86.535" style="fill:#28211C;" width="6.219" height="6.219"/>
		<polygon style="fill:#28211C;" points="671.462,80.316 671.462,74.097 671.462,67.878 665.244,67.878 665.244,61.66 
			659.025,61.66 659.025,55.441 652.806,55.441 652.806,49.222 659.025,49.222 659.025,55.441 665.244,55.441 665.244,61.66 
			671.462,61.66 671.462,67.878 677.681,67.878 677.681,80.316 		"/>
	</g>
	<g>
		<polygon style="fill:#28211C;" points="173.906,391.253 173.906,397.472 167.688,397.472 167.688,403.691 161.469,403.691 
			161.469,441.003 155.25,441.003 155.25,409.909 149.031,409.909 149.031,391.253 		"/>
		<polygon style="fill:#28211C;" points="99.282,397.472 99.282,403.691 93.063,403.691 93.063,409.909 86.844,409.909 
			86.844,441.003 80.625,441.003 80.625,397.472 		"/>
		<polygon style="fill:#9B3A38;" points="55.75,347.722 49.532,347.722 49.532,378.816 43.313,378.816 43.313,366.378 
			37.094,366.378 37.094,372.597 37.094,385.034 55.75,385.034 		"/>
		<polygon style="fill:#9B3A38;" points="236.094,341.503 236.094,335.284 229.875,335.284 229.875,329.066 223.656,329.066 
			223.656,322.847 198.781,322.847 198.781,329.066 186.344,329.066 161.469,329.066 161.469,322.847 142.813,322.847 
			142.813,329.066 124.157,329.066 124.157,322.847 111.719,322.847 111.719,316.628 68.188,316.628 68.188,329.066 61.969,329.066 
			61.969,335.284 55.75,335.284 55.75,366.378 61.969,366.378 61.969,385.034 61.969,409.909 68.188,409.909 68.188,416.128 
			74.407,416.128 74.407,447.222 80.625,447.222 80.625,409.909 86.844,409.909 86.844,403.691 93.063,403.691 93.063,397.472 
			130.375,397.472 130.375,409.909 136.594,409.909 136.594,416.128 142.813,416.128 142.813,447.222 149.031,447.222 
			149.031,403.691 155.25,403.691 155.25,397.472 161.469,397.472 161.469,391.253 180.125,391.253 180.125,385.034 
			198.781,385.034 198.781,378.816 205,378.816 205,372.597 223.656,372.597 223.656,366.378 229.875,366.378 229.875,360.159 
			236.094,360.159 236.094,353.941 248.531,353.941 248.531,341.503 		"/>
		<polygon style="fill:#722626;" points="236.094,341.503 229.875,341.503 229.875,347.722 223.656,347.722 223.656,353.941 
			229.875,353.941 229.875,360.159 236.094,360.159 236.094,353.941 248.531,353.941 248.531,341.503 		"/>
		<polygon style="fill:#949AAF;" points="223.656,329.066 223.656,322.847 217.438,322.847 217.438,316.628 211.219,316.628 
			211.219,322.847 205,322.847 205,335.284 198.781,335.284 198.781,341.503 192.563,341.503 192.563,335.284 186.344,335.284 
			186.344,322.847 180.125,322.847 180.125,329.066 180.125,335.284 186.344,335.284 186.344,341.503 192.563,341.503 
			192.563,347.722 198.781,347.722 198.781,341.503 205,341.503 205,335.284 211.219,335.284 211.219,329.066 		"/>
		<polygon style="fill:#722626;" points="93.063,397.472 93.063,391.253 99.282,391.253 99.282,372.597 105.5,372.597 
			105.5,366.378 111.719,366.378 111.719,372.597 105.5,372.597 105.5,391.253 99.282,391.253 99.282,397.472 		"/>
		<polygon style="fill:#722626;" points="155.25,397.472 155.25,391.253 161.469,391.253 161.469,372.597 167.688,372.597 
			167.688,391.253 161.469,391.253 161.469,397.472 		"/>
		<rect x="217.438" y="335.284" style="fill:#28211C;" width="6.219" height="6.219"/>
		<rect x="242.313" y="341.503" style="fill:#28211C;" width="6.219" height="6.219"/>
	</g>
	<g>
		<polygon style="fill:#28211C;" points="590.619,391.253 590.619,397.472 584.4,397.472 584.4,403.691 578.181,403.691 
			578.181,434.784 584.4,434.784 584.4,441.003 571.962,441.003 571.962,409.909 565.744,409.909 565.744,391.253 		"/>
		<polygon style="fill:#28211C;" points="677.681,372.597 677.681,378.816 671.462,378.816 671.462,385.034 671.462,391.253 
			665.244,391.253 665.244,397.472 659.025,397.472 659.025,434.784 665.244,434.784 665.244,441.003 652.806,441.003 
			652.806,372.597 		"/>
		<polygon style="fill:#513418;" points="590.619,341.503 590.619,335.284 559.525,335.284 559.525,341.503 553.306,341.503 
			553.306,347.722 547.087,347.722 547.087,360.159 540.869,360.159 540.869,366.378 540.869,372.597 590.619,372.597 		"/>
		<polygon style="fill:#513418;" points="714.994,341.503 714.994,329.066 708.775,329.066 708.775,322.847 696.337,322.847 
			696.337,316.628 690.119,316.628 690.119,310.409 683.9,310.409 683.9,322.847 671.462,322.847 671.462,329.066 665.244,329.066 
			665.244,335.284 652.806,335.284 652.806,329.066 621.712,329.066 621.712,335.284 609.275,335.284 609.275,341.503 
			584.4,341.503 559.525,341.503 559.525,353.941 553.306,353.941 553.306,360.159 547.087,360.159 547.087,372.597 
			540.869,372.597 540.869,397.472 547.087,397.472 547.087,409.909 553.306,409.909 553.306,422.347 559.525,422.347 
			559.525,447.222 571.962,447.222 571.962,441.003 565.744,441.003 565.744,403.691 571.962,403.691 578.181,403.691 
			578.181,397.472 584.4,397.472 584.4,391.253 596.837,391.253 596.837,397.472 627.931,397.472 627.931,416.128 634.15,416.128 
			634.15,422.347 640.369,422.347 640.369,447.222 652.806,447.222 652.806,441.003 646.587,441.003 646.587,403.691 
			652.806,403.691 652.806,397.472 659.025,397.472 659.025,391.253 665.244,391.253 665.244,385.034 671.462,385.034 
			671.462,372.597 677.681,372.597 677.681,366.378 683.9,366.378 683.9,360.159 690.119,360.159 702.556,360.159 702.556,366.378 
			714.994,366.378 714.994,360.159 721.212,360.159 721.212,341.503 		"/>
		<polygon style="fill:#513418;" points="547.087,347.722 540.869,347.722 540.869,341.503 534.65,341.503 534.65,372.597 
			528.431,372.597 528.431,378.816 515.994,378.816 515.994,366.378 522.212,366.378 522.212,372.597 528.431,372.597 
			528.431,366.378 528.431,335.284 540.869,335.284 540.869,341.503 547.087,341.503 		"/>
		<rect x="690.119" y="335.284" style="fill:#28211C;" width="6.219" height="6.219"/>
		<polygon style="fill:#382210;" points="721.212,341.503 714.994,341.503 714.994,347.722 702.556,347.722 696.337,347.722 
			696.337,353.941 702.556,353.941 702.556,366.378 714.994,366.378 714.994,360.159 721.212,360.159 		"/>
		<polygon style="fill:#382210;" points="621.712,378.816 621.712,385.034 627.931,385.034 627.931,397.472 627.931,403.691 
			634.15,403.691 640.369,403.691 640.369,397.472 634.15,397.472 634.15,385.034 627.931,385.034 627.931,378.816 		"/>
		<polygon style="fill:#382210;" points="578.181,397.472 578.181,391.253 584.4,391.253 584.4,378.816 590.619,378.816 
			590.619,391.253 584.4,391.253 584.4,397.472 		"/>
		<rect x="714.994" y="347.722" style="fill:#28211C;" width="6.219" height="6.219"/>
	</g>
	<g>
		<polygon style="fill:#9B3A38;" points="372.906,335.284 360.469,335.284 360.469,329.066 354.25,329.066 354.25,304.191 
			348.031,304.191 348.031,297.972 341.813,297.972 341.813,291.753 329.375,291.753 329.375,297.972 323.156,297.972 
			323.156,304.191 316.938,304.191 316.938,316.628 323.156,316.628 323.156,322.847 329.375,322.847 329.375,335.284 
			335.594,335.284 335.594,353.941 372.906,353.941 		"/>
		<polygon style="fill:#28211C;" points="335.594,353.941 329.375,353.941 329.375,360.159 329.375,378.816 335.594,378.816 
			335.594,385.034 341.813,385.034 341.813,391.253 348.031,391.253 348.031,397.472 354.25,397.472 354.25,403.691 
			366.688,403.691 366.688,353.941 		"/>
		<polygon style="fill:#382210;" points="379.125,335.284 372.906,335.284 372.906,341.503 360.469,341.503 360.469,347.722 
			348.031,347.722 348.031,353.941 335.594,353.941 335.594,360.159 335.594,372.597 341.813,372.597 341.813,378.816 
			348.031,378.816 348.031,385.034 348.031,391.253 354.25,391.253 354.25,397.472 360.469,397.472 360.469,403.691 
			366.688,403.691 366.688,409.909 372.906,409.909 372.906,416.128 385.344,416.128 385.344,422.347 391.563,422.347 404,422.347 
			404,416.128 404,335.284 		"/>
		<polygon style="fill:#FFFFFF;" points="372.906,341.503 366.688,341.503 366.688,347.722 360.469,347.722 360.469,360.159 
			354.25,360.159 354.25,366.378 372.906,366.378 		"/>
		<polygon style="fill:#513418;" points="404,335.284 379.125,335.284 379.125,341.503 372.906,341.503 372.906,347.722 
			366.688,347.722 366.688,360.159 360.469,360.159 360.469,366.378 360.469,378.816 366.688,378.816 366.688,385.034 
			372.906,385.034 372.906,391.253 379.125,391.253 379.125,397.472 385.344,397.472 385.344,403.691 391.563,403.691 
			391.563,409.909 397.781,409.909 404,409.909 404,416.128 422.656,416.128 422.656,422.347 428.875,422.347 428.875,428.566 
			435.094,428.566 435.094,434.784 453.75,434.784 453.75,441.003 459.969,441.003 459.969,409.909 453.75,409.909 453.75,391.253 
			447.531,391.253 447.531,378.816 441.313,378.816 441.313,360.159 435.094,360.159 435.094,353.941 428.875,353.941 
			428.875,347.722 422.656,347.722 422.656,341.503 410.219,341.503 410.219,335.284 		"/>
		<polygon style="fill:#28211C;" points="323.156,310.409 316.938,310.409 316.938,316.628 310.719,316.628 310.719,322.847 
			316.938,322.847 323.156,322.847 		"/>
		<rect x="329.375" y="304.191" style="fill:#28211C;" width="6.219" height="6.219"/>
		<polygon style="fill:#F0923D;" points="404,422.347 397.781,422.347 397.781,428.566 391.563,428.566 391.563,434.784 
			385.344,434.784 385.344,441.003 379.125,441.003 379.125,447.222 385.344,447.222 385.344,441.003 391.563,441.003 
			391.563,447.222 397.781,447.222 397.781,441.003 391.563,441.003 391.563,434.784 397.781,434.784 397.781,428.566 404,428.566 
					"/>
		<polygon style="fill:#F0923D;" points="385.344,422.347 379.125,422.347 379.125,428.566 372.906,428.566 372.906,434.784 
			366.688,434.784 366.688,441.003 360.469,441.003 360.469,447.222 366.688,447.222 366.688,441.003 372.906,441.003 
			372.906,447.222 379.125,447.222 379.125,441.003 372.906,441.003 372.906,434.784 379.125,434.784 379.125,428.566 
			385.344,428.566 		"/>
		<polygon style="fill:#754F26;" points="385.344,378.816 391.563,378.816 391.563,385.034 397.781,385.034 397.781,391.253 
			416.438,391.253 416.438,385.034 422.656,385.034 422.656,391.253 416.438,391.253 416.438,397.472 397.781,397.472 
			397.781,391.253 391.563,391.253 391.563,385.034 385.344,385.034 		"/>
		<polygon style="fill:#382210;" points="416.438,416.128 416.438,409.909 422.656,409.909 422.656,416.128 428.875,416.128 
			428.875,422.347 435.094,422.347 435.094,428.566 453.75,428.566 453.75,422.347 459.969,422.347 459.969,441.003 453.75,441.003 
			453.75,434.784 435.094,434.784 435.094,428.566 428.875,428.566 428.875,422.347 422.656,422.347 422.656,416.128 		"/>
	</g>
	<g>
		<g>
			<rect x="470.714" y="235.785" style="fill:#FFFFFF;" width="6.219" height="6.219"/>
			<rect x="476.933" y="235.785" style="fill:#FFFFFF;" width="6.219" height="6.219"/>
			<rect x="483.152" y="235.785" style="fill:#FFFFFF;" width="6.219" height="6.219"/>
			<rect x="476.933" y="229.566" style="fill:#FFFFFF;" width="6.219" height="6.219"/>
			<rect x="483.152" y="229.566" style="fill:#FFFFFF;" width="6.219" height="6.219"/>
			<rect x="489.371" y="235.785" style="fill:#FFFFFF;" width="6.219" height="6.219"/>
			<rect x="495.589" y="235.785" style="fill:#FFFFFF;" width="6.219" height="6.219"/>
		</g>
		<g>
			<rect x="288.953" y="108.3" style="fill:#FFFFFF;" width="6.219" height="6.219"/>
			<rect x="295.172" y="108.3" style="fill:#FFFFFF;" width="6.219" height="6.219"/>
			<rect x="301.391" y="108.3" style="fill:#FFFFFF;" width="6.219" height="6.219"/>
			<rect x="295.172" y="102.081" style="fill:#FFFFFF;" width="6.219" height="6.219"/>
			<rect x="301.391" y="102.081" style="fill:#FFFFFF;" width="6.219" height="6.219"/>
			<rect x="307.61" y="108.3" style="fill:#FFFFFF;" width="6.219" height="6.219"/>
			<rect x="313.828" y="108.3" style="fill:#FFFFFF;" width="6.219" height="6.219"/>
		</g>
		<g>
			<rect x="232.985" y="287.285" style="fill:#FFFFFF;" width="6.219" height="6.219"/>
			<rect x="239.203" y="287.285" style="fill:#FFFFFF;" width="6.219" height="6.219"/>
			<rect x="245.422" y="287.285" style="fill:#FFFFFF;" width="6.219" height="6.219"/>
			<rect x="239.203" y="281.067" style="fill:#FFFFFF;" width="6.219" height="6.219"/>
			<rect x="245.422" y="281.067" style="fill:#FFFFFF;" width="6.219" height="6.219"/>
			<rect x="251.641" y="287.285" style="fill:#FFFFFF;" width="6.219" height="6.219"/>
			<rect x="257.86" y="287.285" style="fill:#FFFFFF;" width="6.219" height="6.219"/>
		</g>
		<g>
			<rect x="553.306" y="284.176" style="fill:#FFFFFF;" width="6.219" height="6.219"/>
			<rect x="559.525" y="284.176" style="fill:#FFFFFF;" width="6.219" height="6.219"/>
			<rect x="565.744" y="284.176" style="fill:#FFFFFF;" width="6.219" height="6.219"/>
			<rect x="559.525" y="277.957" style="fill:#FFFFFF;" width="6.219" height="6.219"/>
			<rect x="565.744" y="277.957" style="fill:#FFFFFF;" width="6.219" height="6.219"/>
			<rect x="571.962" y="277.957" style="fill:#FFFFFF;" width="6.219" height="6.219"/>
			<rect x="565.744" y="271.738" style="fill:#FFFFFF;" width="6.219" height="6.219"/>
			<rect x="571.962" y="284.176" style="fill:#FFFFFF;" width="6.219" height="6.219"/>
			<rect x="578.181" y="284.176" style="fill:#FFFFFF;" width="6.219" height="6.219"/>
			<rect x="578.181" y="277.957" style="fill:#FFFFFF;" width="6.219" height="6.219"/>
			<rect x="584.4" y="284.176" style="fill:#FFFFFF;" width="6.219" height="6.219"/>
			<rect x="590.619" y="284.176" style="fill:#FFFFFF;" width="6.219" height="6.219"/>
		</g>
		<g>
			<rect x="519.103" y="50.422" style="fill:#FFFFFF;" width="6.219" height="6.219"/>
			<rect x="525.322" y="50.422" style="fill:#FFFFFF;" width="6.219" height="6.219"/>
			<rect x="531.541" y="50.422" style="fill:#FFFFFF;" width="6.219" height="6.219"/>
			<rect x="525.322" y="44.203" style="fill:#FFFFFF;" width="6.219" height="6.219"/>
			<rect x="531.541" y="44.203" style="fill:#FFFFFF;" width="6.219" height="6.219"/>
			<rect x="537.759" y="44.203" style="fill:#FFFFFF;" width="6.219" height="6.219"/>
			<rect x="531.541" y="37.985" style="fill:#FFFFFF;" width="6.219" height="6.219"/>
			<rect x="537.759" y="50.422" style="fill:#FFFFFF;" width="6.219" height="6.219"/>
			<rect x="543.978" y="50.422" style="fill:#FFFFFF;" width="6.219" height="6.219"/>
			<rect x="543.978" y="44.203" style="fill:#FFFFFF;" width="6.219" height="6.219"/>
			<rect x="550.197" y="50.422" style="fill:#FFFFFF;" width="6.219" height="6.219"/>
			<rect x="556.416" y="50.422" style="fill:#FFFFFF;" width="6.219" height="6.219"/>
		</g>
		<g>
			<rect x="180.125" y="263.79" style="fill:#FFFFFF;" width="6.219" height="6.219"/>
			<rect x="186.344" y="263.79" style="fill:#FFFFFF;" width="6.219" height="6.219"/>
			<rect x="192.563" y="263.79" style="fill:#FFFFFF;" width="6.219" height="6.219"/>
			<rect x="186.344" y="257.572" style="fill:#FFFFFF;" width="6.219" height="6.219"/>
			<rect x="192.563" y="257.572" style="fill:#FFFFFF;" width="6.219" height="6.219"/>
			<rect x="198.781" y="257.572" style="fill:#FFFFFF;" width="6.219" height="6.219"/>
			<rect x="192.563" y="251.353" style="fill:#FFFFFF;" width="6.219" height="6.219"/>
			<rect x="198.781" y="263.79" style="fill:#FFFFFF;" width="6.219" height="6.219"/>
			<rect x="205" y="263.79" style="fill:#FFFFFF;" width="6.219" height="6.219"/>
			<rect x="205" y="257.572" style="fill:#FFFFFF;" width="6.219" height="6.219"/>
			<rect x="211.219" y="263.79" style="fill:#FFFFFF;" width="6.219" height="6.219"/>
			<rect x="217.438" y="263.79" style="fill:#FFFFFF;" width="6.219" height="6.219"/>
		</g>
	</g>
</g>
</svg>
