<?xml version="1.0" encoding="utf-8"?>
<!-- Generator: Adobe Illustrator 27.5.0, SVG Export Plug-In . SVG Version: 6.00 Build 0)  -->
<svg version="1.1" xmlns="http://www.w3.org/2000/svg" xmlns:xlink="http://www.w3.org/1999/xlink" x="0px" y="0px"
	 viewBox="0 0 750 500" style="enable-background:new 0 0 750 500;" xml:space="preserve">
<g id="BACKGROUND">
	<rect style="fill:#FFD3A3;" width="750" height="500"/>
</g>
<g id="OBJECTS">
	<g>
		<polygon style="fill:#1F1A16;" points="90.345,81.742 82.608,81.742 82.608,120.427 90.345,120.427 90.345,128.163 
			98.082,128.163 98.082,135.9 105.819,135.9 105.819,143.637 113.556,143.637 113.556,81.742 		"/>
		<polygon style="fill:#28211C;" points="175.45,174.585 175.45,166.848 167.714,166.848 167.714,159.111 175.45,159.111 
			175.45,151.374 175.45,143.637 175.45,128.163 167.714,128.163 167.714,120.427 167.714,112.69 159.977,112.69 159.977,97.216 
			152.24,97.216 152.24,89.479 144.503,89.479 144.503,81.742 144.503,43.058 144.503,35.321 136.766,35.321 121.293,35.321 
			121.293,43.058 105.819,43.058 105.819,50.795 98.082,50.795 98.082,66.269 90.345,66.269 90.345,104.953 98.082,104.953 
			98.082,120.427 105.819,120.427 105.819,135.9 113.556,135.9 113.556,143.637 121.293,143.637 121.293,151.374 121.293,159.111 
			129.029,159.111 129.029,166.848 121.293,166.848 121.293,174.585 113.556,174.585 113.556,205.532 121.293,205.532 
			121.293,213.269 129.029,213.269 129.029,205.532 136.766,205.532 136.766,213.269 144.503,213.269 144.503,221.006 
			152.24,221.006 152.24,213.269 159.977,213.269 159.977,205.532 167.714,205.532 167.714,213.269 175.45,213.269 175.45,205.532 
			183.187,205.532 183.187,174.585 		"/>
		<polygon style="fill:#1F1A16;" points="136.766,104.953 136.766,112.69 144.503,112.69 144.503,120.427 152.24,120.427 
			152.24,135.9 159.977,135.9 159.977,151.374 167.714,151.374 167.714,159.111 175.45,159.111 175.45,128.163 167.714,128.163 
			167.714,112.69 159.977,112.69 159.977,97.216 152.24,97.216 152.24,89.479 144.503,89.479 144.503,104.953 		"/>
		<polygon style="fill:#FFFFFF;" points="144.503,43.058 121.293,43.058 121.293,50.795 113.556,50.795 113.556,58.532 
			105.819,58.532 105.819,66.269 98.082,66.269 98.082,89.479 105.819,89.479 105.819,97.216 113.556,97.216 113.556,104.953 
			121.293,104.953 121.293,112.69 136.766,112.69 136.766,104.953 144.503,104.953 		"/>
		<polygon style="fill:#FFD54D;" points="121.293,43.058 121.293,58.532 129.029,58.532 129.029,66.269 136.766,66.269 
			136.766,58.532 144.503,58.532 144.503,43.058 		"/>
		<path style="fill:#FFB031;" d="M198.661,66.269v-7.737h-7.737v-7.737h-7.737h-7.737v-7.737h-15.474h-15.474c0,0,0,4.835,0,7.737
			h-7.737v15.474h7.737c0,2.901,0,7.737,0,7.737h7.737h23.21v7.737h7.737v7.737h7.737v7.737h7.737v-7.737h7.737v-7.737V66.269
			H198.661z"/>
		<polygon style="fill:#F0923D;" points="136.766,58.532 144.503,58.532 144.503,66.269 175.45,66.269 175.45,74.006 
			183.187,74.006 183.187,81.742 190.924,81.742 190.924,89.479 183.187,89.479 183.187,81.742 175.45,81.742 175.45,74.006 
			144.503,74.006 144.503,66.269 136.766,66.269 		"/>
		<rect x="129.029" y="50.795" style="fill:#28211C;" width="7.737" height="7.737"/>
		<rect x="82.608" y="159.111" style="fill:#754F26;" width="116.053" height="15.474"/>
		<rect x="82.608" y="159.111" style="fill:#513418;" width="116.053" height="7.737"/>
		<g>
			<rect x="113.556" y="159.111" style="fill:#F0923D;" width="7.737" height="7.737"/>
			<rect x="98.082" y="159.111" style="fill:#F0923D;" width="7.737" height="7.737"/>
			<rect x="105.819" y="151.374" style="fill:#F0923D;" width="7.737" height="7.737"/>
			<rect x="113.556" y="143.637" style="fill:#F0923D;" width="7.737" height="7.737"/>
		</g>
		<g>
			<rect x="144.503" y="159.111" style="fill:#F0923D;" width="7.737" height="7.737"/>
			<rect x="129.029" y="159.111" style="fill:#F0923D;" width="7.737" height="7.737"/>
			<rect x="136.766" y="151.374" style="fill:#F0923D;" width="7.737" height="7.737"/>
			<rect x="144.503" y="143.637" style="fill:#F0923D;" width="7.737" height="7.737"/>
		</g>
	</g>
	<g>
		<g>
			<polygon style="fill:#AA7A41;" points="415.292,205.532 361.135,205.532 361.135,197.795 330.187,197.795 330.187,190.058 
				322.45,190.058 322.45,182.321 314.714,182.321 306.977,182.321 306.977,174.585 299.24,174.585 299.24,159.111 337.924,159.111 
				337.924,166.848 345.661,166.848 345.661,174.585 384.345,174.585 384.345,182.321 399.819,182.321 415.292,182.321 			"/>
			<polygon style="fill:#754F26;" points="415.292,197.795 384.345,197.795 361.135,197.795 361.135,190.058 330.187,190.058 
				330.187,182.321 322.45,182.321 322.45,174.585 306.977,174.585 306.977,166.848 299.24,166.848 299.24,174.585 306.977,174.585 
				306.977,182.321 322.45,182.321 322.45,190.058 330.187,190.058 330.187,197.795 361.135,197.795 361.135,205.532 
				415.292,205.532 			"/>
		</g>
		<g>
			<polygon style="fill:#9B3A38;" points="322.45,104.953 322.45,89.479 322.45,58.532 322.45,50.795 330.187,50.795 
				330.187,35.321 337.924,35.321 337.924,27.584 345.661,27.584 345.661,19.848 353.398,19.848 361.135,19.848 361.135,27.584 
				368.871,27.584 368.871,43.058 361.135,43.058 361.135,50.795 376.608,50.795 376.608,58.532 368.871,58.532 368.871,66.269 
				368.871,74.006 376.608,74.006 376.608,89.479 376.608,97.216 384.345,97.216 392.082,97.216 392.082,104.953 399.819,104.953 
				399.819,112.69 407.556,112.69 407.556,120.427 415.292,120.427 415.292,135.9 423.029,135.9 423.029,128.163 446.24,128.163 
				446.24,135.9 453.977,135.9 453.977,143.637 469.45,143.637 469.45,151.374 477.187,151.374 477.187,159.111 469.45,159.111 
				469.45,166.848 461.714,166.848 461.714,174.585 453.977,174.585 453.977,182.321 446.24,182.321 446.24,174.585 
				430.766,174.585 430.766,166.848 423.029,166.848 423.029,159.111 407.556,159.111 407.556,166.848 399.819,166.848 
				399.819,174.585 392.082,174.585 392.082,182.321 353.398,182.321 353.398,174.585 345.661,174.585 345.661,166.848 
				337.924,166.848 337.924,159.111 330.187,159.111 330.187,151.374 322.45,151.374 322.45,143.637 314.714,143.637 
				314.714,104.953 			"/>
			<polygon style="fill:#28211C;" points="322.45,58.532 330.187,58.532 330.187,66.269 337.924,66.269 337.924,74.006 
				345.661,74.006 345.661,89.479 337.924,89.479 337.924,97.216 330.187,97.216 330.187,112.69 322.45,112.69 322.45,120.427 
				314.714,120.427 314.714,104.953 322.45,104.953 			"/>
			<polygon style="fill:#FFB031;" points="322.45,58.532 314.714,58.532 314.714,66.269 299.24,66.269 299.24,74.006 
				291.503,74.006 291.503,81.742 299.24,81.742 299.24,89.479 306.977,89.479 306.977,97.216 314.714,97.216 322.45,97.216 
				322.45,89.479 330.187,89.479 330.187,74.006 322.45,74.006 			"/>
			<polygon style="fill:#F0923D;" points="330.187,81.742 322.45,81.742 322.45,89.479 306.977,89.479 306.977,81.742 
				299.24,81.742 299.24,89.479 306.977,89.479 306.977,97.216 322.45,97.216 322.45,89.479 330.187,89.479 			"/>
			
				<rect x="337.924" y="66.269" transform="matrix(-1 -1.224647e-16 1.224647e-16 -1 683.585 140.2743)" style="fill:#FFFFFF;" width="7.737" height="7.737"/>
			<polygon style="fill:#873331;" points="399.819,166.848 392.082,166.848 392.082,174.585 353.398,174.585 353.398,166.848 
				345.661,166.848 345.661,159.111 337.924,159.111 337.924,151.374 330.187,151.374 330.187,143.637 322.45,143.637 322.45,135.9 
				322.45,120.427 330.187,120.427 330.187,112.69 322.45,112.69 322.45,120.427 314.714,120.427 314.714,143.637 322.45,143.637 
				322.45,151.374 330.187,151.374 330.187,159.111 337.924,159.111 337.924,166.848 345.661,166.848 345.661,174.585 
				353.398,174.585 353.398,182.321 392.082,182.321 392.082,174.585 399.819,174.585 			"/>
			<polygon style="fill:#873331;" points="469.45,159.111 461.714,159.111 461.714,166.848 453.977,166.848 453.977,174.585 
				446.24,174.585 446.24,166.848 430.766,166.848 430.766,159.111 423.029,159.111 423.029,151.374 415.292,151.374 
				415.292,159.111 423.029,159.111 423.029,166.848 430.766,166.848 430.766,174.585 446.24,174.585 446.24,182.321 
				453.977,182.321 453.977,174.585 461.714,174.585 461.714,166.848 469.45,166.848 			"/>
			<g>
				<rect x="392.082" y="151.374" style="fill:#722626;" width="7.737" height="7.737"/>
				<rect x="376.608" y="143.637" style="fill:#722626;" width="15.474" height="7.737"/>
				<polygon style="fill:#722626;" points="376.608,143.637 368.871,143.637 361.135,143.637 361.135,135.9 368.871,135.9 
					368.871,128.163 376.608,128.163 				"/>
				<rect x="353.398" y="112.69" style="fill:#722626;" width="7.737" height="7.737"/>
				<rect x="361.135" y="120.427" style="fill:#722626;" width="7.737" height="7.737"/>
			</g>
			<g>
				<rect x="384.345" y="174.585" style="fill:#FFB031;" width="7.737" height="7.737"/>
				<rect x="376.608" y="182.321" style="fill:#FFB031;" width="7.737" height="7.737"/>
				<rect x="368.871" y="190.058" style="fill:#FFB031;" width="7.737" height="7.737"/>
				<rect x="376.608" y="197.795" style="fill:#FFB031;" width="7.737" height="7.737"/>
				<rect x="361.135" y="197.795" style="fill:#FFB031;" width="7.737" height="7.737"/>
			</g>
			<g>
				<rect x="353.398" y="166.848" style="fill:#FFB031;" width="7.737" height="7.737"/>
				<rect x="345.661" y="174.585" style="fill:#FFB031;" width="7.737" height="7.737"/>
				<rect x="337.924" y="182.321" style="fill:#FFB031;" width="7.737" height="7.737"/>
				<rect x="345.661" y="190.058" style="fill:#FFB031;" width="7.737" height="7.737"/>
				<rect x="330.187" y="190.058" style="fill:#FFB031;" width="7.737" height="7.737"/>
			</g>
		</g>
	</g>
	<g>
		<g>
			<g>
				<polygon style="fill:#AA7A41;" points="206.398,344.795 214.135,344.795 214.135,352.532 229.608,352.532 229.608,375.742 
					221.871,375.742 221.871,383.479 214.135,383.479 214.135,391.216 206.398,391.216 206.398,406.69 175.45,406.69 
					175.45,414.427 152.24,414.427 144.503,414.427 144.503,422.164 136.766,422.164 129.029,422.164 129.029,429.9 98.082,429.9 
					98.082,375.742 183.187,375.742 183.187,344.795 				"/>
			</g>
			<polygon style="fill:#754F26;" points="98.082,414.427 129.029,414.427 129.029,406.69 159.977,406.69 175.45,406.69 
				175.45,398.953 198.661,398.953 198.661,391.216 206.398,391.216 206.398,383.479 214.135,383.479 214.135,375.742 
				221.871,375.742 221.871,360.269 229.608,360.269 229.608,375.742 221.871,375.742 221.871,383.479 214.135,383.479 
				214.135,391.216 206.398,391.216 206.398,398.953 198.661,398.953 198.661,406.69 175.45,406.69 175.45,414.427 144.503,414.427 
				144.503,422.164 129.029,422.164 129.029,429.9 98.082,429.9 			"/>
		</g>
		<polygon style="fill:#9B3A38;" points="121.293,383.479 121.293,398.953 113.556,398.953 113.556,406.69 105.819,406.69 
			105.819,414.427 98.082,414.427 98.082,422.164 90.345,422.164 90.345,429.9 74.871,429.9 74.871,437.637 67.135,437.637 
			67.135,429.9 59.398,429.9 59.398,422.164 51.661,422.164 51.661,414.427 74.871,414.427 74.871,383.479 		"/>
		<polygon style="fill:#FFB031;" points="167.714,267.427 159.977,267.427 159.977,275.164 152.24,275.164 152.24,282.9 
			136.766,282.9 136.766,298.374 144.503,298.374 144.503,306.111 136.766,306.111 136.766,313.848 129.029,313.848 
			129.029,321.585 121.293,321.585 121.293,329.321 113.556,329.321 113.556,337.058 105.819,337.058 105.819,344.795 
			98.082,344.795 98.082,368.006 82.608,368.006 82.608,375.742 74.871,375.742 74.871,383.479 59.398,383.479 59.398,391.216 
			51.661,391.216 51.661,398.953 43.924,398.953 43.924,414.427 51.661,414.427 51.661,422.164 82.608,422.164 82.608,414.427 
			90.345,414.427 98.082,414.427 98.082,406.69 105.819,406.69 105.819,398.953 113.556,398.953 113.556,391.216 113.556,383.479 
			129.029,383.479 129.029,391.216 175.45,391.216 175.45,383.479 183.187,383.479 183.187,375.742 190.924,375.742 
			190.924,368.006 198.661,368.006 198.661,360.269 206.398,360.269 206.398,352.532 206.398,344.795 206.398,337.058 
			214.135,337.058 214.135,313.848 206.398,313.848 206.398,298.374 206.398,290.637 214.135,290.637 214.135,267.427 
			206.398,267.427 206.398,275.164 198.661,275.164 198.661,251.953 190.924,251.953 190.924,259.69 183.187,259.69 
			183.187,244.216 175.45,244.216 175.45,251.953 167.714,251.953 		"/>
		<polygon style="fill:#FFFFFF;" points="144.503,306.111 144.503,313.848 152.24,313.848 152.24,321.585 159.977,321.585 
			159.977,337.058 167.714,337.058 167.714,344.795 175.45,344.795 175.45,352.532 183.187,352.532 190.924,352.532 
			190.924,360.269 206.398,360.269 206.398,337.058 214.135,337.058 214.135,313.848 206.398,313.848 206.398,290.637 
			214.135,290.637 214.135,267.427 206.398,267.427 206.398,275.164 198.661,275.164 198.661,251.953 190.924,251.953 
			190.924,259.69 183.187,259.69 183.187,244.216 175.45,244.216 175.45,251.953 167.714,251.953 167.714,267.427 159.977,267.427 
			159.977,275.164 152.24,275.164 152.24,282.9 136.766,282.9 136.766,298.374 144.503,298.374 		"/>
		<polygon style="fill:#CACEE0;" points="152.24,298.374 152.24,306.111 159.977,306.111 159.977,313.848 175.45,313.848 
			175.45,321.585 183.187,321.585 183.187,313.848 190.924,313.848 190.924,306.111 198.661,306.111 198.661,290.637 
			190.924,290.637 190.924,282.9 190.924,267.427 183.187,267.427 183.187,259.69 167.714,259.69 167.714,267.427 159.977,267.427 
			159.977,275.164 152.24,275.164 		"/>
		<rect x="167.714" y="275.164" style="fill:#28211C;" width="7.737" height="7.737"/>
		<polygon style="fill:#9B3A38;" points="152.24,282.9 152.24,275.164 136.766,275.164 136.766,282.9 121.293,282.9 
			121.293,290.637 129.029,290.637 129.029,298.374 136.766,298.374 136.766,306.111 152.24,306.111 152.24,298.374 
			159.977,298.374 159.977,282.9 		"/>
		<polygon style="fill:#722626;" points="129.029,290.637 136.766,290.637 136.766,298.374 152.24,298.374 152.24,306.111 
			136.766,306.111 136.766,298.374 129.029,298.374 		"/>
		<polygon style="fill:#F0923D;" points="167.714,337.058 167.714,344.795 159.977,344.795 159.977,352.532 152.24,352.532 
			152.24,360.269 144.503,360.269 144.503,368.006 136.766,368.006 136.766,375.742 121.293,375.742 121.293,368.006 
			113.556,368.006 113.556,360.269 121.293,360.269 121.293,368.006 136.766,368.006 136.766,360.269 144.503,360.269 
			144.503,352.532 152.24,352.532 152.24,344.795 159.977,344.795 159.977,337.058 		"/>
		<polygon style="fill:#28211C;" points="144.503,383.479 144.503,391.216 152.24,391.216 152.24,398.953 159.977,398.953 
			159.977,406.69 152.24,406.69 152.24,414.427 159.977,414.427 159.977,406.69 167.714,406.69 167.714,414.427 175.45,414.427 
			175.45,406.69 167.714,406.69 167.714,398.953 159.977,398.953 159.977,391.216 152.24,391.216 152.24,383.479 		"/>
		<polygon style="fill:#28211C;" points="175.45,375.742 175.45,383.479 183.187,383.479 183.187,391.216 190.924,391.216 
			190.924,398.953 183.187,398.953 183.187,406.69 190.924,406.69 190.924,398.953 198.661,398.953 198.661,406.69 206.398,406.69 
			206.398,398.953 198.661,398.953 198.661,391.216 190.924,391.216 190.924,383.479 183.187,383.479 183.187,375.742 		"/>
	</g>
	<g>
		<g>
			<polygon style="fill:#58573B;" points="384.345,275.164 392.082,275.164 392.082,282.9 399.819,282.9 399.819,306.111 
				407.556,306.111 407.556,313.848 415.292,313.848 415.292,321.585 423.029,321.585 423.029,344.795 430.766,344.795 
				430.766,398.953 423.029,398.953 423.029,391.216 415.292,391.216 415.292,383.479 407.556,383.479 407.556,391.216 
				407.556,398.953 415.292,398.953 415.292,414.427 415.292,422.164 415.292,445.374 407.556,445.374 407.556,453.111 
				392.082,453.111 392.082,460.848 384.345,460.848 384.345,453.111 368.871,453.111 368.871,445.374 361.135,445.374 
				361.135,406.69 368.871,406.69 368.871,398.953 376.608,398.953 376.608,383.479 368.871,383.479 368.871,375.742 
				361.135,375.742 361.135,368.006 345.661,368.006 345.661,360.269 337.924,360.269 337.924,329.321 345.661,329.321 
				345.661,321.585 345.661,313.848 353.398,313.848 353.398,306.111 353.398,282.9 345.661,282.9 345.661,275.164 337.924,275.164 
				337.924,267.427 330.187,267.427 330.187,251.953 337.924,251.953 337.924,244.216 368.871,244.216 368.871,251.953 
				376.608,251.953 376.608,259.69 384.345,259.69 			"/>
			<polygon style="fill:#3A3925;" points="368.871,298.374 376.608,298.374 376.608,306.111 384.345,306.111 384.345,298.374 
				392.082,298.374 392.082,306.111 384.345,306.111 384.345,313.848 376.608,313.848 376.608,306.111 368.871,306.111 			"/>
			<polygon style="fill:#FFD54D;" points="430.766,360.269 423.029,360.269 423.029,352.532 415.292,352.532 415.292,360.269 
				407.556,360.269 407.556,368.006 407.556,375.742 407.556,383.479 415.292,383.479 415.292,391.216 423.029,391.216 
				423.029,398.953 430.766,398.953 			"/>
			<rect x="368.871" y="282.9" style="fill:#28211C;" width="7.737" height="7.737"/>
			<polygon style="fill:#3A3925;" points="376.608,329.321 384.345,329.321 384.345,337.058 392.082,337.058 392.082,344.795 
				399.819,344.795 399.819,352.532 407.556,352.532 407.556,368.006 415.292,368.006 415.292,375.742 407.556,375.742 
				407.556,368.006 399.819,368.006 399.819,352.532 392.082,352.532 392.082,344.795 384.345,344.795 384.345,337.058 
				376.608,337.058 			"/>
			<polygon style="fill:#3A3925;" points="345.661,329.321 345.661,352.532 353.398,352.532 353.398,360.269 361.135,360.269 
				361.135,368.006 368.871,368.006 368.871,375.742 361.135,375.742 361.135,368.006 345.661,368.006 345.661,360.269 
				337.924,360.269 337.924,329.321 			"/>
			<polygon style="fill:#FFD54D;" points="361.135,429.9 368.871,429.9 368.871,437.637 376.608,437.637 376.608,445.374 
				384.345,445.374 384.345,453.111 392.082,453.111 392.082,445.374 399.819,445.374 399.819,437.637 407.556,437.637 
				407.556,429.9 415.292,429.9 415.292,445.374 407.556,445.374 407.556,453.111 392.082,453.111 392.082,460.848 384.345,460.848 
				384.345,453.111 368.871,453.111 368.871,445.374 361.135,445.374 361.135,437.637 			"/>
			<polygon style="fill:#3A3925;" points="376.608,414.427 368.871,414.427 368.871,422.164 376.608,422.164 376.608,429.9 
				384.345,429.9 384.345,437.637 392.082,437.637 392.082,429.9 384.345,429.9 384.345,422.164 376.608,422.164 			"/>
			<g>
				<polygon style="fill:#FFB031;" points="353.398,282.9 345.661,282.9 345.661,290.637 330.187,290.637 330.187,298.374 
					322.45,298.374 322.45,306.111 337.924,306.111 337.924,313.848 345.661,313.848 361.135,313.848 361.135,306.111 
					361.135,282.9 				"/>
				<polygon style="fill:#F0923D;" points="330.187,306.111 330.187,298.374 337.924,298.374 337.924,306.111 345.661,306.111 
					353.398,306.111 353.398,298.374 361.135,298.374 361.135,313.848 337.924,313.848 337.924,306.111 				"/>
			</g>
			<polygon style="fill:#7F7D59;" points="330.187,259.69 337.924,259.69 337.924,251.953 368.871,251.953 368.871,259.69 
				376.608,259.69 376.608,267.427 384.345,267.427 384.345,259.69 376.608,259.69 376.608,251.953 368.871,251.953 
				368.871,244.216 337.924,244.216 337.924,251.953 330.187,251.953 			"/>
			<polygon style="fill:#F0923D;" points="430.766,383.479 423.029,383.479 423.029,391.216 423.029,398.953 430.766,398.953 			"/>
		</g>
		<g>
			<polygon style="fill:#754F26;" points="306.977,360.269 322.45,360.269 322.45,368.006 330.187,368.006 337.924,368.006 
				337.924,375.742 353.398,375.742 353.398,383.479 361.135,383.479 361.135,391.216 407.556,391.216 407.556,398.953 
				446.24,398.953 446.24,406.69 453.977,406.69 453.977,429.9 446.24,429.9 438.503,429.9 438.503,437.637 415.292,437.637 
				415.292,429.9 407.556,429.9 407.556,422.164 376.608,422.164 376.608,414.427 353.398,414.427 353.398,406.69 330.187,406.69 
				330.187,398.953 314.714,398.953 314.714,391.216 306.977,391.216 			"/>
			<polygon style="fill:#513418;" points="306.977,368.006 322.45,368.006 322.45,375.742 337.924,375.742 337.924,383.479 
				353.398,383.479 353.398,391.216 361.135,391.216 361.135,398.953 399.819,398.953 399.819,406.69 415.292,406.69 
				415.292,414.427 446.24,414.427 446.24,422.164 453.977,422.164 453.977,406.69 446.24,406.69 446.24,398.953 407.556,398.953 
				407.556,391.216 361.135,391.216 361.135,383.479 353.398,383.479 353.398,375.742 337.924,375.742 337.924,368.006 
				322.45,368.006 322.45,360.269 306.977,360.269 			"/>
		</g>
		<polygon style="fill:#9B3A38;" points="376.608,375.742 368.871,375.742 368.871,383.479 361.135,383.479 361.135,391.216 
			353.398,391.216 353.398,398.953 361.135,398.953 361.135,391.216 368.871,391.216 368.871,398.953 376.608,398.953 
			376.608,391.216 368.871,391.216 368.871,383.479 376.608,383.479 		"/>
		<polygon style="fill:#9B3A38;" points="407.556,383.479 399.819,383.479 399.819,391.216 392.082,391.216 392.082,398.953 
			384.345,398.953 384.345,406.69 392.082,406.69 392.082,398.953 399.819,398.953 399.819,406.69 407.556,406.69 407.556,398.953 
			399.819,398.953 399.819,391.216 407.556,391.216 		"/>
	</g>
	<g>
		<polygon style="fill:#28211C;" points="492.661,112.69 492.661,120.427 500.398,120.427 500.398,128.163 508.135,128.163 
			508.135,135.9 523.608,135.9 523.608,143.637 531.345,143.637 539.082,143.637 539.082,135.9 546.819,135.9 570.029,135.9 
			570.029,112.69 		"/>
		<polygon style="fill:#FFB031;" points="670.608,81.742 670.608,74.006 670.608,66.269 662.871,66.269 662.871,58.532 
			655.135,58.532 655.135,50.795 639.661,50.795 639.661,58.532 631.924,58.532 631.924,66.269 624.187,66.269 624.187,74.006 
			616.45,74.006 616.45,81.742 608.714,81.742 608.714,89.479 600.977,89.479 593.24,89.479 593.24,97.216 570.029,97.216 
			570.029,104.953 562.292,104.953 562.292,89.479 554.556,89.479 554.556,81.742 539.082,81.742 539.082,74.006 531.345,74.006 
			531.345,66.269 523.608,66.269 523.608,58.532 508.135,58.532 508.135,66.269 492.661,66.269 492.661,74.006 484.924,74.006 
			484.924,81.742 477.187,81.742 477.187,104.953 484.924,104.953 484.924,112.69 492.661,112.69 492.661,120.427 508.135,120.427 
			531.345,120.427 531.345,128.163 562.292,128.163 562.292,135.9 570.029,135.9 570.029,143.637 577.766,143.637 577.766,151.374 
			585.503,151.374 585.503,159.111 631.924,159.111 631.924,151.374 647.398,151.374 647.398,143.637 655.135,143.637 
			655.135,135.9 662.871,135.9 662.871,120.427 670.608,120.427 670.608,104.953 678.345,104.953 678.345,81.742 		"/>
		<g>
			<polygon style="fill:#AA7A41;" points="539.082,197.795 585.503,197.795 585.503,190.058 608.714,190.058 608.714,182.321 
				624.187,182.321 624.187,174.585 647.398,174.585 647.398,166.848 655.135,166.848 655.135,159.111 670.608,159.111 
				670.608,143.637 686.082,143.637 686.082,135.9 693.819,135.9 693.819,112.69 647.398,112.69 585.503,112.69 585.503,135.9 
				554.556,135.9 554.556,143.637 546.819,143.637 546.819,151.374 539.082,151.374 539.082,174.585 531.345,174.585 
				531.345,190.058 539.082,190.058 			"/>
			<polygon style="fill:#754F26;" points="546.819,151.374 554.556,151.374 554.556,159.111 562.292,159.111 562.292,166.848 
				577.766,166.848 577.766,174.585 585.503,174.585 616.45,174.585 616.45,159.111 616.45,135.9 662.871,135.9 662.871,128.163 
				670.608,128.163 670.608,120.427 693.819,120.427 693.819,112.69 600.977,112.69 600.977,128.163 562.292,128.163 562.292,135.9 
				554.556,135.9 554.556,143.637 546.819,143.637 			"/>
		</g>
		<g>
			<g>
				<rect x="616.45" y="166.848" style="fill:#9B3A38;" width="7.737" height="7.737"/>
				<rect x="616.45" y="151.374" style="fill:#9B3A38;" width="7.737" height="7.737"/>
				<rect x="631.924" y="166.848" style="fill:#9B3A38;" width="7.737" height="7.737"/>
				<rect x="624.187" y="159.111" style="fill:#9B3A38;" width="7.737" height="7.737"/>
			</g>
			<g>
				<rect x="639.661" y="151.374" style="fill:#9B3A38;" width="7.737" height="7.737"/>
				<rect x="639.661" y="135.9" style="fill:#9B3A38;" width="7.737" height="7.737"/>
				<rect x="655.135" y="151.374" style="fill:#9B3A38;" width="7.737" height="7.737"/>
				<rect x="647.398" y="143.637" style="fill:#9B3A38;" width="7.737" height="7.737"/>
			</g>
			<polygon style="fill:#FFFFFF;" points="655.135,58.532 655.135,66.269 647.398,66.269 639.661,66.269 639.661,74.006 
				631.924,74.006 631.924,81.742 639.661,81.742 639.661,89.479 647.398,89.479 647.398,104.953 662.871,104.953 662.871,112.69 
				670.608,112.69 670.608,66.269 662.871,66.269 662.871,58.532 			"/>
			<rect x="647.398" y="74.006" style="fill:#28211C;" width="7.737" height="7.737"/>
			<g>
				<polygon style="fill:#9B3A38;" points="670.608,74.006 670.608,81.742 662.871,81.742 662.871,97.216 670.608,97.216 
					670.608,104.953 686.082,104.953 686.082,97.216 701.556,97.216 701.556,89.479 693.819,89.479 693.819,81.742 686.082,81.742 
					686.082,74.006 				"/>
				<polygon style="fill:#722626;" points="693.819,89.479 686.082,89.479 686.082,97.216 670.608,97.216 670.608,89.479 
					662.871,89.479 662.871,97.216 670.608,97.216 670.608,104.953 686.082,104.953 686.082,97.216 701.556,97.216 701.556,89.479 
									"/>
			</g>
			<g>
				<polygon style="fill:#58573B;" points="616.45,104.953 608.714,104.953 608.714,112.69 600.977,112.69 600.977,120.427 
					585.503,120.427 585.503,128.163 577.766,128.163 570.029,128.163 570.029,135.9 562.292,135.9 562.292,143.637 
					570.029,143.637 570.029,151.374 577.766,151.374 577.766,159.111 585.503,159.111 585.503,166.848 593.24,166.848 
					593.24,174.585 616.45,174.585 616.45,166.848 624.187,166.848 624.187,159.111 639.661,159.111 639.661,151.374 
					647.398,151.374 647.398,143.637 655.135,143.637 655.135,135.9 662.871,135.9 662.871,120.427 655.135,120.427 655.135,112.69 
					647.398,112.69 647.398,104.953 639.661,104.953 639.661,97.216 631.924,97.216 624.187,97.216 624.187,104.953 				"/>
				<polygon style="fill:#3A3925;" points="570.029,143.637 577.766,143.637 577.766,151.374 585.503,151.374 585.503,159.111 
					593.24,159.111 593.24,166.848 616.45,166.848 616.45,159.111 624.187,159.111 624.187,151.374 639.661,151.374 
					639.661,143.637 647.398,143.637 647.398,135.9 655.135,135.9 655.135,120.427 662.871,120.427 662.871,135.9 655.135,135.9 
					655.135,143.637 647.398,143.637 647.398,151.374 639.661,151.374 639.661,159.111 624.187,159.111 624.187,166.848 
					616.45,166.848 616.45,174.585 593.24,174.585 593.24,166.848 585.503,166.848 585.503,159.111 577.766,159.111 
					577.766,151.374 570.029,151.374 				"/>
				<polygon style="fill:#7F7D59;" points="639.661,112.69 631.924,112.69 631.924,120.427 624.187,120.427 624.187,128.163 
					616.45,128.163 616.45,135.9 600.977,135.9 600.977,143.637 593.24,143.637 593.24,151.374 600.977,151.374 600.977,143.637 
					616.45,143.637 616.45,135.9 624.187,135.9 624.187,128.163 631.924,128.163 631.924,120.427 639.661,120.427 				"/>
			</g>
			<polygon style="fill:#F0923D;" points="477.187,97.216 484.924,97.216 484.924,104.953 500.398,104.953 500.398,112.69 
				523.608,112.69 539.082,112.69 539.082,120.427 562.292,120.427 562.292,128.163 570.029,128.163 570.029,135.9 562.292,135.9 
				562.292,128.163 531.345,128.163 531.345,120.427 492.661,120.427 492.661,112.69 484.924,112.69 484.924,104.953 
				477.187,104.953 			"/>
			<polygon style="fill:#FFD54D;" points="492.661,74.006 500.398,74.006 500.398,81.742 508.135,81.742 508.135,89.479 
				523.608,89.479 523.608,97.216 531.345,97.216 531.345,104.953 523.608,104.953 523.608,97.216 508.135,97.216 508.135,89.479 
				500.398,89.479 500.398,81.742 492.661,81.742 			"/>
		</g>
		<polygon style="fill:#FFD54D;" points="624.187,74.006 624.187,81.742 616.45,81.742 616.45,89.479 608.714,89.479 
			608.714,97.216 593.24,97.216 593.24,104.953 577.766,104.953 577.766,112.69 570.029,112.69 570.029,97.216 593.24,97.216 
			593.24,89.479 608.714,89.479 608.714,81.742 616.45,81.742 616.45,74.006 		"/>
	</g>
	<g>
		<g>
			<polygon style="fill:#754F26;" points="546.819,344.795 531.345,344.795 531.345,352.532 523.608,352.532 523.608,368.006 
				515.871,368.006 515.871,383.479 531.345,383.479 531.345,391.216 546.819,391.216 546.819,398.953 554.556,398.953 
				554.556,406.69 570.029,406.69 570.029,414.427 608.714,414.427 608.714,422.164 631.924,422.164 631.924,429.9 662.871,429.9 
				662.871,422.164 670.608,422.164 670.608,414.427 678.345,414.427 678.345,398.953 662.871,398.953 662.871,375.742 
				616.45,375.742 616.45,344.795 			"/>
			<polygon style="fill:#513418;" points="531.345,352.532 531.345,360.269 539.082,360.269 539.082,368.006 546.819,368.006 
				546.819,375.742 562.292,375.742 562.292,383.479 577.766,383.479 577.766,391.216 600.977,391.216 600.977,398.953 
				616.45,398.953 616.45,406.69 631.924,406.69 631.924,414.427 639.661,414.427 639.661,422.164 655.135,422.164 655.135,429.9 
				662.871,429.9 662.871,422.164 670.608,422.164 670.608,414.427 678.345,414.427 678.345,398.953 662.871,398.953 
				662.871,383.479 655.135,383.479 655.135,375.742 616.45,375.742 616.45,352.532 546.819,352.532 546.819,344.795 
				531.345,344.795 			"/>
		</g>
		<g>
			<g>
				<rect x="593.24" y="290.637" style="fill:#949AAF;" width="15.474" height="7.737"/>
				<polygon style="fill:#FFFFFF;" points="717.029,368.006 717.029,360.269 701.556,360.269 701.556,352.532 693.819,352.532 
					693.819,344.795 670.608,344.795 670.608,329.321 655.135,329.321 655.135,321.585 647.398,321.585 647.398,313.848 
					639.661,313.848 639.661,306.111 624.187,306.111 624.187,298.374 608.714,298.374 608.714,290.637 593.24,290.637 
					593.24,282.9 585.503,282.9 585.503,275.164 577.766,275.164 577.766,267.427 570.029,267.427 570.029,259.69 554.556,259.69 
					554.556,267.427 546.819,267.427 546.819,275.164 539.082,275.164 539.082,298.374 546.819,298.374 546.819,306.111 
					546.819,313.848 539.082,313.848 539.082,352.532 546.819,352.532 546.819,360.269 562.292,360.269 562.292,368.006 
					577.766,368.006 577.766,375.742 585.503,375.742 585.503,383.479 631.924,383.479 631.924,375.742 639.661,375.742 
					647.398,375.742 655.135,375.742 655.135,383.479 662.871,383.479 662.871,391.216 670.608,391.216 670.608,398.953 
					678.345,398.953 686.082,398.953 693.819,398.953 693.819,406.69 709.292,406.69 709.292,414.427 717.029,414.427 
					717.029,406.69 717.029,398.953 724.766,398.953 724.766,383.479 732.503,383.479 732.503,368.006 				"/>
				<polygon style="fill:#FFB031;" points="608.714,375.742 608.714,383.479 600.977,383.479 600.977,391.216 593.24,391.216 
					593.24,398.953 585.503,398.953 585.503,406.69 593.24,406.69 593.24,398.953 600.977,398.953 600.977,406.69 608.714,406.69 
					608.714,398.953 600.977,398.953 600.977,391.216 608.714,391.216 608.714,383.479 616.45,383.479 616.45,375.742 				"/>
				<polygon style="fill:#FFB031;" points="585.503,368.006 585.503,375.742 577.766,375.742 577.766,383.479 570.029,383.479 
					570.029,391.216 562.292,391.216 562.292,398.953 570.029,398.953 570.029,391.216 577.766,391.216 577.766,398.953 
					585.503,398.953 585.503,391.216 577.766,391.216 577.766,383.479 585.503,383.479 585.503,375.742 593.24,375.742 
					593.24,368.006 				"/>
				<polygon style="fill:#FFB031;" points="546.819,290.637 546.819,275.164 539.082,275.164 531.345,275.164 531.345,282.9 
					523.608,282.9 523.608,290.637 531.345,290.637 531.345,298.374 546.819,298.374 554.556,298.374 554.556,290.637 				"/>
				<rect x="531.345" y="290.637" style="fill:#F0923D;" width="7.737" height="7.737"/>
				<rect x="554.556" y="275.164" style="fill:#28211C;" width="7.737" height="7.737"/>
			</g>
			<polygon style="fill:#CACEE0;" points="593.24,298.374 593.24,298.374 585.503,298.374 585.503,306.111 577.766,306.111 
				577.766,313.848 570.029,313.848 570.029,321.585 570.029,329.321 577.766,329.321 577.766,337.058 585.503,337.058 
				585.503,344.795 593.24,344.795 593.24,352.532 608.714,352.532 608.714,360.269 624.187,360.269 624.187,368.006 
				639.661,368.006 639.661,375.742 662.871,375.742 662.871,368.006 678.345,368.006 678.345,360.269 693.819,360.269 
				693.819,344.795 670.608,344.795 670.608,329.321 655.135,329.321 655.135,321.585 647.398,321.585 647.398,313.848 
				639.661,313.848 639.661,306.111 624.187,306.111 624.187,298.374 			"/>
			<polygon style="fill:#949AAF;" points="593.24,329.321 600.977,329.321 600.977,337.058 608.714,337.058 608.714,344.795 
				616.45,344.795 616.45,352.532 631.924,352.532 631.924,360.269 647.398,360.269 647.398,368.006 639.661,368.006 
				624.187,368.006 624.187,360.269 608.714,360.269 608.714,352.532 608.714,344.795 600.977,344.795 600.977,337.058 
				593.24,337.058 			"/>
			<polygon style="fill:#949AAF;" points="670.608,368.006 670.608,375.742 678.345,375.742 678.345,383.479 686.082,383.479 
				686.082,391.216 701.556,391.216 701.556,398.953 709.292,398.953 709.292,391.216 701.556,391.216 701.556,383.479 
				686.082,383.479 686.082,375.742 678.345,375.742 678.345,368.006 			"/>
		</g>
	</g>
	<g>
		<g>
			<polygon style="fill:#58573B;" points="252.819,221.006 229.608,221.006 229.608,228.742 221.871,228.742 221.871,236.479 
				214.135,236.479 214.135,251.953 221.871,251.953 221.871,259.69 229.608,259.69 229.608,267.427 260.556,267.427 
				260.556,259.69 268.292,259.69 268.292,251.953 276.029,251.953 276.029,236.479 268.292,236.479 268.292,228.742 
				260.556,228.742 260.556,221.006 			"/>
			<polygon style="fill:#3A3925;" points="214.135,244.216 221.871,244.216 221.871,236.479 229.608,236.479 229.608,228.742 
				245.082,228.742 245.082,236.479 252.819,236.479 252.819,244.216 260.556,244.216 260.556,251.953 252.819,251.953 
				252.819,244.216 245.082,244.216 245.082,236.479 229.608,236.479 229.608,244.216 221.871,244.216 221.871,251.953 
				214.135,251.953 			"/>
		</g>
		<g>
			<polygon style="fill:#58573B;" points="647.398,221.006 624.187,221.006 624.187,228.742 616.45,228.742 616.45,236.479 
				608.714,236.479 608.714,251.953 616.45,251.953 616.45,259.69 624.187,259.69 624.187,267.427 655.135,267.427 655.135,259.69 
				662.871,259.69 662.871,251.953 670.608,251.953 670.608,236.479 662.871,236.479 662.871,228.742 655.135,228.742 
				655.135,221.006 			"/>
			<polygon style="fill:#3A3925;" points="608.714,244.216 616.45,244.216 616.45,236.479 624.187,236.479 624.187,228.742 
				639.661,228.742 639.661,236.479 647.398,236.479 647.398,244.216 655.135,244.216 655.135,251.953 647.398,251.953 
				647.398,244.216 639.661,244.216 639.661,236.479 624.187,236.479 624.187,244.216 616.45,244.216 616.45,251.953 
				608.714,251.953 			"/>
		</g>
		<g>
			<polygon style="fill:#58573B;" points="446.24,43.058 423.029,43.058 423.029,50.795 415.292,50.795 415.292,58.532 
				407.556,58.532 407.556,74.006 415.292,74.006 415.292,81.742 423.029,81.742 423.029,89.479 453.977,89.479 453.977,81.742 
				461.714,81.742 461.714,74.006 469.45,74.006 469.45,58.532 461.714,58.532 461.714,50.795 453.977,50.795 453.977,43.058 			"/>
			<polygon style="fill:#3A3925;" points="407.556,66.269 415.292,66.269 415.292,58.532 423.029,58.532 423.029,50.795 
				438.503,50.795 438.503,58.532 446.24,58.532 446.24,66.269 453.977,66.269 453.977,74.006 446.24,74.006 446.24,66.269 
				438.503,66.269 438.503,58.532 423.029,58.532 423.029,66.269 415.292,66.269 415.292,74.006 407.556,74.006 			"/>
		</g>
		<g>
			<g>
				<polygon style="fill:#58573B;" points="276.029,190.058 260.556,190.058 260.556,197.795 252.819,197.795 252.819,205.532 
					260.556,205.532 260.556,213.269 276.029,213.269 276.029,205.532 283.766,205.532 283.766,197.795 276.029,197.795 				"/>
			</g>
			<polygon style="fill:#3A3925;" points="260.556,205.532 260.556,197.795 268.292,197.795 268.292,190.058 260.556,190.058 
				260.556,197.795 252.819,197.795 252.819,205.532 			"/>
		</g>
		<g>
			<g>
				<polygon style="fill:#58573B;" points="593.24,221.006 577.766,221.006 577.766,228.742 570.029,228.742 570.029,236.479 
					577.766,236.479 577.766,244.216 593.24,244.216 593.24,236.479 600.977,236.479 600.977,228.742 593.24,228.742 				"/>
			</g>
			<polygon style="fill:#3A3925;" points="577.766,236.479 577.766,228.742 585.503,228.742 585.503,221.006 577.766,221.006 
				577.766,228.742 570.029,228.742 570.029,236.479 			"/>
		</g>
	</g>
</g>
</svg>
