<?xml version="1.0" encoding="utf-8"?>
<!-- Generator: Adobe Illustrator 27.5.0, SVG Export Plug-In . SVG Version: 6.00 Build 0)  -->
<svg version="1.1" xmlns="http://www.w3.org/2000/svg" xmlns:xlink="http://www.w3.org/1999/xlink" x="0px" y="0px"
	 viewBox="0 0 750 500" style="enable-background:new 0 0 750 500;" xml:space="preserve">
<g id="BACKGROUND">
	<rect style="fill:#FFEDDC;" width="750" height="500"/>
</g>
<g id="OBJECTS">
	<g>
		<polygon style="fill:#9B3A38;" points="107.465,166.508 107.465,186.186 114.024,186.186 114.024,212.424 120.584,212.424 
			120.584,199.305 127.143,199.305 127.143,166.508 		"/>
		<polygon style="fill:#F0923D;" points="245.211,205.864 245.211,199.305 238.651,199.305 238.651,192.746 225.533,192.746 
			225.533,186.186 212.414,186.186 212.414,159.949 205.855,159.949 205.855,153.39 192.736,153.39 192.736,146.831 
			186.177,146.831 186.177,140.271 179.617,140.271 166.499,140.271 166.499,133.712 159.939,133.712 159.939,127.152 
			159.939,120.593 153.38,120.593 153.38,114.034 153.38,100.915 159.939,100.915 159.939,81.237 153.38,81.237 153.38,61.559 
			146.821,61.559 146.821,68.119 140.262,68.119 140.262,74.678 114.024,74.678 114.024,68.119 107.465,68.119 107.465,61.559 
			100.906,61.559 100.906,81.237 94.346,81.237 94.346,100.915 100.906,100.915 100.906,107.475 107.465,107.475 107.465,114.034 
			114.024,114.034 114.024,120.593 114.024,133.712 107.465,133.712 107.465,166.508 114.024,166.508 114.024,179.627 
			120.584,179.627 120.584,186.186 127.143,186.186 127.143,199.305 127.143,205.864 133.702,205.864 133.702,218.983 
			140.262,218.983 140.262,205.864 146.821,205.864 146.821,199.305 153.38,199.305 153.38,212.424 146.821,212.424 
			146.821,218.983 205.855,218.983 205.855,199.305 218.973,199.305 218.973,205.864 225.533,205.864 225.533,212.424 
			218.973,212.424 218.973,218.983 212.414,218.983 212.414,232.102 205.855,232.102 205.855,245.22 199.295,245.22 199.295,251.78 
			205.855,251.78 205.855,258.339 212.414,258.339 212.414,264.898 218.973,264.898 218.973,271.458 225.533,271.458 
			225.533,264.898 232.092,264.898 232.092,258.339 238.651,258.339 238.651,245.22 238.651,232.102 245.211,232.102 
			245.211,225.542 251.77,225.542 251.77,205.864 		"/>
		<rect x="146.821" y="68.119" style="fill:#FFFFFF;" width="6.559" height="13.119"/>
		<rect x="100.906" y="68.119" style="fill:#FFFFFF;" width="6.559" height="13.119"/>
		<polygon style="fill:#FFB031;" points="173.058,140.271 173.058,146.831 179.617,146.831 179.617,153.39 186.177,153.39 
			186.177,159.949 199.295,159.949 199.295,166.508 205.855,166.508 205.855,173.068 212.414,173.068 212.414,159.949 
			205.855,159.949 205.855,153.39 199.295,153.39 192.736,153.39 192.736,146.831 186.177,146.831 186.177,140.271 		"/>
		<rect x="212.414" y="173.068" style="fill:#F0923D;" width="6.559" height="13.119"/>
		<polygon style="fill:#FFB031;" points="146.821,120.593 146.821,127.152 140.262,127.152 140.262,140.271 133.702,140.271 
			133.702,146.831 127.143,146.831 127.143,153.39 120.584,153.39 120.584,146.831 107.465,146.831 107.465,133.712 
			114.024,133.712 114.024,120.593 		"/>
		<polygon style="fill:#FFFFFF;" points="94.346,94.356 100.906,94.356 100.906,87.797 120.584,87.797 120.584,94.356 
			133.702,94.356 133.702,87.797 153.38,87.797 153.38,94.356 159.939,94.356 159.939,100.915 153.38,100.915 153.38,114.034 
			146.821,114.034 146.821,120.593 133.702,120.593 114.024,120.593 114.024,114.034 107.465,114.034 107.465,107.475 
			100.906,107.475 100.906,100.915 94.346,100.915 		"/>
		<g>
			<rect x="114.024" y="87.797" style="fill:#28211C;" width="6.559" height="6.559"/>
			<rect x="133.702" y="87.797" style="fill:#28211C;" width="6.559" height="6.559"/>
		</g>
		<polygon style="fill:#FFFFFF;" points="205.855,238.661 212.414,238.661 212.414,232.102 218.973,232.102 218.973,225.542 
			225.533,225.542 225.533,232.102 232.092,232.102 232.092,238.661 238.651,238.661 238.651,245.22 238.651,258.339 
			232.092,258.339 232.092,264.898 225.533,264.898 225.533,271.458 218.973,271.458 218.973,264.898 212.414,264.898 
			212.414,258.339 205.855,258.339 205.855,251.78 199.295,251.78 199.295,245.22 205.855,245.22 		"/>
		<polygon style="fill:#FFB031;" points="146.821,199.305 146.821,173.068 153.38,173.068 153.38,179.627 159.939,179.627 
			159.939,186.186 166.499,186.186 166.499,192.746 173.058,192.746 173.058,199.305 166.499,199.305 166.499,205.864 
			153.38,205.864 153.38,199.305 		"/>
		<rect x="120.584" y="100.915" style="fill:#28211C;" width="13.119" height="6.559"/>
	</g>
	<g>
		<g>
			<polygon style="fill:#28211C;" points="321.52,186.186 321.52,192.746 328.079,192.746 328.079,199.305 334.639,199.305 
				334.639,205.864 334.639,225.542 341.198,225.542 341.198,186.186 			"/>
			<polygon style="fill:#28211C;" points="380.554,192.746 380.554,199.305 387.113,199.305 387.113,205.864 393.672,205.864 
				393.672,225.542 400.232,225.542 400.232,192.746 			"/>
		</g>
		<polygon style="fill:#949AAF;" points="433.029,153.39 433.029,159.949 439.588,159.949 439.588,186.186 433.029,186.186 
			433.029,192.746 426.469,192.746 426.469,199.305 419.91,199.305 419.91,205.864 413.35,205.864 413.35,225.542 406.791,225.542 
			406.791,218.983 400.232,218.983 400.232,205.864 393.672,205.864 393.672,199.305 387.113,199.305 387.113,192.746 
			367.435,192.746 367.435,199.305 360.876,199.305 360.876,205.864 354.317,205.864 354.317,225.542 347.757,225.542 
			347.757,205.864 341.198,205.864 341.198,199.305 334.639,199.305 334.639,192.746 328.079,192.746 328.079,186.186 
			321.52,186.186 321.52,179.627 314.961,179.627 314.961,153.39 308.401,153.39 308.401,146.831 301.842,146.831 301.842,140.271 
			295.283,140.271 295.283,94.356 301.842,94.356 301.842,100.915 314.961,100.915 321.52,100.915 321.52,94.356 328.079,94.356 
			328.079,87.797 334.639,87.797 334.639,81.237 341.198,81.237 341.198,94.356 347.757,94.356 347.757,100.915 354.317,100.915 
			354.317,107.475 360.876,107.475 360.876,114.034 360.876,120.593 367.435,120.593 367.435,140.271 354.317,140.271 
			354.317,146.831 373.995,146.831 373.995,140.271 380.554,140.271 380.554,133.712 419.91,133.712 419.91,140.271 
			433.029,140.271 433.029,146.831 439.588,146.831 439.588,120.593 433.029,120.593 433.029,107.475 426.469,107.475 
			426.469,87.797 433.029,87.797 433.029,81.237 439.588,81.237 439.588,68.119 446.147,68.119 446.147,61.559 452.706,61.559 
			452.706,74.678 459.266,74.678 459.266,81.237 465.825,81.237 465.825,87.797 472.384,87.797 472.384,94.356 472.384,100.915 
			478.944,100.915 478.944,107.475 485.503,107.475 485.503,133.712 478.944,133.712 478.944,140.271 472.384,140.271 
			472.384,146.831 465.825,146.831 465.825,153.39 		"/>
		<polygon style="fill:#CACEE0;" points="360.876,120.593 360.876,114.034 347.757,114.034 328.079,114.034 328.079,120.593 
			321.52,120.593 321.52,133.712 314.961,133.712 314.961,140.271 314.961,146.831 341.198,146.831 341.198,140.271 
			347.757,140.271 347.757,133.712 360.876,133.712 360.876,127.152 367.435,127.152 367.435,120.593 		"/>
		<polygon style="fill:#FFFFFF;" points="314.961,153.39 321.52,153.39 321.52,146.831 334.639,146.831 334.639,140.271 
			341.198,140.271 341.198,146.831 347.757,146.831 347.757,153.39 341.198,153.39 341.198,159.949 341.198,166.508 
			334.639,166.508 334.639,179.627 328.079,179.627 328.079,186.186 321.52,186.186 321.52,179.627 314.961,179.627 		"/>
		<rect x="334.639" y="114.034" style="fill:#28211C;" width="6.559" height="6.559"/>
		<rect x="354.317" y="114.034" style="fill:#28211C;" width="6.559" height="6.559"/>
		<rect x="354.317" y="127.152" style="fill:#28211C;" width="13.119" height="6.559"/>
		<rect x="328.079" y="87.797" style="fill:#CACEE0;" width="6.559" height="13.119"/>
		<polygon style="fill:#CACEE0;" points="301.842,100.915 301.842,94.356 295.283,94.356 295.283,107.475 301.842,107.475 
			308.401,107.475 308.401,100.915 		"/>
		<polygon style="fill:#69708C;" points="439.588,127.152 452.706,127.152 452.706,133.712 459.266,133.712 459.266,140.271 
			472.384,140.271 472.384,146.831 452.706,146.831 452.706,140.271 446.147,140.271 446.147,133.712 439.588,133.712 		"/>
		<polygon style="fill:#69708C;" points="433.029,107.475 446.147,107.475 446.147,114.034 459.266,114.034 459.266,120.593 
			472.384,120.593 472.384,127.152 485.503,127.152 485.503,133.712 472.384,133.712 472.384,127.152 459.266,127.152 
			459.266,120.593 446.147,120.593 446.147,114.034 433.029,114.034 		"/>
		<polygon style="fill:#69708C;" points="426.469,87.797 446.147,87.797 446.147,94.356 459.266,94.356 459.266,100.915 
			472.384,100.915 472.384,107.475 478.944,107.475 485.503,107.475 485.503,114.034 472.384,114.034 472.384,107.475 
			459.266,107.475 459.266,100.915 446.147,100.915 446.147,94.356 426.469,94.356 		"/>
		<polygon style="fill:#69708C;" points="439.588,68.119 446.147,68.119 446.147,74.678 459.266,74.678 459.266,81.237 
			446.147,81.237 446.147,74.678 439.588,74.678 		"/>
		<polygon style="fill:#CACEE0;" points="439.588,173.068 433.029,173.068 433.029,186.186 426.469,186.186 426.469,192.746 
			419.91,192.746 419.91,199.305 413.35,199.305 413.35,205.864 419.91,205.864 419.91,199.305 426.469,199.305 426.469,192.746 
			433.029,192.746 433.029,186.186 439.588,186.186 		"/>
		<polygon style="fill:#CACEE0;" points="400.232,133.712 400.232,140.271 419.91,140.271 419.91,146.831 433.029,146.831 
			433.029,140.271 419.91,140.271 419.91,133.712 		"/>
		<polygon style="fill:#69708C;" points="373.995,192.746 373.995,186.186 380.554,186.186 387.113,186.186 387.113,179.627 
			406.791,179.627 406.791,186.186 387.113,186.186 387.113,192.746 		"/>
	</g>
	<g>
		<polygon style="fill:#513418;" points="550.829,179.627 550.829,186.186 544.27,186.186 544.27,199.305 537.711,199.305 
			537.711,218.983 531.151,218.983 531.151,225.542 570.507,225.542 570.507,179.627 		"/>
		<polygon style="fill:#513418;" points="563.948,140.271 557.389,140.271 557.389,146.831 544.27,146.831 544.27,153.39 
			537.711,153.39 537.711,159.949 544.27,159.949 544.27,153.39 563.948,153.39 		"/>
		<polygon style="fill:#513418;" points="570.507,68.119 570.507,55 563.948,55 563.948,61.559 557.389,61.559 557.389,68.119 		"/>
		<polygon style="fill:#754F26;" points="675.456,159.949 675.456,153.39 668.897,153.39 668.897,146.831 662.338,146.831 
			662.338,140.271 655.779,140.271 655.779,133.712 649.219,133.712 649.219,127.152 649.219,120.593 655.779,120.593 
			668.897,120.593 668.897,114.034 675.456,114.034 675.456,107.475 682.016,107.475 682.016,100.915 675.456,100.915 
			675.456,94.356 668.897,94.356 668.897,87.797 655.779,87.797 655.779,81.237 629.541,81.237 629.541,87.797 622.982,87.797 
			622.982,100.915 616.422,100.915 616.422,153.39 603.304,153.39 603.304,140.271 596.745,140.271 596.745,133.712 
			603.304,133.712 603.304,127.152 609.863,127.152 609.863,87.797 603.304,87.797 603.304,81.237 596.745,81.237 596.745,55 
			590.185,55 590.185,61.559 583.626,61.559 583.626,68.119 550.829,68.119 550.829,81.237 544.27,81.237 544.27,87.797 
			537.711,87.797 537.711,94.356 531.151,94.356 531.151,100.915 524.592,100.915 524.592,120.593 537.711,120.593 537.711,127.152 
			544.27,127.152 544.27,133.712 550.829,133.712 550.829,166.508 550.829,179.627 557.389,179.627 557.389,212.424 
			570.507,212.424 570.507,218.983 563.948,218.983 563.948,225.542 570.507,225.542 570.507,225.788 629.339,225.788 
			629.541,218.983 636.1,218.983 636.1,212.424 642.66,212.424 649.219,212.424 662.338,212.424 662.338,205.864 675.456,205.864 
			675.456,199.305 682.016,199.305 682.016,192.746 688.575,192.746 688.575,159.949 		"/>
		<rect x="609.863" y="133.712" style="fill:#754F26;" width="6.559" height="13.119"/>
		<polygon style="fill:#AA7A41;" points="550.829,133.712 557.389,133.712 557.389,140.271 570.507,140.271 570.507,159.949 
			577.067,159.949 577.067,166.508 583.626,166.508 583.626,179.627 590.185,179.627 590.185,186.186 583.626,186.186 
			583.626,199.305 570.507,199.305 570.507,212.424 557.389,212.424 557.389,179.627 550.829,179.627 		"/>
		<polygon style="fill:#754F26;" points="570.507,146.831 563.948,146.831 563.948,153.39 550.829,153.39 550.829,159.949 
			544.27,159.949 544.27,166.508 550.829,166.508 550.829,159.949 570.507,159.949 		"/>
		<rect x="557.389" y="87.797" style="fill:#28211C;" width="6.559" height="6.559"/>
		<polygon style="fill:#E2AE6A;" points="537.711,94.356 544.27,94.356 544.27,100.915 550.829,100.915 550.829,107.475 
			563.948,107.475 563.948,114.034 577.067,114.034 577.067,127.152 563.948,127.152 563.948,133.712 544.27,133.712 
			544.27,127.152 537.711,127.152 537.711,120.593 524.592,120.593 524.592,100.915 531.151,100.915 531.151,94.356 		"/>
		<polygon style="fill:#28211C;" points="524.592,100.915 524.592,107.475 524.592,114.034 531.151,114.034 531.151,107.475 
			537.711,107.475 537.711,100.915 		"/>
		<rect x="583.626" y="61.559" style="fill:#E2AE6A;" width="6.559" height="13.119"/>
		<polygon style="fill:#AA7A41;" points="629.541,218.983 629.541,212.424 636.1,212.424 636.1,205.864 642.66,205.864 
			642.66,186.186 636.1,186.186 636.1,179.627 642.66,179.627 642.66,186.186 649.219,186.186 649.219,192.746 655.779,192.746 
			655.779,199.305 649.219,199.305 649.219,205.864 642.66,205.864 642.66,212.424 636.1,212.424 636.1,218.983 		"/>
		<polygon style="fill:#513418;" points="649.219,120.593 642.66,120.593 642.66,127.152 636.1,127.152 636.1,133.712 
			642.66,133.712 642.66,140.271 649.219,140.271 649.219,146.831 655.779,146.831 655.779,153.39 662.338,153.39 662.338,159.949 
			668.897,159.949 668.897,146.831 662.338,146.831 662.338,140.271 655.779,140.271 655.779,133.712 649.219,133.712 		"/>
	</g>
	<g>
		<polygon style="fill:#513418;" points="330.978,427.203 330.978,433.763 337.537,433.763 337.537,440.322 344.096,440.322 
			344.096,453.441 350.656,453.441 350.656,427.203 		"/>
		<polygon style="fill:#513418;" points="409.689,427.203 409.689,433.763 416.249,433.763 416.249,440.322 422.808,440.322 
			422.808,453.441 429.367,453.441 429.367,427.203 		"/>
		<polygon style="fill:#E2AE6A;" points="324.418,361.61 317.859,361.61 317.859,368.169 311.3,368.169 311.3,374.729 
			298.181,374.729 298.181,381.288 285.062,381.288 285.062,394.407 291.622,394.407 291.622,400.966 298.181,400.966 
			298.181,407.525 304.74,407.525 304.74,414.085 311.3,414.085 311.3,420.644 317.859,420.644 317.859,427.203 337.537,427.203 
			337.537,433.763 350.656,433.763 350.656,453.441 357.215,453.441 357.215,446.881 363.774,446.881 363.774,440.322 
			370.334,440.322 370.334,433.763 422.808,433.763 422.808,440.322 429.367,440.322 429.367,446.881 435.927,446.881 
			435.927,453.441 442.486,453.441 442.486,440.322 449.045,440.322 449.045,433.763 455.605,433.763 455.605,427.203 
			462.164,427.203 462.164,414.085 449.045,414.085 449.045,407.525 435.927,407.525 435.927,400.966 429.367,400.966 
			429.367,394.407 409.689,394.407 409.689,387.848 403.13,387.848 403.13,381.288 376.893,381.288 376.893,374.729 
			370.334,374.729 370.334,368.169 363.774,368.169 350.656,368.169 350.656,361.61 		"/>
		<polygon style="fill:#513418;" points="324.418,355.051 317.859,355.051 317.859,361.61 324.418,361.61 330.978,361.61 
			330.978,368.169 337.537,368.169 337.537,374.729 350.656,374.729 357.215,374.729 357.215,381.288 363.774,381.288 
			376.893,381.288 376.893,387.848 383.452,387.848 383.452,394.407 403.13,394.407 403.13,400.966 409.689,400.966 
			422.808,400.966 422.808,407.525 435.927,407.525 435.927,414.085 449.045,414.085 449.045,420.644 462.164,420.644 
			462.164,414.085 468.723,414.085 468.723,407.525 475.283,407.525 475.283,394.407 481.842,394.407 481.842,387.848 
			468.723,387.848 468.723,381.288 475.283,381.288 475.283,374.729 468.723,374.729 468.723,361.61 462.164,361.61 
			462.164,355.051 468.723,355.051 468.723,348.491 455.605,348.491 455.605,335.373 449.045,335.373 449.045,322.254 
			442.486,322.254 442.486,328.814 435.927,328.814 435.927,315.695 429.367,315.695 429.367,309.136 422.808,309.136 
			422.808,315.695 409.689,315.695 409.689,309.136 403.13,309.136 403.13,315.695 396.571,315.695 390.012,315.695 
			390.012,322.254 383.452,322.254 383.452,309.136 376.893,309.136 376.893,315.695 370.334,315.695 370.334,322.254 
			363.774,322.254 363.774,315.695 357.215,315.695 357.215,328.814 350.656,328.814 350.656,335.373 344.096,335.373 
			344.096,328.814 337.537,328.814 337.537,335.373 330.978,335.373 330.978,341.932 324.418,341.932 		"/>
		<rect x="311.3" y="381.288" style="fill:#28211C;" width="6.559" height="6.559"/>
		<rect x="278.503" y="374.729" style="fill:#513418;" width="6.559" height="6.559"/>
		<polygon style="fill:#E2AE6A;" points="344.096,381.288 344.096,374.729 350.656,374.729 350.656,368.169 357.215,368.169 
			357.215,387.848 344.096,387.848 		"/>
		<rect x="350.656" y="381.288" style="fill:#FFD3A3;" width="6.559" height="6.559"/>
		<polygon style="fill:#382210;" points="376.893,381.288 383.452,381.288 383.452,387.848 403.13,387.848 409.689,387.848 
			409.689,394.407 429.367,394.407 429.367,400.966 442.486,400.966 442.486,407.525 455.605,407.525 455.605,420.644 
			449.045,420.644 449.045,414.085 435.927,414.085 435.927,407.525 422.808,407.525 422.808,400.966 403.13,400.966 
			403.13,394.407 383.452,394.407 383.452,387.848 376.893,387.848 		"/>
		<g>
			<rect x="442.486" y="361.61" style="fill:#382210;" width="6.559" height="6.559"/>
			<rect x="435.927" y="368.169" style="fill:#382210;" width="6.559" height="6.559"/>
		</g>
		<g>
			<rect x="429.367" y="335.373" style="fill:#382210;" width="6.559" height="6.559"/>
			<rect x="422.808" y="341.932" style="fill:#382210;" width="6.559" height="6.559"/>
		</g>
		<g>
			<rect x="396.571" y="355.051" style="fill:#382210;" width="6.559" height="6.559"/>
			<rect x="390.012" y="361.61" style="fill:#382210;" width="6.559" height="6.559"/>
		</g>
		<g>
			<rect x="370.334" y="328.814" style="fill:#382210;" width="6.559" height="6.559"/>
			<rect x="363.774" y="335.373" style="fill:#382210;" width="6.559" height="6.559"/>
		</g>
	</g>
	<g>
		<g>
			<polygon style="fill:#754F26;" points="143.541,460 123.863,460 123.863,453.441 130.423,453.441 130.423,446.881 
				136.982,446.881 136.982,440.322 130.423,440.322 130.423,433.763 123.863,433.763 123.863,414.085 143.541,414.085 
				153.38,423.924 153.38,460 			"/>
			<polygon style="fill:#754F26;" points="117.304,315.695 117.304,309.136 123.863,309.136 123.863,302.576 163.219,302.576 
				163.219,309.136 169.779,309.136 169.779,315.695 182.897,315.695 182.897,322.254 117.304,322.254 			"/>
			<polygon style="fill:#754F26;" points="110.745,381.288 110.745,394.407 104.185,394.407 104.185,400.966 97.626,400.966 
				91.067,400.966 91.067,414.085 97.626,414.085 97.626,407.525 123.863,407.525 123.863,381.288 			"/>
			<polygon style="fill:#FFD3A3;" points="222.253,460 136.982,460 136.982,453.441 143.541,453.441 143.541,446.881 150.1,446.881 
				150.1,440.322 143.541,440.322 143.541,433.763 136.982,433.763 136.982,427.203 130.423,427.203 130.423,414.085 
				123.863,414.085 123.863,407.525 117.304,407.525 117.304,400.966 110.745,400.966 110.745,394.407 104.185,394.407 
				104.185,387.848 97.626,387.848 97.626,381.288 97.626,374.729 91.067,374.729 91.067,368.169 84.507,368.169 84.507,361.61 
				84.507,348.491 77.948,348.491 77.948,328.814 84.507,328.814 84.507,322.254 91.067,322.254 91.067,315.695 117.304,315.695 
				130.423,315.695 130.423,309.136 136.982,309.136 143.541,309.136 163.219,309.136 163.219,315.695 176.338,315.695 
				176.338,322.254 182.897,322.254 182.897,328.814 189.456,328.814 189.456,341.932 182.897,341.932 182.897,348.491 
				176.338,348.491 176.338,355.051 196.016,355.051 196.016,361.61 209.134,361.61 209.134,368.169 215.694,368.169 
				215.694,374.729 222.253,374.729 222.253,381.288 228.812,381.288 228.812,387.848 235.372,387.848 235.372,433.763 
				228.812,433.763 228.812,440.322 228.812,446.881 228.812,453.441 222.253,453.441 			"/>
		</g>
		<polygon style="fill:#FFFFFF;" points="97.626,374.729 104.185,374.729 104.185,381.288 117.304,381.288 117.304,387.848 
			123.863,387.848 123.863,400.966 130.423,400.966 130.423,407.525 143.541,407.525 143.541,414.085 150.1,414.085 150.1,427.203 
			156.66,427.203 156.66,433.763 156.66,440.322 143.541,440.322 143.541,433.763 136.982,433.763 136.982,427.203 130.423,427.203 
			130.423,414.085 123.863,414.085 123.863,407.525 117.304,407.525 117.304,400.966 110.745,400.966 110.745,394.407 
			104.185,394.407 104.185,387.848 97.626,387.848 		"/>
		<rect x="117.304" y="328.814" style="fill:#28211C;" width="6.559" height="6.559"/>
		<g>
			<rect x="84.507" y="322.254" style="fill:#28211C;" width="6.559" height="6.559"/>
			<rect x="77.948" y="328.814" style="fill:#28211C;" width="13.119" height="6.559"/>
		</g>
		<polygon style="fill:#E2AE6A;" points="169.779,322.254 156.66,322.254 156.66,328.814 150.1,328.814 150.1,335.373 
			143.541,335.373 143.541,341.932 150.1,341.932 150.1,348.491 156.66,348.491 156.66,355.051 169.779,355.051 169.779,348.491 
			176.338,348.491 176.338,328.814 176.338,322.254 		"/>
		<polygon style="fill:#FFD3A3;" points="130.423,387.848 130.423,400.966 123.863,400.966 123.863,407.525 117.304,407.525 
			110.745,407.525 110.745,420.644 117.304,420.644 117.304,414.085 143.541,414.085 143.541,387.848 		"/>
		<polygon style="fill:#FFD3A3;" points="235.372,407.525 241.931,407.525 241.931,414.085 248.49,414.085 248.49,440.322 
			255.05,440.322 255.05,427.203 261.609,427.203 261.609,420.644 268.168,420.644 268.168,427.203 261.609,427.203 
			261.609,446.881 241.931,446.881 241.931,414.085 235.372,414.085 		"/>
	</g>
	<g>
		<polygon style="fill:#AA7A41;" points="659.058,289.458 659.058,296.017 652.499,296.017 652.499,302.576 639.38,302.576 
			639.38,296.017 632.821,296.017 632.821,289.458 626.261,289.458 626.261,282.898 619.702,282.898 613.143,282.898 
			600.024,282.898 593.465,282.898 586.906,282.898 586.906,289.458 580.346,289.458 580.346,296.017 573.787,296.017 
			573.787,302.576 560.668,302.576 560.668,296.017 554.109,296.017 554.109,289.458 547.55,289.458 547.55,315.695 
			554.109,315.695 554.109,322.254 554.109,322.254 554.109,328.814 560.668,328.814 560.668,341.932 567.228,341.932 
			567.228,348.491 573.787,348.491 573.787,355.051 580.346,355.051 580.346,381.288 573.787,381.288 573.787,374.729 
			567.228,374.729 567.228,368.169 554.109,368.169 554.109,381.288 547.55,381.288 547.55,394.407 554.109,394.407 
			554.109,400.966 560.668,400.966 560.668,420.644 567.228,420.644 567.228,427.203 573.787,427.203 573.787,433.763 
			567.228,433.763 567.228,440.322 560.668,440.322 560.668,453.441 567.228,453.441 573.787,453.441 573.787,446.881 
			580.346,446.881 580.346,440.322 593.465,440.322 619.702,440.322 632.821,440.322 632.821,446.881 639.38,446.881 
			639.38,453.441 645.94,453.441 652.499,453.441 652.499,440.322 645.94,440.322 645.94,433.763 639.38,433.763 639.38,427.203 
			645.94,427.203 645.94,420.644 652.499,420.644 652.499,400.966 659.058,400.966 659.058,394.407 665.617,394.407 
			665.617,381.288 659.058,381.288 659.058,368.169 645.94,368.169 645.94,374.729 639.38,374.729 639.38,381.288 632.821,381.288 
			632.821,355.051 639.38,355.051 639.38,348.491 645.94,348.491 645.94,341.932 652.499,341.932 652.499,328.814 659.058,328.814 
			659.058,322.254 659.058,322.254 659.058,315.695 665.617,315.695 665.617,289.458 		"/>
		<polygon style="fill:#E2AE6A;" points="606.584,302.576 600.024,302.576 600.024,296.017 593.465,296.017 593.465,302.576 
			586.906,302.576 586.906,309.136 580.346,309.136 580.346,315.695 573.787,315.695 573.787,328.814 580.346,328.814 
			580.346,335.373 586.906,335.373 586.906,341.932 593.465,341.932 593.465,348.491 619.702,348.491 619.702,341.932 
			626.261,341.932 626.261,335.373 632.821,335.373 632.821,328.814 639.38,328.814 639.38,315.695 632.821,315.695 
			632.821,309.136 626.261,309.136 626.261,302.576 619.702,302.576 619.702,296.017 613.143,296.017 613.143,302.576 		"/>
		<polygon style="fill:#E2AE6A;" points="613.143,368.169 613.143,361.61 606.584,361.61 600.024,361.61 600.024,368.169 
			593.465,368.169 593.465,420.644 600.024,420.644 600.024,427.203 606.584,427.203 613.143,427.203 613.143,420.644 
			619.702,420.644 619.702,368.169 		"/>
		<polygon style="fill:#754F26;" points="580.346,381.288 580.346,394.407 580.346,420.644 580.346,440.322 580.346,446.881 
			573.787,446.881 573.787,453.441 560.668,453.441 560.668,440.322 567.228,440.322 567.228,433.763 573.787,433.763 
			573.787,427.203 567.228,427.203 567.228,420.644 560.668,420.644 560.668,400.966 554.109,400.966 554.109,394.407 
			547.55,394.407 547.55,381.288 554.109,381.288 554.109,368.169 567.228,368.169 567.228,374.729 573.787,374.729 
			573.787,381.288 		"/>
		<polygon style="fill:#754F26;" points="632.821,381.288 632.821,394.407 632.821,420.644 632.821,440.322 632.821,446.881 
			639.38,446.881 639.38,453.441 652.499,453.441 652.499,440.322 645.94,440.322 645.94,433.763 639.38,433.763 639.38,427.203 
			645.94,427.203 645.94,420.644 652.499,420.644 652.499,400.966 659.058,400.966 659.058,394.407 665.617,394.407 
			665.617,381.288 659.058,381.288 659.058,368.169 645.94,368.169 645.94,374.729 639.38,374.729 639.38,381.288 		"/>
		<polygon style="fill:#AA7A41;" points="586.906,440.322 586.906,446.881 593.465,446.881 593.465,453.441 600.024,453.441 
			600.024,440.322 		"/>
		<polygon style="fill:#AA7A41;" points="626.261,440.322 626.261,446.881 619.702,446.881 619.702,453.441 613.143,453.441 
			613.143,440.322 		"/>
		<rect x="580.346" y="433.763" style="fill:#754F26;" width="6.559" height="6.559"/>
		<rect x="626.261" y="433.763" style="fill:#754F26;" width="6.559" height="6.559"/>
		<g>
			<rect x="586.906" y="315.695" style="fill:#28211C;" width="6.559" height="6.559"/>
			<rect x="619.702" y="315.695" style="fill:#28211C;" width="6.559" height="6.559"/>
		</g>
		<polygon style="fill:#754F26;" points="554.109,309.136 560.668,309.136 560.668,315.695 567.228,315.695 567.228,328.814 
			560.668,328.814 560.668,315.695 554.109,315.695 		"/>
		<polygon style="fill:#754F26;" points="659.058,309.136 652.499,309.136 652.499,315.695 645.94,315.695 645.94,328.814 
			652.499,328.814 652.499,315.695 659.058,315.695 		"/>
		<rect x="600.024" y="328.814" style="fill:#28211C;" width="13.119" height="6.559"/>
	</g>
	<g>
		<g>
			<rect x="291.622" y="292.737" style="fill:#513418;" width="6.559" height="6.559"/>
			<rect x="298.181" y="292.737" style="fill:#513418;" width="6.559" height="6.559"/>
			<rect x="304.74" y="292.737" style="fill:#513418;" width="6.559" height="6.559"/>
			<rect x="298.181" y="299.297" style="fill:#513418;" width="6.559" height="6.559"/>
			<rect x="291.622" y="305.856" style="fill:#513418;" width="6.559" height="6.559"/>
			<rect x="304.74" y="299.297" style="fill:#513418;" width="6.559" height="6.559"/>
			<rect x="311.3" y="292.737" style="fill:#513418;" width="6.559" height="6.559"/>
			<rect x="291.622" y="286.178" style="fill:#754F26;" width="6.559" height="6.559"/>
			<rect x="298.181" y="286.178" style="fill:#754F26;" width="6.559" height="6.559"/>
			<rect x="304.74" y="286.178" style="fill:#754F26;" width="6.559" height="6.559"/>
			<rect x="298.181" y="279.619" style="fill:#754F26;" width="6.559" height="6.559"/>
			<rect x="304.74" y="279.619" style="fill:#754F26;" width="6.559" height="6.559"/>
			<rect x="311.3" y="286.178" style="fill:#754F26;" width="6.559" height="6.559"/>
		</g>
		<g>
			<rect x="491.929" y="199.305" style="fill:#513418;" width="6.559" height="6.559"/>
			<rect x="498.488" y="199.305" style="fill:#513418;" width="6.559" height="6.559"/>
			<rect x="505.047" y="199.305" style="fill:#513418;" width="6.559" height="6.559"/>
			<rect x="498.488" y="205.864" style="fill:#513418;" width="6.559" height="6.559"/>
			<rect x="491.929" y="212.424" style="fill:#513418;" width="6.559" height="6.559"/>
			<rect x="505.047" y="205.864" style="fill:#513418;" width="6.559" height="6.559"/>
			<rect x="511.607" y="199.305" style="fill:#513418;" width="6.559" height="6.559"/>
			<rect x="491.929" y="192.746" style="fill:#754F26;" width="6.559" height="6.559"/>
			<rect x="498.488" y="192.746" style="fill:#754F26;" width="6.559" height="6.559"/>
			<rect x="505.047" y="192.746" style="fill:#754F26;" width="6.559" height="6.559"/>
			<rect x="498.488" y="186.186" style="fill:#754F26;" width="6.559" height="6.559"/>
			<rect x="505.047" y="186.186" style="fill:#754F26;" width="6.559" height="6.559"/>
			<rect x="511.607" y="192.746" style="fill:#754F26;" width="6.559" height="6.559"/>
		</g>
		<g>
			<rect x="81.228" y="267.62" style="fill:#513418;" width="6.559" height="6.559"/>
			<rect x="87.787" y="267.62" style="fill:#513418;" width="6.559" height="6.559"/>
			<rect x="94.346" y="267.62" style="fill:#513418;" width="6.559" height="6.559"/>
			<rect x="87.787" y="274.18" style="fill:#513418;" width="6.559" height="6.559"/>
			<rect x="81.228" y="280.739" style="fill:#513418;" width="6.559" height="6.559"/>
			<rect x="94.346" y="274.18" style="fill:#513418;" width="6.559" height="6.559"/>
			<rect x="100.906" y="267.62" style="fill:#513418;" width="6.559" height="6.559"/>
			<rect x="81.228" y="261.061" style="fill:#754F26;" width="6.559" height="6.559"/>
			<rect x="87.787" y="261.061" style="fill:#754F26;" width="6.559" height="6.559"/>
			<rect x="94.346" y="261.061" style="fill:#754F26;" width="6.559" height="6.559"/>
			<rect x="87.787" y="254.502" style="fill:#754F26;" width="6.559" height="6.559"/>
			<rect x="94.346" y="254.502" style="fill:#754F26;" width="6.559" height="6.559"/>
			<rect x="100.906" y="261.061" style="fill:#754F26;" width="6.559" height="6.559"/>
		</g>
		<g>
			<rect x="228.812" y="97.636" style="fill:#513418;" width="6.559" height="6.559"/>
			<rect x="235.372" y="97.636" style="fill:#513418;" width="6.559" height="6.559"/>
			<rect x="241.931" y="97.636" style="fill:#513418;" width="6.559" height="6.559"/>
			<rect x="235.372" y="104.195" style="fill:#513418;" width="6.559" height="6.559"/>
			<rect x="228.812" y="110.754" style="fill:#513418;" width="6.559" height="6.559"/>
			<rect x="241.931" y="104.195" style="fill:#513418;" width="6.559" height="6.559"/>
			<rect x="248.49" y="97.636" style="fill:#513418;" width="6.559" height="6.559"/>
			<rect x="228.812" y="91.076" style="fill:#754F26;" width="6.559" height="6.559"/>
			<rect x="235.372" y="91.076" style="fill:#754F26;" width="6.559" height="6.559"/>
			<rect x="241.931" y="91.076" style="fill:#754F26;" width="6.559" height="6.559"/>
			<rect x="235.372" y="84.517" style="fill:#754F26;" width="6.559" height="6.559"/>
			<rect x="241.931" y="84.517" style="fill:#754F26;" width="6.559" height="6.559"/>
			<rect x="248.49" y="91.076" style="fill:#754F26;" width="6.559" height="6.559"/>
		</g>
	</g>
</g>
</svg>
