<?xml version="1.0" encoding="utf-8"?>
<!-- Generator: Adobe Illustrator 27.5.0, SVG Export Plug-In . SVG Version: 6.00 Build 0)  -->
<svg version="1.1" xmlns="http://www.w3.org/2000/svg" xmlns:xlink="http://www.w3.org/1999/xlink" x="0px" y="0px"
	 viewBox="0 0 750 500" style="enable-background:new 0 0 750 500;" xml:space="preserve">
<g id="BACKGROUND">
	<rect style="fill:#E3E2D3;" width="750" height="500"/>
</g>
<g id="OBJECTS">
	<g>
		<polygon style="fill:#FFFFFF;" points="510.188,342.7 502.462,342.7 502.462,350.425 494.737,350.425 494.737,358.15 
			487.012,358.15 487.012,365.875 479.287,365.875 479.287,373.6 479.287,381.325 487.012,381.325 487.012,373.6 494.737,373.6 
			502.462,373.6 502.462,365.875 517.912,365.875 517.912,358.15 525.638,358.15 525.638,350.425 517.912,350.425 517.912,342.7 		
			"/>
		<polygon style="fill:#CACEE0;" points="656.962,334.975 656.962,327.25 649.237,327.25 649.237,319.525 641.513,319.525 
			633.787,319.525 633.787,311.8 626.063,311.8 626.063,304.075 595.162,304.075 595.162,288.625 587.438,288.625 587.438,280.9 
			564.263,280.9 564.263,288.625 556.537,288.625 556.537,296.35 525.638,296.35 517.912,296.35 517.912,288.625 510.188,288.625 
			510.188,280.9 502.462,280.9 502.462,288.625 494.737,288.625 494.737,304.075 494.737,311.8 502.462,311.8 502.462,334.975 
			502.462,342.7 487.012,342.7 487.012,327.25 479.287,327.25 479.287,319.525 487.012,319.525 487.012,304.075 479.287,304.075 
			479.287,296.35 471.563,296.35 463.837,296.35 463.837,304.075 456.112,304.075 456.112,319.525 463.837,319.525 463.837,334.975 
			463.837,350.425 471.563,350.425 471.563,358.15 479.287,358.15 479.287,365.875 502.462,365.875 502.462,358.15 510.188,358.15 
			510.188,435.4 502.462,435.4 502.462,443.125 533.362,443.125 533.362,396.775 548.813,396.775 548.813,435.4 541.087,435.4 
			541.087,443.125 571.987,443.125 571.987,419.95 579.712,419.95 579.712,404.5 595.162,404.5 595.162,427.675 587.438,427.675 
			587.438,435.4 610.612,435.4 610.612,396.775 626.063,396.775 626.063,435.4 618.337,435.4 618.337,443.125 649.237,443.125 
			649.237,389.05 656.962,389.05 656.962,381.325 664.688,381.325 664.688,342.7 664.688,334.975 		"/>
		<rect x="517.912" y="288.625" style="fill:#CACEE0;" width="30.9" height="7.725"/>
		<polygon style="fill:#949AAF;" points="456.112,304.075 456.112,311.8 463.837,311.8 463.837,319.525 471.563,319.525 
			471.563,311.8 479.287,311.8 479.287,304.075 471.563,304.075 471.563,311.8 463.837,311.8 463.837,304.075 		"/>
		<rect x="541.087" y="435.4" style="fill:#FFFFFF;" width="7.725" height="7.725"/>
		<rect x="618.337" y="435.4" style="fill:#FFFFFF;" width="7.725" height="7.725"/>
		<polygon style="fill:#949AAF;" points="556.537,296.35 564.263,296.35 564.263,311.8 571.987,311.8 571.987,327.25 
			556.537,327.25 556.537,342.7 564.263,342.7 564.263,350.425 571.987,350.425 571.987,358.15 579.712,358.15 579.712,350.425 
			595.162,350.425 595.162,334.975 602.888,334.975 602.888,304.075 595.162,304.075 595.162,288.625 587.438,288.625 
			587.438,280.9 564.263,280.9 564.263,288.625 556.537,288.625 		"/>
		<polygon style="fill:#949AAF;" points="510.188,288.625 510.188,280.9 502.462,280.9 502.462,288.625 494.737,288.625 
			494.737,311.8 494.737,319.525 502.462,319.525 502.462,311.8 502.462,304.075 510.188,304.075 510.188,296.35 517.912,296.35 
			517.912,288.625 		"/>
		<polygon style="fill:#949AAF;" points="510.188,358.15 510.188,365.875 517.912,365.875 517.912,373.6 525.638,373.6 
			525.638,381.325 525.638,396.775 533.362,396.775 533.362,443.125 502.462,443.125 502.462,435.4 510.188,435.4 		"/>
		<polygon style="fill:#949AAF;" points="595.162,404.5 595.162,396.775 602.888,396.775 602.888,396.775 610.612,396.775 
			610.612,435.4 587.438,435.4 587.438,427.675 595.162,427.675 		"/>
		<rect x="533.362" y="319.525" style="fill:#28211C;" width="7.725" height="7.725"/>
		<rect x="502.462" y="319.525" style="fill:#28211C;" width="7.725" height="7.725"/>
		<polygon style="fill:#FFFFFF;" points="533.362,350.425 525.638,350.425 525.638,358.15 517.912,358.15 517.912,365.875 
			510.188,365.875 510.188,373.6 502.462,373.6 502.462,381.325 502.462,389.05 510.188,389.05 510.188,381.325 517.912,381.325 
			525.638,381.325 525.638,373.6 541.087,373.6 541.087,365.875 548.813,365.875 548.813,358.15 541.087,358.15 541.087,350.425 		
			"/>
		<g>
			<polygon style="fill:#949AAF;" points="680.138,358.15 680.138,373.6 672.412,373.6 672.412,342.7 664.688,342.7 
				664.688,350.425 664.688,381.325 672.412,381.325 672.412,389.05 680.138,389.05 680.138,381.325 687.862,381.325 
				687.862,365.875 695.587,365.875 695.587,358.15 			"/>
			<rect x="695.587" y="350.425" style="fill:#28211C;" width="7.725" height="7.725"/>
			<rect x="687.862" y="350.425" style="fill:#28211C;" width="7.725" height="7.725"/>
			<rect x="695.587" y="358.15" style="fill:#28211C;" width="7.725" height="7.725"/>
		</g>
		<rect x="618.337" y="311.8" style="fill:#CACEE0;" width="30.9" height="23.175"/>
		<rect x="626.063" y="319.525" style="fill:#CACEE0;" width="30.9" height="23.175"/>
	</g>
	<g>
		<polygon style="fill:#513418;" points="363.413,381.325 363.413,435.4 355.688,435.4 355.688,443.125 386.587,443.125 
			386.587,412.225 394.313,412.225 394.313,389.05 402.038,389.05 402.038,381.325 		"/>
		<g>
			<polygon style="fill:#754F26;" points="417.487,327.25 417.487,319.525 402.038,319.525 402.038,311.8 394.313,311.8 
				394.313,304.075 363.413,304.075 363.413,311.8 332.512,311.8 332.512,304.075 324.788,304.075 324.788,296.35 301.612,296.35 
				301.612,304.075 293.887,304.075 293.887,311.8 285.906,311.8 270.712,311.8 270.712,304.075 262.987,304.075 262.987,327.25 
				262.987,334.975 247.537,334.975 247.537,350.425 255.262,350.425 255.262,358.15 262.987,358.15 262.987,365.875 
				270.712,365.875 270.712,435.4 262.987,435.4 262.987,443.125 293.887,443.125 293.887,412.225 301.612,412.225 301.612,404.5 
				309.337,404.5 309.337,381.325 332.512,381.325 363.413,381.325 394.313,381.325 394.313,443.125 386.587,443.125 
				386.587,450.85 417.487,450.85 417.487,381.325 425.212,381.325 425.212,327.25 			"/>
		</g>
		<polygon style="fill:#AA7A41;" points="262.987,334.975 270.712,334.975 270.712,327.25 286.163,327.25 286.163,334.975 
			293.887,334.975 293.887,342.7 301.612,342.7 301.612,350.425 309.337,350.425 309.337,358.15 301.612,358.15 301.612,365.875 
			293.887,365.875 293.887,373.6 286.163,373.6 286.163,381.325 278.438,381.325 278.438,373.6 270.712,373.6 270.712,365.875 
			262.987,365.875 262.987,358.15 255.262,358.15 255.262,350.425 247.537,350.425 247.537,334.975 		"/>
		<polygon style="fill:#754F26;" points="309.337,381.325 309.337,443.125 301.612,443.125 301.612,450.85 332.512,450.85 
			332.512,412.225 340.237,412.225 340.237,389.05 347.962,389.05 347.962,381.325 		"/>
		<polygon style="fill:#513418;" points="278.438,381.325 278.438,373.6 270.712,373.6 270.712,435.4 262.987,435.4 
			262.987,443.125 293.887,443.125 293.887,412.225 301.612,412.225 301.612,381.325 		"/>
		<polygon style="fill:#754F26;" points="432.938,389.05 432.938,358.15 425.212,358.15 425.212,373.6 417.487,373.6 
			417.487,389.05 425.212,389.05 425.212,396.775 440.662,396.775 440.662,389.05 		"/>
		<rect x="432.938" y="381.325" style="fill:#382210;" width="7.725" height="7.725"/>
		<rect x="440.662" y="389.05" style="fill:#382210;" width="7.725" height="7.725"/>
		<rect x="432.938" y="396.775" style="fill:#382210;" width="7.725" height="7.725"/>
		<polygon style="fill:#AA7A41;" points="301.612,311.8 309.337,311.8 309.337,319.525 317.063,319.525 317.063,327.25 
			324.788,327.25 324.788,350.425 332.512,350.425 332.512,358.15 324.788,358.15 324.788,365.875 332.512,365.875 332.512,358.15 
			340.237,358.15 340.237,350.425 332.512,350.425 332.512,327.25 324.788,327.25 324.788,319.525 317.063,319.525 317.063,311.8 
			309.337,311.8 309.337,304.075 301.612,304.075 		"/>
		<rect x="286.163" y="327.25" style="fill:#28211C;" width="7.725" height="7.725"/>
		<rect x="262.987" y="327.25" style="fill:#28211C;" width="7.725" height="7.725"/>
		<polygon style="fill:#28211C;" points="247.537,334.975 247.537,342.7 247.537,350.425 255.262,350.425 255.262,342.7 
			262.987,342.7 262.987,334.975 		"/>
		<polygon style="fill:#28211C;" points="286.163,350.425 278.438,350.425 278.438,358.15 270.712,358.15 270.712,365.875 
			278.438,365.875 278.438,358.15 286.163,358.15 		"/>
		<rect x="255.262" y="311.8" style="fill:#754F26;" width="7.725" height="23.175"/>
		<rect x="255.262" y="311.8" style="fill:#513418;" width="7.725" height="7.725"/>
		<rect x="301.612" y="311.8" style="fill:#513418;" width="7.725" height="7.725"/>
		<polygon style="fill:#754F26;" points="378.862,381.325 378.862,389.05 386.587,389.05 386.587,396.775 386.587,404.5 
			394.313,404.5 394.313,381.325 		"/>
	</g>
	<g>
		<polygon style="fill:#9B3A38;" points="131.663,381.325 131.663,389.05 123.938,389.05 123.938,396.775 116.213,396.775 
			116.213,404.5 108.488,404.5 108.488,450.85 100.762,450.85 100.762,381.325 		"/>
		<polygon style="fill:#9B3A38;" points="185.738,365.875 185.738,381.325 178.012,381.325 178.012,389.05 178.012,450.85 
			170.288,450.85 170.288,396.775 162.563,396.775 162.563,365.875 		"/>
		<rect x="69.863" y="373.6" style="fill:#FFB031;" width="15.45" height="15.45"/>
		<polygon style="fill:#754F26;" points="162.563,273.175 154.837,273.175 154.837,280.9 147.113,280.9 147.113,304.075 
			139.387,304.075 139.387,311.8 131.663,311.8 131.663,319.525 162.563,319.525 		"/>
		<polygon style="fill:#FFB031;" points="193.462,288.625 193.462,288.625 185.738,288.625 185.738,311.8 178.012,311.8 
			178.012,334.813 185.738,334.813 185.738,365.875 178.012,365.875 178.012,373.6 170.288,373.6 170.288,381.325 162.563,381.325 
			162.563,458.575 154.837,458.575 154.837,412.225 147.113,412.225 147.113,404.5 139.387,404.5 139.387,381.325 116.213,381.325 
			116.213,389.05 108.488,389.05 108.488,396.775 100.762,396.775 100.762,404.5 93.037,404.5 93.037,458.575 85.313,458.575 
			85.313,404.5 85.313,381.325 77.588,381.325 77.588,373.6 69.863,373.6 69.863,334.975 77.588,334.975 77.588,327.25 
			85.313,327.25 85.313,319.525 116.213,319.525 116.213,327.25 154.837,327.25 154.837,304.075 162.563,304.075 162.563,265.45 
			154.837,265.45 154.837,257.725 154.837,250 162.563,250 162.563,257.725 178.012,257.725 178.012,250 185.738,250 
			185.738,257.725 201.188,257.725 201.188,265.45 208.912,265.45 208.912,288.625 		"/>
		<polygon style="fill:#FFD54D;" points="193.462,265.45 193.462,273.175 185.738,273.175 185.738,280.9 185.738,288.625 
			208.912,288.625 208.912,265.45 		"/>
		<rect x="147.113" y="319.525" style="fill:#FFB031;" width="7.725" height="7.725"/>
		<rect x="139.387" y="319.525" style="fill:#FFB031;" width="7.725" height="7.725"/>
		<rect x="131.663" y="319.525" style="fill:#FFB031;" width="7.725" height="7.725"/>
		<rect x="123.938" y="319.525" style="fill:#FFB031;" width="7.725" height="7.725"/>
		<rect x="116.213" y="319.525" style="fill:#FFB031;" width="7.725" height="7.725"/>
		<rect x="100.762" y="311.8" style="fill:#FFB031;" width="46.35" height="7.725"/>
		<rect x="178.012" y="257.725" style="fill:#28211C;" width="7.725" height="7.725"/>
		<rect x="193.462" y="257.725" style="fill:#28211C;" width="7.725" height="7.725"/>
		<rect x="201.188" y="280.9" style="fill:#28211C;" width="7.725" height="7.725"/>
		<polygon style="fill:#FFB031;" points="77.588,365.875 69.863,365.875 69.863,396.775 62.138,396.775 62.138,419.95 
			54.412,419.95 54.412,427.675 62.138,427.675 62.138,419.95 69.863,419.95 69.863,396.775 77.588,396.775 		"/>
		<rect x="54.412" y="427.675" style="fill:#28211C;" width="7.725" height="7.725"/>
		<rect x="46.688" y="427.675" style="fill:#28211C;" width="7.725" height="7.725"/>
		<rect x="116.213" y="342.7" style="fill:#F0923D;" width="7.725" height="7.725"/>
		<rect x="123.938" y="350.425" style="fill:#F0923D;" width="7.725" height="7.725"/>
		<rect x="85.313" y="342.7" style="fill:#F0923D;" width="7.725" height="7.725"/>
		<rect x="93.037" y="334.975" style="fill:#F0923D;" width="7.725" height="7.725"/>
		<rect x="147.113" y="334.975" style="fill:#F0923D;" width="7.725" height="7.725"/>
		<rect x="154.837" y="365.875" style="fill:#F0923D;" width="7.725" height="7.725"/>
		<rect x="170.288" y="304.075" style="fill:#F0923D;" width="7.725" height="7.725"/>
		<rect x="85.313" y="373.6" style="fill:#F0923D;" width="7.725" height="7.725"/>
		<rect x="85.313" y="450.85" style="fill:#28211C;" width="7.725" height="7.725"/>
		<rect x="154.837" y="450.85" style="fill:#28211C;" width="7.725" height="7.725"/>
		<rect x="62.138" y="342.7" style="fill:#FFB031;" width="7.725" height="38.625"/>
	</g>
	<g>
		<rect x="548.813" y="311.8" style="fill:#28211C;" width="7.725" height="7.725"/>
		<rect x="548.813" y="334.975" style="fill:#28211C;" width="7.725" height="7.725"/>
		<polygon style="fill:#28211C;" points="564.263,327.25 564.263,319.525 556.537,319.525 556.537,327.25 556.537,334.975 
			571.987,334.975 571.987,327.25 		"/>
	</g>
	<g>
		<polygon style="fill:#513418;" points="116.213,195.925 116.213,203.65 108.488,203.65 108.488,211.375 93.037,211.375 
			93.037,219.1 85.313,219.1 85.313,226.825 131.663,226.825 131.663,195.925 123.938,195.925 		"/>
		<polygon style="fill:#513418;" points="93.037,149.575 85.313,149.575 85.313,157.3 77.588,157.3 77.588,165.025 69.863,165.025 
			69.863,180.475 85.313,180.475 85.313,165.025 93.037,165.025 		"/>
		<polygon style="fill:#754F26;" points="232.087,180.475 232.087,188.2 224.363,188.2 224.363,195.925 216.637,195.925 
			216.637,203.65 208.912,203.65 201.188,203.65 201.188,195.925 193.462,195.925 193.462,188.2 193.462,180.475 193.462,157.3 
			185.738,157.3 185.738,149.575 178.012,149.575 178.012,141.85 154.837,141.85 154.837,134.125 123.938,134.125 116.213,134.125 
			116.213,126.4 108.488,126.4 108.488,118.675 108.488,87.775 116.213,87.775 116.213,80.05 123.938,80.05 123.938,56.875 
			116.213,56.875 116.213,64.6 108.488,64.6 108.488,72.325 100.762,72.325 100.762,80.05 100.762,87.775 93.037,87.775 
			93.037,72.325 85.313,72.325 85.313,64.6 77.588,64.6 77.588,56.875 69.863,56.875 69.863,80.05 77.588,80.05 77.588,87.775 
			85.313,87.775 85.313,95.5 77.588,95.5 77.588,103.225 69.863,103.225 69.863,118.675 77.588,118.675 85.313,118.675 
			85.313,126.4 93.037,126.4 93.037,149.575 93.037,157.3 85.313,157.3 85.313,165.025 77.588,165.025 77.588,180.475 
			93.037,180.475 93.037,172.75 100.762,172.75 100.762,165.025 108.488,165.025 108.488,172.75 108.488,180.475 116.213,180.475 
			116.213,195.925 123.938,195.925 123.938,203.65 131.663,203.65 131.663,211.375 108.488,211.375 100.762,211.375 100.762,219.1 
			93.037,219.1 93.037,226.825 162.563,226.825 162.563,211.375 154.837,211.375 154.837,203.65 178.012,203.65 178.012,211.375 
			185.738,211.375 185.738,219.1 193.462,219.1 193.462,226.825 224.363,226.825 224.363,211.375 232.087,211.375 232.087,203.65 
			232.087,195.925 239.813,195.925 239.813,188.2 239.813,180.475 		"/>
		<polygon style="fill:#AA7A41;" points="85.313,95.5 85.313,103.225 108.488,103.225 108.488,118.675 100.762,118.675 
			100.762,149.575 93.037,149.575 93.037,126.4 85.313,126.4 85.313,118.675 69.863,118.675 69.863,103.225 77.588,103.225 
			77.588,95.5 		"/>
		<polygon style="fill:#AA7A41;" points="108.488,165.025 108.488,157.3 116.213,157.3 116.213,165.025 123.938,165.025 
			123.938,180.475 131.663,180.475 131.663,203.65 123.938,203.65 123.938,195.925 116.213,195.925 116.213,180.475 
			108.488,180.475 		"/>
		<rect x="93.037" y="95.5" style="fill:#28211C;" width="7.725" height="7.725"/>
		<rect x="69.863" y="103.225" style="fill:#28211C;" width="7.725" height="7.725"/>
		<rect x="77.588" y="95.5" style="fill:#28211C;" width="7.725" height="7.725"/>
		<polygon style="fill:#AA7A41;" points="108.488,87.775 108.488,80.05 116.213,80.05 116.213,72.325 123.938,72.325 123.938,80.05 
			116.213,80.05 116.213,87.775 		"/>
		<polygon style="fill:#AA7A41;" points="69.863,72.325 77.588,72.325 77.588,80.05 85.313,80.05 85.313,87.775 77.588,87.775 
			77.588,80.05 69.863,80.05 		"/>
		<polygon style="fill:#513418;" points="178.012,203.65 185.738,203.65 185.738,195.925 193.462,195.925 193.462,211.375 
			201.188,211.375 201.188,219.1 216.637,219.1 216.637,211.375 224.363,211.375 224.363,226.825 193.462,226.825 193.462,219.1 
			185.738,219.1 185.738,211.375 178.012,211.375 		"/>
	</g>
	<g>
		<polygon style="fill:#513418;" points="293.887,157.3 293.887,172.75 301.612,172.75 301.612,180.475 309.337,180.475 
			309.337,226.825 317.063,226.825 317.063,157.3 		"/>
		<polygon style="fill:#513418;" points="355.688,157.3 355.688,172.75 355.688,180.475 363.413,180.475 363.413,188.2 
			371.137,188.2 371.137,226.825 378.862,226.825 378.862,157.3 		"/>
		<polygon style="fill:#28211C;" points="293.887,80.05 286.163,80.05 286.163,72.325 278.438,72.325 278.438,64.6 255.262,64.6 
			255.262,49.15 262.987,49.15 262.987,56.875 270.712,56.875 270.712,41.425 278.438,41.425 278.438,56.875 286.163,56.875 
			286.163,72.325 293.887,72.325 		"/>
		<polygon style="fill:#E2AE6A;" points="394.313,126.4 402.038,126.4 402.038,118.675 409.762,118.675 409.762,110.95 
			417.487,110.95 417.487,126.4 409.762,126.4 409.762,134.125 402.038,134.125 394.313,134.125 		"/>
		<polygon style="fill:#AA7A41;" points="324.788,87.775 324.788,95.5 317.063,95.5 317.063,118.675 324.788,118.675 324.788,126.4 
			363.413,126.4 363.413,118.675 386.587,118.675 386.587,126.4 394.313,126.4 394.313,134.125 402.038,134.125 402.038,157.3 
			402.038,165.025 394.313,165.025 394.313,180.475 394.313,234.55 386.587,234.55 386.587,195.925 378.862,195.925 378.862,188.2 
			371.137,188.2 371.137,172.75 340.237,172.75 340.237,180.475 332.512,180.475 332.512,234.55 324.788,234.55 324.788,172.75 
			309.337,172.75 309.337,165.025 301.612,165.025 301.612,157.3 293.887,157.3 293.887,103.225 278.438,103.225 278.438,87.775 
			286.163,87.775 286.163,80.05 278.438,80.05 278.438,72.325 270.712,72.325 270.712,56.875 278.438,56.875 278.438,64.6 
			286.163,64.6 286.163,72.325 317.063,72.325 317.063,64.6 324.788,64.6 324.788,56.875 332.512,56.875 332.512,72.325 
			324.788,72.325 		"/>
		<polygon style="fill:#E2AE6A;" points="293.887,118.675 301.612,118.675 301.612,134.125 309.337,134.125 309.337,149.575 
			317.063,149.575 317.063,165.025 324.788,165.025 324.788,172.75 309.337,172.75 309.337,165.025 301.612,165.025 301.612,157.3 
			293.887,157.3 		"/>
		<rect x="278.438" y="87.775" style="fill:#28211C;" width="7.725" height="7.725"/>
		<rect x="286.163" y="80.05" style="fill:#28211C;" width="7.725" height="7.725"/>
		<rect x="301.612" y="80.05" style="fill:#28211C;" width="7.725" height="7.725"/>
		<polygon style="fill:#28211C;" points="324.788,80.05 332.512,80.05 332.512,72.325 340.237,72.325 340.237,64.6 363.413,64.6 
			363.413,49.15 355.688,49.15 355.688,56.875 347.962,56.875 347.962,41.425 340.237,41.425 340.237,56.875 332.512,56.875 
			332.512,72.325 324.788,72.325 		"/>
		<rect x="324.788" y="226.825" style="fill:#28211C;" width="7.725" height="7.725"/>
		<rect x="386.587" y="226.825" style="fill:#28211C;" width="7.725" height="7.725"/>
	</g>
	<g>
		<polygon style="fill:#3A3925;" points="633.787,172.75 633.787,180.475 626.063,180.475 626.063,188.2 618.337,188.2 
			618.337,211.375 626.063,211.375 626.063,219.1 602.888,219.1 602.888,172.75 		"/>
		<polygon style="fill:#3A3925;" points="548.813,195.925 548.813,188.2 517.912,188.2 517.912,219.1 541.087,219.1 548.813,219.1 
			548.813,211.375 541.087,211.375 541.087,195.925 		"/>
		<polygon style="fill:#58573B;" points="680.138,149.575 680.138,141.85 672.412,141.85 672.412,134.125 664.688,134.125 
			664.688,118.675 657.072,118.675 657.072,110.95 664.688,110.95 664.688,95.5 656.962,95.5 656.962,103.225 649.237,103.225 
			649.237,110.95 633.787,110.95 633.787,103.225 626.063,103.225 626.063,95.5 618.337,95.5 618.337,110.95 610.612,110.95 
			610.612,103.225 602.888,103.225 579.712,103.225 579.712,110.95 571.987,110.95 571.987,118.675 541.087,118.675 541.087,110.95 
			510.188,110.95 510.188,118.675 494.737,118.675 494.737,126.4 487.012,126.4 487.012,165.025 494.737,165.025 494.737,172.75 
			502.462,172.75 502.462,226.825 533.362,226.825 533.362,219.1 525.638,219.1 525.638,188.2 579.712,188.2 579.712,226.825 
			610.612,226.825 610.612,219.1 602.888,219.1 602.888,188.2 618.337,188.2 618.337,180.475 626.063,180.475 626.063,172.75 
			633.787,172.75 633.787,165.025 649.237,165.025 649.237,172.75 664.688,172.75 664.688,180.475 680.138,180.475 680.138,172.75 
			687.862,172.75 687.862,149.575 		"/>
		<polygon style="fill:#FFFFFF;" points="687.862,126.4 680.138,126.4 680.138,134.125 672.412,134.125 672.412,141.85 
			664.688,141.85 664.688,149.575 687.862,149.575 		"/>
		<rect x="656.962" y="126.4" style="fill:#FFFFFF;" width="7.725" height="7.725"/>
		<rect x="664.688" y="118.675" style="fill:#FFFFFF;" width="7.725" height="7.725"/>
		<rect x="633.787" y="118.675" style="fill:#28211C;" width="7.725" height="7.725"/>
		<rect x="656.962" y="118.675" style="fill:#28211C;" width="7.725" height="7.725"/>
		<polygon style="fill:#7F7D59;" points="602.888,134.125 610.612,134.125 610.612,141.85 618.337,141.85 618.337,149.575 
			626.063,149.575 626.063,157.3 633.787,157.3 633.787,165.025 626.063,165.025 626.063,157.3 618.337,157.3 618.337,149.575 
			610.612,149.575 610.612,141.85 602.888,141.85 		"/>
		<polygon style="fill:#3A3925;" points="487.012,149.575 479.287,149.575 479.287,165.025 479.287,172.75 471.563,172.75 
			471.563,180.475 463.837,180.475 463.837,188.2 471.563,188.2 471.563,180.475 487.012,180.475 		"/>
		<polygon style="fill:#7F7D59;" points="525.638,141.85 533.362,141.85 533.362,149.575 541.087,149.575 541.087,157.3 
			548.813,157.3 548.813,165.025 541.087,165.025 541.087,172.75 533.362,172.75 533.362,180.475 525.638,180.475 525.638,172.75 
			533.362,172.75 533.362,165.025 541.087,165.025 541.087,157.3 533.362,157.3 533.362,149.575 533.362,149.575 525.638,149.575 		
			"/>
	</g>
</g>
</svg>
