<?xml version="1.0" encoding="utf-8"?>
<!-- Generator: Adobe Illustrator 27.5.0, SVG Export Plug-In . SVG Version: 6.00 Build 0)  -->
<svg version="1.1" xmlns="http://www.w3.org/2000/svg" xmlns:xlink="http://www.w3.org/1999/xlink" x="0px" y="0px"
	 viewBox="0 0 750 500" style="enable-background:new 0 0 750 500;" xml:space="preserve">
<g id="BACKGROUND">
	<rect style="fill:#FFD3A3;" width="750" height="500"/>
</g>
<g id="OBJECTS">
	<g>
		<polygon style="fill:#722626;" points="52.126,377.948 52.126,386.826 52.126,395.704 61.005,395.704 61.005,431.216 
			69.883,431.216 69.883,377.948 		"/>
		<polygon style="fill:#722626;" points="140.907,404.582 140.907,413.46 149.785,413.46 149.785,431.216 158.663,431.216 
			158.663,404.582 		"/>
		<polygon style="fill:#9B3A38;" points="185.297,315.802 158.663,315.802 158.663,324.68 105.395,324.68 105.395,315.802 
			78.761,315.802 78.761,324.68 69.883,324.68 69.883,333.558 61.005,333.558 61.005,342.436 52.126,342.436 52.126,377.948 
			61.005,377.948 61.005,395.704 69.883,395.704 69.883,440.095 78.761,440.095 78.761,422.339 87.639,422.339 87.639,413.46 
			96.517,413.46 96.517,404.582 149.785,404.582 149.785,413.46 158.663,413.46 158.663,440.095 167.541,440.095 167.541,422.339 
			176.419,422.339 176.419,413.46 185.297,413.46 185.297,404.582 194.175,404.582 194.175,395.704 203.053,395.704 
			203.053,404.582 211.931,404.582 211.931,413.46 238.565,413.46 238.565,404.582 247.443,404.582 256.322,404.582 
			256.322,377.948 247.443,377.948 247.443,360.192 238.565,360.192 238.565,351.314 238.565,324.68 229.687,324.68 
			229.687,333.558 220.809,333.558 211.931,333.558 211.931,324.68 194.175,324.68 194.175,315.802 		"/>
		<polygon style="fill:#AB403E;" points="176.419,360.192 185.297,360.192 185.297,369.07 194.175,369.07 194.175,377.948 
			203.053,377.948 203.053,386.826 194.175,386.826 194.175,377.948 185.297,377.948 185.297,369.07 176.419,369.07 		"/>
		<polygon style="fill:#AB403E;" points="132.029,386.826 140.907,386.826 140.907,395.704 149.785,395.704 149.785,404.582 
			158.663,404.582 158.663,413.46 149.785,413.46 149.785,404.582 140.907,404.582 140.907,395.704 132.029,395.704 		"/>
		<rect x="211.931" y="351.314" style="fill:#28211C;" width="8.878" height="8.878"/>
		<rect x="238.565" y="351.314" style="fill:#28211C;" width="8.878" height="8.878"/>
		<polygon style="fill:#AB403E;" points="247.443,377.948 238.565,377.948 238.565,386.826 229.687,386.826 229.687,404.582 
			256.322,404.582 256.322,377.948 		"/>
		<rect x="229.687" y="395.704" style="fill:#722626;" width="8.878" height="8.878"/>
		<rect x="247.443" y="395.704" style="fill:#722626;" width="8.878" height="8.878"/>
		<polygon style="fill:#722626;" points="69.883,351.314 69.883,342.436 61.005,342.436 61.005,333.558 43.249,333.558 
			43.249,342.436 34.37,342.436 34.37,360.192 43.249,360.192 43.249,351.314 52.126,351.314 52.126,342.436 61.005,342.436 
			61.005,351.314 		"/>
		<polygon style="fill:#AB403E;" points="87.639,413.46 87.639,404.582 96.517,404.582 96.517,395.704 105.395,395.704 
			105.395,404.582 96.517,404.582 96.517,413.46 		"/>
	</g>
	<g>
		<polygon style="fill:#28211C;" points="361.03,315.802 361.03,308.491 346.408,308.491 346.408,301.179 339.096,301.179 
			339.096,293.868 331.785,293.868 324.473,293.868 324.473,308.491 324.473,315.802 		"/>
		<g>
			<polygon style="fill:#382210;" points="397.587,381.604 397.587,388.915 390.275,388.915 390.275,396.227 382.964,396.227 
				382.964,432.783 375.653,432.783 375.653,381.604 			"/>
			<polygon style="fill:#382210;" points="412.209,381.604 412.209,396.227 419.521,396.227 419.521,432.783 426.832,432.783 
				426.832,381.604 			"/>
			<rect x="295.228" y="286.557" style="fill:#382210;" width="7.311" height="29.245"/>
			<rect x="302.539" y="301.179" style="fill:#382210;" width="7.311" height="14.623"/>
			<polygon style="fill:#513418;" points="456.077,330.425 456.077,323.113 441.455,323.113 441.455,315.802 397.587,315.802 
				397.587,323.113 368.341,323.113 368.341,315.802 361.03,315.802 346.408,315.802 346.408,308.491 331.785,308.491 
				331.785,301.179 324.473,301.179 324.473,293.868 317.162,293.868 317.162,286.557 309.851,286.557 309.851,308.491 
				302.539,308.491 302.539,323.113 295.228,323.113 295.228,330.425 287.917,330.425 287.917,345.047 302.539,345.047 
				302.539,352.359 317.162,352.359 317.162,345.047 324.473,345.047 324.473,337.736 331.785,337.736 331.785,366.981 
				339.096,366.981 339.096,374.293 346.408,374.293 346.408,396.227 353.719,396.227 353.719,403.538 361.03,403.538 
				361.03,440.095 368.341,440.095 368.341,396.227 375.653,396.227 375.653,381.604 419.521,381.604 419.521,396.227 
				426.832,396.227 426.832,410.849 434.143,410.849 434.143,440.095 441.455,440.095 441.455,396.227 448.766,396.227 
				448.766,374.293 456.077,374.293 456.077,366.981 463.389,366.981 463.389,330.425 			"/>
			<rect x="295.228" y="315.802" style="fill:#513418;" width="7.311" height="7.311"/>
			<rect x="309.851" y="315.802" style="fill:#28211C;" width="7.311" height="7.311"/>
			<rect x="287.917" y="315.802" style="fill:#28211C;" width="7.311" height="7.311"/>
		</g>
		<polygon style="fill:#754F26;" points="295.228,323.113 302.539,323.113 302.539,330.425 317.162,330.425 317.162,352.359 
			302.539,352.359 302.539,345.047 287.917,345.047 287.917,330.425 295.228,330.425 		"/>
		<polygon style="fill:#754F26;" points="404.898,366.981 404.898,374.293 412.209,374.293 412.209,381.604 419.521,381.604 
			419.521,374.293 412.209,374.293 412.209,366.981 		"/>
		<polygon style="fill:#754F26;" points="390.275,366.981 390.275,374.293 382.964,374.293 382.964,381.604 375.653,381.604 
			375.653,374.293 382.964,374.293 382.964,366.981 		"/>
		<polygon style="fill:#513418;" points="470.7,352.359 470.7,337.736 463.389,337.736 463.389,345.047 463.389,359.67 
			470.7,359.67 470.7,388.915 478.011,388.915 478.011,352.359 		"/>
		<rect x="470.7" y="381.604" style="fill:#28211C;" width="7.311" height="7.311"/>
		<rect x="463.389" y="374.293" style="fill:#28211C;" width="7.311" height="7.311"/>
		<rect x="478.011" y="374.293" style="fill:#28211C;" width="7.311" height="7.311"/>
	</g>
	<g>
		<polygon style="fill:#949AAF;" points="139.863,162.264 139.863,213.443 132.551,213.443 132.551,191.509 125.24,191.509 
			125.24,184.198 117.928,184.198 117.928,162.264 		"/>
		<polygon style="fill:#9B3A38;" points="154.485,169.575 154.485,176.887 147.174,176.887 147.174,184.198 139.863,184.198 
			139.863,176.887 132.551,176.887 132.551,184.198 125.24,184.198 125.24,176.887 125.24,154.953 154.485,154.953 		"/>
		<polygon style="fill:#949AAF;" points="227.598,154.953 227.598,162.264 220.287,162.264 220.287,176.887 212.976,176.887 
			212.976,213.443 205.664,213.443 205.664,154.953 		"/>
		<polygon style="fill:#F0923D;" points="264.155,89.151 271.466,89.151 271.466,81.839 278.778,81.839 278.778,74.528 
			286.089,74.528 286.089,67.217 278.778,67.217 278.778,74.528 271.466,74.528 271.466,81.839 264.155,81.839 		"/>
		<polygon style="fill:#FFFFFF;" points="249.532,125.707 249.532,133.019 242.221,133.019 242.221,140.33 234.91,140.33 
			234.91,147.641 227.598,147.641 227.598,154.953 220.287,154.953 220.287,162.264 212.976,162.264 212.976,176.887 
			205.664,176.887 205.664,220.755 198.353,220.755 198.353,191.509 191.042,191.509 191.042,184.198 183.73,184.198 
			183.73,169.575 139.863,169.575 139.863,162.264 125.24,162.264 125.24,176.887 117.928,176.887 117.928,220.755 110.617,220.755 
			110.617,191.509 103.306,191.509 103.306,184.198 95.994,184.198 95.994,154.953 88.683,154.953 88.683,111.085 95.994,111.085 
			95.994,103.773 103.306,103.773 103.306,96.462 110.617,96.462 110.617,89.151 147.174,89.151 147.174,96.462 183.73,96.462 
			183.73,89.151 205.664,89.151 205.664,81.839 227.598,81.839 227.598,67.217 234.91,67.217 234.91,74.528 242.221,74.528 
			242.221,81.839 256.844,81.839 256.844,74.528 264.155,74.528 264.155,67.217 271.466,67.217 271.466,89.151 278.778,89.151 
			278.778,96.462 286.089,96.462 286.089,111.085 278.778,111.085 278.778,118.396 264.155,118.396 264.155,125.707 		"/>
		<polygon style="fill:#513418;" points="161.796,96.462 161.796,103.773 154.485,103.773 154.485,118.396 147.174,118.396 
			147.174,125.707 132.551,125.707 132.551,118.396 125.24,118.396 125.24,111.085 110.617,111.085 110.617,96.462 110.617,89.151 
			147.174,89.151 147.174,96.462 		"/>
		<polygon style="fill:#513418;" points="191.042,184.198 191.042,176.887 198.353,176.887 198.353,162.264 191.042,162.264 
			191.042,147.641 183.73,147.641 183.73,154.953 169.108,154.953 169.108,162.264 161.796,162.264 161.796,169.575 183.73,169.575 
			183.73,184.198 		"/>
		<polygon style="fill:#513418;" points="256.844,125.707 256.844,118.396 242.221,118.396 242.221,111.085 234.91,111.085 
			234.91,125.707 227.598,125.707 227.598,147.641 234.91,147.641 234.91,140.33 242.221,140.33 242.221,133.019 249.532,133.019 
			249.532,125.707 		"/>
		<rect x="249.532" y="89.151" style="fill:#28211C;" width="7.311" height="7.311"/>
		<rect x="271.466" y="89.151" style="fill:#28211C;" width="7.311" height="7.311"/>
		<rect x="234.91" y="74.528" style="fill:#949AAF;" width="7.311" height="7.311"/>
		<rect x="264.155" y="74.528" style="fill:#949AAF;" width="7.311" height="7.311"/>
		<polygon style="fill:#F0923D;" points="234.91,89.151 227.598,89.151 227.598,81.839 220.287,81.839 220.287,74.528 
			212.976,74.528 212.976,67.217 220.287,67.217 220.287,74.528 227.598,74.528 227.598,81.839 234.91,81.839 		"/>
		<polygon style="fill:#949AAF;" points="271.466,96.462 264.155,96.462 264.155,103.773 256.844,103.773 256.844,118.396 
			278.778,118.396 278.778,111.085 286.089,111.085 286.089,96.462 		"/>
		<polygon style="fill:#513418;" points="176.419,125.707 176.419,125.707 169.108,125.707 169.108,133.019 161.796,133.019 
			161.796,140.33 169.108,140.33 169.108,133.019 176.419,133.019 		"/>
		<polygon style="fill:#513418;" points="110.617,147.641 110.617,147.641 103.306,147.641 103.306,154.953 95.994,154.953 
			95.994,162.264 103.306,162.264 103.306,154.953 110.617,154.953 		"/>
		<polygon style="fill:#CACEE0;" points="88.683,118.396 81.372,118.396 81.372,133.019 74.061,133.019 74.061,162.264 
			81.372,162.264 81.372,133.019 88.683,133.019 		"/>
		<rect x="66.749" y="154.953" style="fill:#28211C;" width="7.311" height="7.311"/>
		<rect x="81.372" y="154.953" style="fill:#28211C;" width="7.311" height="7.311"/>
		<rect x="74.061" y="162.264" style="fill:#28211C;" width="7.311" height="7.311"/>
	</g>
	<g>
		<polygon style="fill:#9B3A38;" points="375.653,125.707 368.341,125.707 368.341,133.019 361.03,133.019 361.03,162.264 
			368.341,162.264 368.341,169.575 382.964,169.575 382.964,184.198 390.275,184.198 390.275,198.821 397.587,198.821 
			397.587,206.132 404.898,206.132 404.898,213.443 441.455,213.443 441.455,206.132 448.766,206.132 448.766,198.821 
			463.389,198.821 463.389,184.198 470.7,184.198 470.7,162.264 478.011,162.264 478.011,154.953 485.323,154.953 485.323,147.641 
			499.945,147.641 499.945,140.33 507.257,140.33 507.257,89.151 499.945,89.151 499.945,81.839 492.634,81.839 492.634,74.528 
			485.323,74.528 485.323,67.217 470.7,67.217 470.7,74.528 463.389,74.528 463.389,81.839 456.077,81.839 456.077,103.773 
			448.766,103.773 448.766,111.085 441.455,111.085 441.455,118.396 441.455,125.707 426.832,125.707 419.521,125.707 
			419.521,118.396 412.209,118.396 412.209,111.085 404.898,111.085 404.898,81.839 397.587,81.839 397.587,74.528 375.653,74.528 
			375.653,81.839 368.341,81.839 368.341,96.462 375.653,96.462 		"/>
		<polygon style="fill:#722626;" points="368.341,81.839 368.341,74.528 361.03,74.528 361.03,67.217 368.341,67.217 
			368.341,59.905 390.275,59.905 390.275,67.217 397.587,67.217 397.587,74.528 404.898,74.528 404.898,81.839 412.209,81.839 
			412.209,96.462 412.209,111.085 397.587,111.085 397.587,89.151 		"/>
		<polygon style="fill:#F0923D;" points="412.209,118.396 412.209,125.707 404.898,125.707 404.898,133.019 397.587,133.019 
			397.587,140.33 390.275,140.33 390.275,133.019 375.653,133.019 375.653,96.462 368.341,96.462 368.341,81.839 375.653,81.839 
			375.653,74.528 397.587,74.528 397.587,81.839 404.898,81.839 404.898,111.085 412.209,111.085 		"/>
		<polygon style="fill:#722626;" points="404.898,147.641 412.209,147.641 412.209,154.953 419.521,154.953 419.521,162.264 
			426.832,162.264 426.832,176.887 441.455,176.887 441.455,169.575 448.766,169.575 448.766,162.264 456.077,162.264 
			456.077,169.575 448.766,169.575 448.766,176.887 441.455,176.887 441.455,184.198 426.832,184.198 426.832,176.887 
			419.521,176.887 419.521,162.264 412.209,162.264 412.209,154.953 404.898,154.953 		"/>
		<polygon style="fill:#FFB031;" points="375.653,89.151 368.341,89.151 368.341,96.462 361.03,96.462 361.03,103.773 
			368.341,103.773 375.653,103.773 		"/>
		<rect x="382.964" y="81.839" style="fill:#28211C;" width="7.311" height="7.311"/>
		<polygon style="fill:#722626;" points="375.653,125.707 375.653,154.953 382.964,154.953 382.964,169.575 368.341,169.575 
			368.341,162.264 361.03,162.264 361.03,133.019 368.341,133.019 368.341,125.707 		"/>
		<polygon style="fill:#28211C;" points="404.898,206.132 404.898,213.443 397.587,213.443 397.587,220.755 390.275,220.755 
			390.275,228.066 397.587,228.066 397.587,220.755 404.898,220.755 404.898,228.066 412.209,228.066 412.209,220.755 
			404.898,220.755 404.898,213.443 412.209,213.443 412.209,206.132 		"/>
		<polygon style="fill:#28211C;" points="434.143,206.132 434.143,213.443 426.832,213.443 426.832,220.755 419.521,220.755 
			419.521,228.066 426.832,228.066 426.832,220.755 434.143,220.755 434.143,228.066 441.455,228.066 441.455,220.755 
			434.143,220.755 434.143,213.443 441.455,213.443 441.455,206.132 		"/>
		<polygon style="fill:#F0923D;" points="441.455,118.396 441.455,111.085 448.766,111.085 448.766,118.396 463.389,118.396 
			463.389,125.707 478.011,125.707 478.011,140.33 485.323,140.33 485.323,147.641 492.634,147.641 492.634,154.953 
			485.323,154.953 485.323,147.641 478.011,147.641 478.011,140.33 470.7,140.33 470.7,133.019 463.389,133.019 463.389,125.707 
			448.766,125.707 448.766,118.396 		"/>
		<polygon style="fill:#FFB031;" points="441.455,125.707 448.766,125.707 448.766,133.019 456.077,133.019 456.077,147.641 
			463.389,147.641 463.389,169.575 470.7,169.575 470.7,176.887 478.011,176.887 478.011,184.198 485.323,184.198 492.634,184.198 
			492.634,169.575 485.323,169.575 485.323,162.264 485.323,154.953 470.7,154.953 470.7,140.33 463.389,140.33 463.389,133.019 
			456.077,133.019 456.077,118.396 434.143,118.396 434.143,125.707 		"/>
		<polygon style="fill:#722626;" points="492.634,89.151 485.323,89.151 485.323,96.462 478.011,96.462 478.011,103.773 
			470.7,103.773 470.7,118.396 478.011,118.396 478.011,103.773 485.323,103.773 485.323,96.462 492.634,96.462 		"/>
	</g>
	<g>
		<polygon style="fill:#949AAF;" points="558.436,133.019 551.125,133.019 551.125,140.33 543.813,140.33 543.813,154.953 
			551.125,154.953 551.125,162.264 558.436,162.264 558.436,169.575 565.747,169.575 565.747,176.887 573.059,176.887 
			573.059,191.509 587.681,191.509 587.681,154.953 565.747,154.953 565.747,133.019 		"/>
		<polygon style="fill:#FFFFFF;" points="668.106,89.151 668.106,103.773 675.417,103.773 675.417,111.085 682.729,111.085 
			682.729,125.707 690.04,125.707 690.04,140.33 697.351,140.33 697.351,176.887 690.04,176.887 690.04,184.198 682.729,184.198 
			682.729,191.509 668.106,191.509 668.106,198.821 660.795,198.821 660.795,213.443 624.238,213.443 624.238,206.132 
			602.304,206.132 602.304,198.821 587.681,198.821 587.681,184.198 573.059,184.198 573.059,169.575 565.747,169.575 
			565.747,154.953 558.436,154.953 558.436,125.707 573.059,125.707 580.37,125.707 580.37,140.33 594.993,140.33 609.615,140.33 
			609.615,133.019 624.238,133.019 624.238,118.396 638.861,118.396 638.861,111.085 646.172,111.085 646.172,59.905 
			653.483,59.905 653.483,52.594 675.417,52.594 675.417,59.905 682.729,59.905 682.729,89.151 		"/>
		<polygon style="fill:#FFB031;" points="682.729,67.217 690.04,67.217 690.04,74.528 697.351,74.528 704.663,74.528 
			704.663,81.839 690.04,81.839 690.04,89.151 675.417,89.151 675.417,81.839 682.729,81.839 		"/>
		<polygon style="fill:#CACEE0;" points="668.106,147.641 660.795,147.641 660.795,154.953 653.483,154.953 653.483,162.264 
			646.172,162.264 646.172,176.887 631.549,176.887 631.549,184.198 616.927,184.198 616.927,176.887 609.615,176.887 
			609.615,169.575 602.304,169.575 602.304,176.887 609.615,176.887 609.615,184.198 616.927,184.198 616.927,191.509 
			631.549,191.509 631.549,184.198 646.172,184.198 646.172,176.887 653.483,176.887 653.483,162.264 660.795,162.264 
			660.795,154.953 668.106,154.953 		"/>
		<rect x="668.106" y="67.217" style="fill:#CACEE0;" width="7.311" height="7.311"/>
		<rect x="668.106" y="67.217" style="fill:#28211C;" width="7.311" height="7.311"/>
		<polygon style="fill:#722626;" points="675.417,228.066 660.795,228.066 660.795,220.755 653.483,220.755 653.483,213.443 
			646.172,213.443 646.172,206.132 638.861,206.132 638.861,213.443 646.172,213.443 646.172,220.755 653.483,220.755 
			653.483,228.066 646.172,228.066 646.172,235.377 675.417,235.377 		"/>
		<polygon style="fill:#722626;" points="638.861,228.066 624.238,228.066 624.238,220.755 616.927,220.755 616.927,213.443 
			609.615,213.443 609.615,206.132 602.304,206.132 602.304,213.443 609.615,213.443 609.615,220.755 616.927,220.755 
			616.927,228.066 609.615,228.066 609.615,235.377 638.861,235.377 		"/>
	</g>
	<g>
		<polygon style="fill:#754F26;" points="693.696,377.948 693.696,385.26 686.384,385.26 686.384,399.882 686.384,429.128 
			679.073,429.128 679.073,377.948 		"/>
		<polygon style="fill:#754F26;" points="569.403,392.571 562.092,392.571 562.092,399.882 554.78,399.882 554.78,414.505 
			562.092,414.505 562.092,421.816 569.403,421.816 		"/>
		<polygon style="fill:#754F26;" points="627.894,297.524 620.582,297.524 620.582,304.835 613.271,304.835 613.271,312.146 
			620.582,312.146 620.582,319.458 627.894,319.458 627.894,326.769 635.205,326.769 635.205,334.08 642.516,334.08 
			642.516,341.392 664.45,341.392 664.45,326.769 649.828,326.769 649.828,312.146 635.205,312.146 635.205,297.524 		"/>
		<polygon style="fill:#E2AE6A;" points="708.318,348.703 708.318,341.392 701.007,341.392 701.007,334.08 693.696,334.08 
			693.696,326.769 679.073,326.769 679.073,319.458 671.762,319.458 664.45,319.458 664.45,304.835 649.828,304.835 
			649.828,297.524 635.205,297.524 635.205,290.212 627.894,290.212 627.894,297.524 627.894,312.146 635.205,312.146 
			635.205,319.458 642.516,319.458 642.516,326.769 649.828,326.769 649.828,334.08 657.139,334.08 657.139,341.392 
			657.139,348.703 642.516,348.703 627.894,348.703 627.894,341.392 598.648,341.392 598.648,348.703 591.337,348.703 
			591.337,356.014 584.026,356.014 584.026,363.326 576.714,363.326 576.714,370.637 576.714,377.948 569.403,377.948 
			569.403,392.571 569.403,399.882 569.403,407.194 562.092,407.194 562.092,414.505 569.403,414.505 569.403,421.816 
			576.714,421.816 576.714,429.128 584.026,429.128 584.026,436.439 635.205,436.439 635.205,421.816 620.582,421.816 
			620.582,414.505 635.205,414.505 635.205,407.194 649.828,407.194 649.828,414.505 657.139,414.505 657.139,429.128 
			664.45,429.128 664.45,436.439 679.073,436.439 679.073,399.882 679.073,392.571 686.384,392.571 686.384,377.948 
			693.696,377.948 693.696,370.637 701.007,370.637 708.318,370.637 708.318,363.326 715.63,363.326 715.63,348.703 		"/>
		<polygon style="fill:#AA7A41;" points="635.205,414.505 627.894,414.505 627.894,407.194 620.582,407.194 620.582,399.882 
			613.271,399.882 613.271,392.571 620.582,392.571 620.582,399.882 627.894,399.882 627.894,407.194 635.205,407.194 		"/>
		<polygon style="fill:#AA7A41;" points="649.828,407.194 649.828,399.882 657.139,399.882 657.139,392.571 664.45,392.571 
			664.45,399.882 657.139,399.882 657.139,407.194 		"/>
		<rect x="679.073" y="341.392" style="fill:#28211C;" width="7.311" height="7.311"/>
		<polygon style="fill:#AA7A41;" points="708.318,348.703 701.007,348.703 701.007,356.014 708.318,356.014 708.318,363.326 
			715.63,363.326 715.63,348.703 		"/>
	</g>
	<g>
		<g>
			<polygon style="fill:#E2AE6A;" points="265.983,271.934 258.672,271.934 258.672,257.311 251.36,257.311 251.36,250 236.738,250 
				236.738,257.311 229.426,257.311 229.426,271.934 222.115,271.934 222.115,279.245 229.426,279.245 229.426,286.557 
				236.738,286.557 236.738,293.868 251.36,293.868 251.36,286.557 258.672,286.557 258.672,279.245 265.983,279.245 			"/>
			<rect x="236.738" y="257.311" style="fill:#FFFFFF;" width="7.311" height="14.623"/>
		</g>
		<g>
			<polygon style="fill:#E2AE6A;" points="558.436,235.377 551.125,235.377 551.125,220.755 543.813,220.755 543.813,213.443 
				529.191,213.443 529.191,220.755 521.879,220.755 521.879,235.377 514.568,235.377 514.568,242.689 521.879,242.689 521.879,250 
				529.191,250 529.191,257.311 543.813,257.311 543.813,250 551.125,250 551.125,242.689 558.436,242.689 			"/>
			<rect x="529.191" y="220.755" style="fill:#FFFFFF;" width="7.311" height="14.623"/>
		</g>
		<g>
			<polygon style="fill:#E2AE6A;" points="529.191,425.472 521.879,425.472 521.879,410.849 514.568,410.849 514.568,403.538 
				499.945,403.538 499.945,410.849 492.634,410.849 492.634,425.472 485.323,425.472 485.323,432.783 492.634,432.783 
				492.634,440.095 499.945,440.095 499.945,447.406 514.568,447.406 514.568,440.095 521.879,440.095 521.879,432.783 
				529.191,432.783 			"/>
			<rect x="499.945" y="410.849" style="fill:#FFFFFF;" width="7.311" height="14.623"/>
		</g>
	</g>
</g>
</svg>
